<svg width="6" height="10" viewBox="0 0 6 10" fill="none" xmlns="http://www.w3.org/2000/svg">
<path d="M5.35688 10H0V0H5.35688V10Z" stroke="#E5E7EB"/>
<path d="M5.35688 9.28624H0V0.714807H5.35688V9.28624Z" stroke="#E5E7EB"/>
<g clip-path="url(#clip0_844_4895)">
<path d="M4.77946 3.35109C4.95384 3.1767 4.95384 2.89349 4.77946 2.7191C4.60507 2.54471 4.32186 2.54471 4.14747 2.7191L2.67842 4.18955L1.20797 2.7205C1.03358 2.54611 0.750372 2.54611 0.575983 2.7205C0.401594 2.89488 0.401594 3.17809 0.575983 3.35248L2.04643 4.82153L0.577378 6.29198C0.402989 6.46637 0.402989 6.74958 0.577378 6.92397C0.751767 7.09836 1.03497 7.09836 1.20936 6.92397L2.67842 5.45352L4.14886 6.92257C4.32325 7.09696 4.60646 7.09696 4.78085 6.92257C4.95524 6.74818 4.95524 6.46498 4.78085 6.29059L3.3104 4.82153L4.77946 3.35109Z" fill="#9CA3AF"/>
</g>
<defs>
<clipPath id="clip0_844_4895">
<path d="M0 1.24987H5.35723V8.39284H0V1.24987Z" fill="white"/>
</clipPath>
</defs>
</svg>
