<svg width="14" height="14" viewBox="0 0 14 14" fill="none" xmlns="http://www.w3.org/2000/svg">
<path d="M6.99987 0C10.8658 0 13.9997 3.13394 13.9997 6.99987C13.9997 10.8659 10.8659 13.9997 6.99987 13.9997C3.13394 13.9997 0 10.8658 0 6.99987C6.14382e-05 3.13398 3.13398 6.14365e-05 6.99987 0Z" stroke="#E5E7EB"/>
<path d="M9.62457 11.8993H4.37492V2.09945H9.62457V11.8993Z" stroke="#E5E7EB"/>
<g clip-path="url(#clip0_844_4862)">
<path d="M9.0587 5.38295C9.2296 5.21205 9.2296 4.93451 9.0587 4.76361C8.8878 4.59271 8.61026 4.59271 8.43937 4.76361L6.99972 6.20462L5.55871 4.76498C5.38781 4.59408 5.11027 4.59408 4.93937 4.76498C4.76848 4.93588 4.76848 5.21341 4.93937 5.38431L6.38039 6.82396L4.94074 8.26497C4.76984 8.43587 4.76984 8.71341 4.94074 8.88431C5.11164 9.0552 5.38918 9.0552 5.56008 8.88431L6.99972 7.44329L8.44073 8.88294C8.61163 9.05384 8.88917 9.05384 9.06007 8.88294C9.23097 8.71204 9.23097 8.4345 9.06007 8.2636L7.61906 6.82396L9.0587 5.38295Z" fill="#4B5563"/>
</g>
<defs>
<clipPath id="clip0_844_4862">
<path d="M4.37479 3.3243H9.62478V10.3243H4.37479V3.3243Z" fill="white"/>
</clipPath>
</defs>
</svg>
