<svg width="384" height="192" viewBox="0 0 384 192" fill="none" xmlns="http://www.w3.org/2000/svg">
<path d="M384 192H0V0H384V192Z" fill="#262626"/>
<path d="M384 192H0V0H384V192Z" stroke="#E5E7EB"/>
<path d="M212.25 114H171.75V78H212.25V114Z" stroke="#E5E7EB"/>
<path d="M212.25 114H171.75V78H212.25V114Z" stroke="#E5E7EB"/>
<path d="M210.398 86.7246C209.956 85.0617 208.655 83.7521 207.003 83.3076C204.008 82.5 192 82.5 192 82.5C192 82.5 179.992 82.5 176.997 83.3076C175.345 83.7521 174.044 85.0617 173.602 86.7246C172.8 89.7387 172.8 96.0273 172.8 96.0273C172.8 96.0273 172.8 102.316 173.602 105.33C174.044 106.993 175.345 108.248 176.997 108.692C179.992 109.5 192 109.5 192 109.5C192 109.5 204.008 109.5 207.003 108.692C208.655 108.248 209.956 106.993 210.398 105.33C211.2 102.316 211.2 96.0273 211.2 96.0273C211.2 96.0273 211.2 89.7387 210.398 86.7246ZM188.073 101.737V90.3177L198.109 96.0274L188.073 101.737Z" fill="white"/>
<path d="M384 192H0V0H384V192Z" fill="black" fill-opacity="0.5"/>
<path d="M384 192H0V0H384V192Z" stroke="#E5E7EB"/>
<path d="M192 64C209.673 64 224 78.3269 224 96C224 113.673 209.673 128 192 128C174.327 128 160 113.673 160 96C160 78.3269 174.327 64 192 64Z" fill="white"/>
<path d="M192 64C209.673 64 224 78.3269 224 96C224 113.673 209.673 128 192 128C174.327 128 160 113.673 160 96C160 78.3269 174.327 64 192 64Z" stroke="#E5E7EB"/>
<path d="M201.5 106H186.5V86H201.5V106Z" stroke="#E5E7EB"/>
<g clip-path="url(#clip0_844_4180)">
<path d="M189.352 87.5232C188.773 87.1678 188.047 87.1561 187.457 87.4881C186.867 87.8201 186.5 88.4451 186.5 89.1248V102.875C186.5 103.554 186.867 104.179 187.457 104.512C188.047 104.844 188.773 104.828 189.352 104.476L200.602 97.6014C201.16 97.2615 201.5 96.6561 201.5 95.9998C201.5 95.3436 201.16 94.742 200.602 94.3982L189.352 87.5232Z" fill="#262626"/>
</g>
<defs>
<clipPath id="clip0_844_4180">
<path d="M186.5 86H201.5V106H186.5V86Z" fill="white"/>
</clipPath>
</defs>
</svg>
