<svg width="125" height="13" viewBox="0 0 125 13" fill="none" xmlns="http://www.w3.org/2000/svg">
<path d="M125 11.0888H0V0.336261H125V11.0888Z" stroke="#E5E7EB"/>
<g filter="url(#filter0_d_844_4870)">
<path d="M57.1237 5.71261C57.1237 2.74333 59.5308 0.336261 62.5001 0.336261C65.4693 0.336261 67.8764 2.74333 67.8764 5.71261C67.8764 8.68188 65.4693 11.0889 62.5001 11.0889C59.5308 11.0889 57.1237 8.68188 57.1237 5.71261Z" fill="white"/>
<path d="M62.5 0.672522C65.2836 0.672522 67.5399 2.92886 67.54 5.71252C67.54 8.49621 65.2837 10.7525 62.5 10.7525C59.7163 10.7525 57.46 8.49618 57.46 5.71252C57.46 2.92889 59.7163 0.672569 62.5 0.672522Z" stroke="#E5E7EB" stroke-width="0.669444"/>
<path d="M65.1459 9.07219H59.854V2.35187H65.1459V9.07219Z" stroke="#E5E7EB"/>
<g clip-path="url(#clip0_844_4870)">
<path d="M61.1165 7.89355C61.2314 8.00841 61.4179 8.00841 61.5327 7.89355L62.4148 7.0115C62.5296 6.89665 62.5296 6.71013 62.4148 6.59528C62.2999 6.48043 62.1134 6.48043 61.9986 6.59528L61.6182 6.97566V5.92179H64.8524C65.015 5.92179 65.1464 5.7904 65.1464 5.62777C65.1464 5.46514 65.015 5.33375 64.8524 5.33375H63.9703V4.27988L64.3507 4.66027C64.4656 4.77512 64.6521 4.77512 64.7669 4.66027C64.8818 4.54541 64.8818 4.3589 64.7669 4.24405L63.8849 3.36199C63.77 3.24714 63.5835 3.24714 63.4687 3.36199L62.5866 4.24405C62.4717 4.3589 62.4717 4.54541 62.5866 4.66027C62.7014 4.77512 62.888 4.77512 63.0028 4.66027L63.3823 4.27988V5.33375H61.6182H61.0301H60.1481C59.9854 5.33375 59.8541 5.46514 59.8541 5.62777C59.8541 5.7904 59.9854 5.92179 60.1481 5.92179H61.0301V6.97566L60.6497 6.5962C60.5349 6.48134 60.3484 6.48134 60.2335 6.5962C60.1187 6.71105 60.1187 6.89757 60.2335 7.01242L61.1156 7.89447L61.1165 7.89355ZM61.0301 5.03973H61.6182V3.86366C61.6182 3.70103 61.4868 3.56964 61.3242 3.56964C61.1615 3.56964 61.0301 3.70103 61.0301 3.86366V5.03973ZM63.9703 6.21581H63.3823V7.39188C63.3823 7.55451 63.5137 7.6859 63.6763 7.6859C63.8389 7.6859 63.9703 7.55451 63.9703 7.39188V6.21581Z" fill="#4B5563"/>
</g>
</g>
<defs>
<filter id="filter0_d_844_4870" x="56.4517" y="0.000239643" width="12.0968" height="12.0966" filterUnits="userSpaceOnUse" color-interpolation-filters="sRGB">
<feFlood flood-opacity="0" result="BackgroundImageFix"/>
<feColorMatrix in="SourceAlpha" type="matrix" values="0 0 0 0 0 0 0 0 0 0 0 0 0 0 0 0 0 0 127 0" result="hardAlpha"/>
<feOffset dy="0.334722"/>
<feGaussianBlur stdDeviation="0.334722"/>
<feColorMatrix type="matrix" values="0 0 0 0 0 0 0 0 0 0 0 0 0 0 0 0 0 0 0.05 0"/>
<feBlend mode="normal" in2="BackgroundImageFix" result="effect1_dropShadow_844_4870"/>
<feBlend mode="normal" in="SourceGraphic" in2="effect1_dropShadow_844_4870" result="shape"/>
</filter>
<clipPath id="clip0_844_4870">
<path d="M59.854 3.27585H65.1463V7.98015H59.854V3.27585Z" fill="white"/>
</clipPath>
</defs>
</svg>
