<svg width="17" height="17" viewBox="0 0 17 17" fill="none" xmlns="http://www.w3.org/2000/svg">
<path d="M8.49974 0C13.1941 0 16.9994 3.80545 16.9995 8.49974C16.9995 13.1941 13.1941 16.9995 8.49974 16.9995C3.80545 16.9994 0 13.1941 0 8.49974C7.47095e-05 3.8055 3.8055 7.47116e-05 8.49974 0Z" fill="#DBEAFE"/>
<path d="M8.49974 0C13.1941 0 16.9994 3.80545 16.9995 8.49974C16.9995 13.1941 13.1941 16.9995 8.49974 16.9995C3.80545 16.9994 0 13.1941 0 8.49974C7.47095e-05 3.8055 3.8055 7.47116e-05 8.49974 0Z" stroke="#E5E7EB"/>
<path d="M12.0415 13.4579H4.95838V3.54156H12.0415V13.4579Z" stroke="#E5E7EB"/>
<g clip-path="url(#clip0_844_4893)">
<path d="M6.82912 6.40571L6.46804 7.43776H10.5326L10.1715 6.40571C10.1093 6.22863 9.94186 6.10966 9.75372 6.10966H7.24692C7.05877 6.10966 6.89137 6.22863 6.82912 6.40571ZM5.50654 7.50417L5.99352 6.11381C6.18028 5.58118 6.68247 5.22425 7.24692 5.22425H9.75372C10.3182 5.22425 10.8204 5.58118 11.0071 6.11381L11.4941 7.50417C11.815 7.63698 12.0419 7.95379 12.0419 8.32317V10.3153V10.9794C12.0419 11.2242 11.8441 11.4221 11.5992 11.4221H11.1565C10.9117 11.4221 10.7138 11.2242 10.7138 10.9794V10.3153H6.28681V10.9794C6.28681 11.2242 6.08897 11.4221 5.8441 11.4221H5.4014C5.15653 11.4221 4.9587 11.2242 4.9587 10.9794V10.3153V8.32317C4.9587 7.95379 5.18558 7.63698 5.50654 7.50417ZM6.72951 8.76587C6.72951 8.64846 6.68287 8.53585 6.59984 8.45283C6.51682 8.36981 6.40422 8.32317 6.28681 8.32317C6.16939 8.32317 6.05679 8.36981 5.97377 8.45283C5.89075 8.53585 5.8441 8.64846 5.8441 8.76587C5.8441 8.88328 5.89075 8.99588 5.97377 9.07891C6.05679 9.16193 6.16939 9.20857 6.28681 9.20857C6.40422 9.20857 6.51682 9.16193 6.59984 9.07891C6.68287 8.99588 6.72951 8.88328 6.72951 8.76587ZM10.7138 9.20857C10.8312 9.20857 10.9438 9.16193 11.0269 9.07891C11.1099 8.99588 11.1565 8.88328 11.1565 8.76587C11.1565 8.64846 11.1099 8.53585 11.0269 8.45283C10.9438 8.36981 10.8312 8.32317 10.7138 8.32317C10.5964 8.32317 10.4838 8.36981 10.4008 8.45283C10.3178 8.53585 10.2711 8.64846 10.2711 8.76587C10.2711 8.88328 10.3178 8.99588 10.4008 9.07891C10.4838 9.16193 10.5964 9.20857 10.7138 9.20857Z" fill="#2563EB"/>
</g>
<defs>
<clipPath id="clip0_844_4893">
<path d="M4.95851 4.78098H12.0417V11.8642H4.95851V4.78098Z" fill="white"/>
</clipPath>
</defs>
</svg>
