<svg width="336" height="16" viewBox="0 0 336 16" fill="none" xmlns="http://www.w3.org/2000/svg">
<path d="M336 16H0V0H336V16Z" stroke="#E5E7EB"/>
<path d="M18 16H0V0H18V16Z" stroke="#E5E7EB"/>
<g clip-path="url(#clip0_844_4300)">
<path d="M9.90312 0.5625C9.7375 0.21875 9.3875 0 9.00313 0C8.61875 0 8.27187 0.21875 8.10312 0.5625L6.09375 4.69688L1.60625 5.35938C1.23125 5.41563 0.91875 5.67812 0.803125 6.0375C0.6875 6.39687 0.78125 6.79375 1.05 7.05937L4.30625 10.2812L3.5375 14.8344C3.475 15.2094 3.63125 15.5906 3.94062 15.8125C4.25 16.0344 4.65937 16.0625 4.99687 15.8844L9.00625 13.7437L13.0156 15.8844C13.3531 16.0625 13.7625 16.0375 14.0719 15.8125C14.3812 15.5875 14.5375 15.2094 14.475 14.8344L13.7031 10.2812L16.9594 7.05937C17.2281 6.79375 17.325 6.39687 17.2062 6.0375C17.0875 5.67812 16.7781 5.41563 16.4031 5.35938L11.9125 4.69688L9.90312 0.5625Z" fill="#737373"/>
</g>
<path d="M36 16H18V0H36V16Z" stroke="#E5E7EB"/>
<g clip-path="url(#clip1_844_4300)">
<path d="M27.9031 0.5625C27.7375 0.21875 27.3875 0 27.0031 0C26.6188 0 26.2719 0.21875 26.1031 0.5625L24.0938 4.69688L19.6063 5.35938C19.2313 5.41563 18.9188 5.67812 18.8031 6.0375C18.6875 6.39687 18.7812 6.79375 19.05 7.05937L22.3063 10.2812L21.5375 14.8344C21.475 15.2094 21.6312 15.5906 21.9406 15.8125C22.25 16.0344 22.6594 16.0625 22.9969 15.8844L27.0063 13.7437L31.0156 15.8844C31.3531 16.0625 31.7625 16.0375 32.0719 15.8125C32.3812 15.5875 32.5375 15.2094 32.475 14.8344L31.7031 10.2812L34.9594 7.05937C35.2281 6.79375 35.325 6.39687 35.2062 6.0375C35.0875 5.67812 34.7781 5.41563 34.4031 5.35938L29.9125 4.69688L27.9031 0.5625Z" fill="#737373"/>
</g>
<path d="M54 16H36V0H54V16Z" stroke="#E5E7EB"/>
<g clip-path="url(#clip2_844_4300)">
<path d="M45.9031 0.5625C45.7375 0.21875 45.3875 0 45.0031 0C44.6188 0 44.2719 0.21875 44.1031 0.5625L42.0938 4.69688L37.6063 5.35938C37.2313 5.41563 36.9188 5.67812 36.8031 6.0375C36.6875 6.39687 36.7812 6.79375 37.05 7.05937L40.3063 10.2812L39.5375 14.8344C39.475 15.2094 39.6312 15.5906 39.9406 15.8125C40.25 16.0344 40.6594 16.0625 40.9969 15.8844L45.0063 13.7437L49.0156 15.8844C49.3531 16.0625 49.7625 16.0375 50.0719 15.8125C50.3812 15.5875 50.5375 15.2094 50.475 14.8344L49.7031 10.2812L52.9594 7.05937C53.2281 6.79375 53.325 6.39687 53.2062 6.0375C53.0875 5.67812 52.7781 5.41563 52.4031 5.35938L47.9125 4.69688L45.9031 0.5625Z" fill="#737373"/>
</g>
<path d="M72 16H54V0H72V16Z" stroke="#E5E7EB"/>
<g clip-path="url(#clip3_844_4300)">
<path d="M63.9031 0.5625C63.7375 0.21875 63.3875 0 63.0031 0C62.6188 0 62.2719 0.21875 62.1031 0.5625L60.0938 4.69688L55.6063 5.35938C55.2313 5.41563 54.9188 5.67812 54.8031 6.0375C54.6875 6.39687 54.7812 6.79375 55.05 7.05937L58.3063 10.2812L57.5375 14.8344C57.475 15.2094 57.6312 15.5906 57.9406 15.8125C58.25 16.0344 58.6594 16.0625 58.9969 15.8844L63.0063 13.7437L67.0156 15.8844C67.3531 16.0625 67.7625 16.0375 68.0719 15.8125C68.3812 15.5875 68.5375 15.2094 68.475 14.8344L67.7031 10.2812L70.9594 7.05937C71.2281 6.79375 71.325 6.39687 71.2062 6.0375C71.0875 5.67812 70.7781 5.41563 70.4031 5.35938L65.9125 4.69688L63.9031 0.5625Z" fill="#737373"/>
</g>
<path d="M90 16H72V0H90V16Z" stroke="#E5E7EB"/>
<g clip-path="url(#clip4_844_4300)">
<path d="M80.9969 0C81.2844 0 81.5469 0.1625 81.6719 0.421875L83.8156 4.8375L88.6031 5.54375C88.8844 5.58437 89.1188 5.78125 89.2063 6.05312C89.2938 6.325 89.2219 6.61875 89.0219 6.81875L85.55 10.2625L86.3688 15.125C86.4156 15.4062 86.3 15.6906 86.0688 15.8594C85.8375 16.0281 85.5281 16.0469 85.2781 15.9125L80.9969 13.625L76.7188 15.9094C76.4656 16.0438 76.1594 16.025 75.9281 15.8562C75.6969 15.6875 75.5781 15.4031 75.625 15.1219L76.4438 10.2594L72.9719 6.81875C72.7688 6.61875 72.7 6.32188 72.7875 6.05312C72.875 5.78437 73.1094 5.5875 73.3906 5.54375L78.1781 4.8375L80.3219 0.421875C80.45 0.1625 80.7094 0 80.9969 0ZM80.9969 2.46875L79.3563 5.85C79.2469 6.07188 79.0375 6.22813 78.7906 6.26562L75.0938 6.80937L77.7781 9.46875C77.95 9.64062 78.0313 9.88437 77.9906 10.125L77.3563 13.8656L80.6438 12.1094C80.8656 11.9906 81.1313 11.9906 81.35 12.1094L84.6375 13.8656L84.0063 10.1281C83.9656 9.8875 84.0438 9.64375 84.2188 9.47188L86.9031 6.8125L83.2063 6.26562C82.9625 6.22813 82.75 6.075 82.6406 5.85L80.9969 2.46875Z" fill="#737373"/>
</g>
<defs>
<clipPath id="clip0_844_4300">
<path d="M0 0H18V16H0V0Z" fill="white"/>
</clipPath>
<clipPath id="clip1_844_4300">
<path d="M18 0H36V16H18V0Z" fill="white"/>
</clipPath>
<clipPath id="clip2_844_4300">
<path d="M36 0H54V16H36V0Z" fill="white"/>
</clipPath>
<clipPath id="clip3_844_4300">
<path d="M54 0H72V16H54V0Z" fill="white"/>
</clipPath>
<clipPath id="clip4_844_4300">
<path d="M72 0H90V16H72V0Z" fill="white"/>
</clipPath>
</defs>
</svg>
