<svg width="27" height="83" viewBox="0 0 27 83" fill="none" xmlns="http://www.w3.org/2000/svg">
<path d="M21.2556 74.5641H5.06095V1.68719H21.2556V74.5641Z" stroke="#E5E7EB"/>
<g filter="url(#filter0_dd_844_4841)">
<path d="M5.06095 5.73591C5.06095 3.49986 6.87363 1.68719 9.10967 1.68719H17.2071C19.4432 1.68719 21.2559 3.49986 21.2559 5.73591V13.8334C21.2559 16.0694 19.4432 17.8821 17.2071 17.8821H9.10967C6.87362 17.8821 5.06095 16.0694 5.06095 13.8334V5.73591Z" fill="white"/>
<path d="M16.1954 13.8337H10.1219V5.73634H16.1954V13.8337Z" stroke="#E5E7EB"/>
<g clip-path="url(#clip0_844_4841)">
<path d="M12.9112 7.14046C13.0683 7.06771 13.2496 7.06771 13.4067 7.14046L15.7115 8.20536C15.8011 8.24648 15.8581 8.3361 15.8581 8.43521C15.8581 8.53432 15.8011 8.62394 15.7115 8.66506L13.4067 9.72995C13.2496 9.80271 13.0683 9.80271 12.9112 9.72995L10.6063 8.66506C10.5167 8.62288 10.4598 8.53326 10.4598 8.43521C10.4598 8.33715 10.5167 8.24648 10.6063 8.20536L12.9112 7.14046ZM15.1506 9.29556L15.7115 9.55493C15.8011 9.59605 15.8581 9.68567 15.8581 9.78478C15.8581 9.88389 15.8011 9.97351 15.7115 10.0146L13.4067 11.0795C13.2496 11.1523 13.0683 11.1523 12.9112 11.0795L10.6063 10.0146C10.5167 9.97246 10.4598 9.88284 10.4598 9.78478C10.4598 9.68673 10.5167 9.59605 10.6063 9.55493L11.1673 9.29556L12.7699 10.0357C13.0166 10.1496 13.3013 10.1496 13.548 10.0357L15.1506 9.29556ZM13.548 11.3853L15.1506 10.6451L15.7115 10.9045C15.8011 10.9456 15.8581 11.0352 15.8581 11.1344C15.8581 11.2335 15.8011 11.3231 15.7115 11.3642L13.4067 12.4291C13.2496 12.5019 13.0683 12.5019 12.9112 12.4291L10.6063 11.3642C10.5167 11.322 10.4598 11.2324 10.4598 11.1344C10.4598 11.0363 10.5167 10.9456 10.6063 10.9045L11.1673 10.6451L12.7699 11.3853C13.0166 11.4992 13.3013 11.4992 13.548 11.3853Z" fill="#374151"/>
</g>
</g>
<g filter="url(#filter1_dd_844_4841)">
<path d="M5.06132 25.9797C5.06132 23.7437 6.87399 21.931 9.11004 21.931H17.2075C19.4435 21.931 21.2562 23.7437 21.2562 25.9797V34.0772C21.2562 36.3132 19.4435 38.1259 17.2075 38.1259H9.11004C6.87399 38.1259 5.06132 36.3132 5.06132 34.0772V25.9797Z" fill="white"/>
<path d="M15.8576 34.076H10.4594V25.9787H15.8576V34.076Z" stroke="#E5E7EB"/>
<g clip-path="url(#clip1_844_4841)">
<path d="M13.1586 27.3287C13.3452 27.3287 13.496 27.4795 13.496 27.6661V28.032C14.3437 28.1732 15.0132 28.8428 15.1545 29.6905H15.5203C15.7069 29.6905 15.8577 29.8412 15.8577 30.0279C15.8577 30.2145 15.7069 30.3652 15.5203 30.3652H15.1545C15.0132 31.213 14.3437 31.8825 13.496 32.0238V32.3896C13.496 32.5762 13.3452 32.727 13.1586 32.727C12.9719 32.727 12.8212 32.5762 12.8212 32.3896V32.0238C11.9735 31.8825 11.3039 31.213 11.1627 30.3652H10.7968C10.6102 30.3652 10.4594 30.2145 10.4594 30.0279C10.4594 29.8412 10.6102 29.6905 10.7968 29.6905H11.1627C11.3039 28.8428 11.9735 28.1732 12.8212 28.032V27.6661C12.8212 27.4795 12.9719 27.3287 13.1586 27.3287ZM11.809 30.0279C11.809 30.3858 11.9512 30.7291 12.2043 30.9821C12.4574 31.2352 12.8006 31.3774 13.1586 31.3774C13.5165 31.3774 13.8598 31.2352 14.1129 30.9821C14.3659 30.7291 14.5081 30.3858 14.5081 30.0279C14.5081 29.6699 14.3659 29.3267 14.1129 29.0736C13.8598 28.8205 13.5165 28.6783 13.1586 28.6783C12.8006 28.6783 12.4574 28.8205 12.2043 29.0736C11.9512 29.3267 11.809 29.6699 11.809 30.0279ZM13.1586 29.1844C13.3823 29.1844 13.5968 29.2732 13.755 29.4314C13.9132 29.5896 14.002 29.8041 14.002 30.0279C14.002 30.2516 13.9132 30.4661 13.755 30.6243C13.5968 30.7825 13.3823 30.8713 13.1586 30.8713C12.9349 30.8713 12.7203 30.7825 12.5621 30.6243C12.4039 30.4661 12.3151 30.2516 12.3151 30.0279C12.3151 29.8041 12.4039 29.5896 12.5621 29.4314C12.7203 29.2732 12.9349 29.1844 13.1586 29.1844Z" fill="#374151"/>
</g>
</g>
<g filter="url(#filter2_dd_844_4841)">
<g clip-path="url(#clip2_844_4841)">
<path d="M5.06132 46.224C5.06132 43.9879 6.87399 42.1753 9.11004 42.1753H17.2075C19.4435 42.1753 21.2562 43.9879 21.2562 46.224V70.5164C21.2562 72.7524 19.4435 74.5651 17.2075 74.5651H9.11004C6.87399 74.5651 5.06132 72.7524 5.06132 70.5164V46.224Z" fill="white"/>
<mask id="path-11-inside-1_844_4841" fill="white">
<path d="M5.06132 42.1753H21.2562V58.3702H5.06132V42.1753Z"/>
</mask>
<path d="M21.2562 58.3702V58.0328H5.06132V58.3702V58.7076H21.2562V58.3702Z" fill="#E5E7EB" mask="url(#path-11-inside-1_844_4841)"/>
<path d="M15.5211 54.1519H10.7972V46.0546H15.5211V54.1519Z" stroke="#E5E7EB"/>
<g clip-path="url(#clip3_844_4841)">
<path d="M13.4962 48.2475C13.4962 48.0609 13.3454 47.9101 13.1588 47.9101C12.9722 47.9101 12.8214 48.0609 12.8214 48.2475V49.7658H11.3031C11.1165 49.7658 10.9657 49.9166 10.9657 50.1032C10.9657 50.2898 11.1165 50.4406 11.3031 50.4406H12.8214V51.9589C12.8214 52.1455 12.9722 52.2963 13.1588 52.2963C13.3454 52.2963 13.4962 52.1455 13.4962 51.9589V50.4406H15.0145C15.2011 50.4406 15.3519 50.2898 15.3519 50.1032C15.3519 49.9166 15.2011 49.7658 15.0145 49.7658H13.4962V48.2475Z" fill="#374151"/>
</g>
<path d="M21.256 74.5646H5.06132V58.3699H21.256V74.5646Z" stroke="#E5E7EB"/>
<path d="M15.5211 70.5164H10.7972V62.4191H15.5211V70.5164Z" stroke="#E5E7EB"/>
<g clip-path="url(#clip4_844_4841)">
<path d="M15.3519 66.4675C15.3519 66.6541 15.2011 66.8049 15.0145 66.8049H11.3031C11.1165 66.8049 10.9657 66.6541 10.9657 66.4675C10.9657 66.2809 11.1165 66.1301 11.3031 66.1301H15.0145C15.2011 66.1301 15.3519 66.2809 15.3519 66.4675Z" fill="#374151"/>
</g>
</g>
</g>
<defs>
<filter id="filter0_dd_844_4841" x="4.08547e-05" y="0.000218933" width="26.3167" height="26.3169" filterUnits="userSpaceOnUse" color-interpolation-filters="sRGB">
<feFlood flood-opacity="0" result="BackgroundImageFix"/>
<feColorMatrix in="SourceAlpha" type="matrix" values="0 0 0 0 0 0 0 0 0 0 0 0 0 0 0 0 0 0 127 0" result="hardAlpha"/>
<feOffset dy="3.34722"/>
<feGaussianBlur stdDeviation="2.51042"/>
<feColorMatrix type="matrix" values="0 0 0 0 0 0 0 0 0 0 0 0 0 0 0 0 0 0 0.1 0"/>
<feBlend mode="normal" in2="BackgroundImageFix" result="effect1_dropShadow_844_4841"/>
<feColorMatrix in="SourceAlpha" type="matrix" values="0 0 0 0 0 0 0 0 0 0 0 0 0 0 0 0 0 0 127 0" result="hardAlpha"/>
<feOffset dy="1.33889"/>
<feGaussianBlur stdDeviation="1.00417"/>
<feColorMatrix type="matrix" values="0 0 0 0 0 0 0 0 0 0 0 0 0 0 0 0 0 0 0.1 0"/>
<feBlend mode="normal" in2="effect1_dropShadow_844_4841" result="effect2_dropShadow_844_4841"/>
<feBlend mode="normal" in="SourceGraphic" in2="effect2_dropShadow_844_4841" result="shape"/>
</filter>
<filter id="filter1_dd_844_4841" x="0.000409989" y="20.244" width="26.3167" height="26.3169" filterUnits="userSpaceOnUse" color-interpolation-filters="sRGB">
<feFlood flood-opacity="0" result="BackgroundImageFix"/>
<feColorMatrix in="SourceAlpha" type="matrix" values="0 0 0 0 0 0 0 0 0 0 0 0 0 0 0 0 0 0 127 0" result="hardAlpha"/>
<feOffset dy="3.34722"/>
<feGaussianBlur stdDeviation="2.51042"/>
<feColorMatrix type="matrix" values="0 0 0 0 0 0 0 0 0 0 0 0 0 0 0 0 0 0 0.1 0"/>
<feBlend mode="normal" in2="BackgroundImageFix" result="effect1_dropShadow_844_4841"/>
<feColorMatrix in="SourceAlpha" type="matrix" values="0 0 0 0 0 0 0 0 0 0 0 0 0 0 0 0 0 0 127 0" result="hardAlpha"/>
<feOffset dy="1.33889"/>
<feGaussianBlur stdDeviation="1.00417"/>
<feColorMatrix type="matrix" values="0 0 0 0 0 0 0 0 0 0 0 0 0 0 0 0 0 0 0.1 0"/>
<feBlend mode="normal" in2="effect1_dropShadow_844_4841" result="effect2_dropShadow_844_4841"/>
<feBlend mode="normal" in="SourceGraphic" in2="effect2_dropShadow_844_4841" result="shape"/>
</filter>
<filter id="filter2_dd_844_4841" x="0.000409989" y="40.4883" width="26.3167" height="42.5116" filterUnits="userSpaceOnUse" color-interpolation-filters="sRGB">
<feFlood flood-opacity="0" result="BackgroundImageFix"/>
<feColorMatrix in="SourceAlpha" type="matrix" values="0 0 0 0 0 0 0 0 0 0 0 0 0 0 0 0 0 0 127 0" result="hardAlpha"/>
<feOffset dy="3.34722"/>
<feGaussianBlur stdDeviation="2.51042"/>
<feColorMatrix type="matrix" values="0 0 0 0 0 0 0 0 0 0 0 0 0 0 0 0 0 0 0.1 0"/>
<feBlend mode="normal" in2="BackgroundImageFix" result="effect1_dropShadow_844_4841"/>
<feColorMatrix in="SourceAlpha" type="matrix" values="0 0 0 0 0 0 0 0 0 0 0 0 0 0 0 0 0 0 127 0" result="hardAlpha"/>
<feOffset dy="1.33889"/>
<feGaussianBlur stdDeviation="1.00417"/>
<feColorMatrix type="matrix" values="0 0 0 0 0 0 0 0 0 0 0 0 0 0 0 0 0 0 0.1 0"/>
<feBlend mode="normal" in2="effect1_dropShadow_844_4841" result="effect2_dropShadow_844_4841"/>
<feBlend mode="normal" in="SourceGraphic" in2="effect2_dropShadow_844_4841" result="shape"/>
</filter>
<clipPath id="clip0_844_4841">
<path d="M10.1219 7.08589H16.195V12.4842H10.1219V7.08589Z" fill="white"/>
</clipPath>
<clipPath id="clip1_844_4841">
<path d="M10.4594 27.3287H15.8577V32.727H10.4594V27.3287Z" fill="white"/>
</clipPath>
<clipPath id="clip2_844_4841">
<path d="M5.06132 46.224C5.06132 43.9879 6.87399 42.1753 9.11004 42.1753H17.2075C19.4435 42.1753 21.2562 43.9879 21.2562 46.224V70.5164C21.2562 72.7524 19.4435 74.5651 17.2075 74.5651H9.11004C6.87399 74.5651 5.06132 72.7524 5.06132 70.5164V46.224Z" fill="white"/>
</clipPath>
<clipPath id="clip3_844_4841">
<path d="M10.7972 47.4047H15.5207V52.803H10.7972V47.4047Z" fill="white"/>
</clipPath>
<clipPath id="clip4_844_4841">
<path d="M10.7972 63.7676H15.5207V69.1659H10.7972V63.7676Z" fill="white"/>
</clipPath>
</defs>
</svg>
