<svg width="32" height="33" viewBox="0 0 32 33" fill="none" xmlns="http://www.w3.org/2000/svg">
<g clip-path="url(#clip0_41_196)">
<path d="M31.9867 14.4473C31.971 14.2955 31.9208 14.1494 31.84 14.02C31.7591 13.8906 31.6497 13.7815 31.5202 13.7009L28.9213 12.1016L30.254 9.32941C30.3052 9.18946 30.3243 9.03986 30.3102 8.89154C30.296 8.74322 30.2489 8.59994 30.1723 8.47219C30.0956 8.34443 29.9914 8.23542 29.8672 8.15314C29.7429 8.07086 29.6019 8.01739 29.4544 7.99663L26.4423 7.51683L26.5623 4.4781C26.5778 4.31855 26.5548 4.1576 26.4951 4.00882C26.4354 3.86005 26.3408 3.72781 26.2192 3.62327C26.0977 3.51873 25.9528 3.44496 25.7968 3.40816C25.6408 3.37137 25.4782 3.37264 25.3228 3.41187L22.364 4.11825L21.3244 1.25277C21.2721 1.10828 21.1872 0.977804 21.0762 0.871476C20.9653 0.765148 20.8313 0.685833 20.6847 0.639695C20.5366 0.595395 20.3803 0.585575 20.2279 0.610986C20.0754 0.636398 19.9308 0.696367 19.8051 0.7863L17.3261 2.58555L15.2603 0.346484C15.1551 0.235892 15.0261 0.150841 14.883 0.0978503C14.7399 0.0448594 14.5865 0.025335 14.4347 0.0407737C14.2829 0.0562124 14.1367 0.106204 14.0072 0.186918C13.8776 0.267631 13.7683 0.376923 13.6876 0.506417L12.0883 3.10533L9.32943 1.82587C9.19326 1.77475 9.04757 1.75396 8.90254 1.76496C8.75751 1.77595 8.61662 1.81847 8.48972 1.88954C8.36281 1.9606 8.25294 2.05851 8.16778 2.17642C8.08262 2.29433 8.02422 2.42941 7.99665 2.57222L7.43688 5.5843L4.38482 5.46435C4.23033 5.4543 4.07571 5.48178 3.93414 5.54444C3.79257 5.6071 3.66826 5.70309 3.57183 5.8242C3.48019 5.94144 3.41588 6.07767 3.3836 6.22293C3.35132 6.36819 3.35188 6.51883 3.38524 6.66385L4.09161 9.62262L1.23947 10.6622C1.08655 10.7129 0.948143 10.7998 0.836048 10.9155C0.723953 11.0312 0.641487 11.1723 0.595675 11.3267C0.549863 11.4812 0.542061 11.6444 0.572936 11.8026C0.60381 11.9607 0.672445 12.109 0.772995 12.2349L2.55892 14.6605L0.333178 16.7663C0.222586 16.8715 0.137536 17.0005 0.0845446 17.1436C0.0315537 17.2867 0.0120294 17.4401 0.0274681 17.5919C0.0429067 17.7437 0.0928986 17.8899 0.173612 18.0195C0.254325 18.149 0.363617 18.2583 0.493111 18.339L3.0787 19.9916L1.81256 22.6572C1.74916 22.7968 1.71873 22.9491 1.7236 23.1023C1.72848 23.2556 1.76855 23.4056 1.8407 23.5409C1.91285 23.6762 2.01515 23.7931 2.13969 23.8825C2.26423 23.9719 2.40767 24.0315 2.55892 24.0566L5.57099 24.5364L5.45105 27.5751C5.44496 27.729 5.47448 27.8821 5.5373 28.0226C5.60012 28.1632 5.69455 28.2873 5.81323 28.3853C5.93191 28.4833 6.07162 28.5526 6.22148 28.5878C6.37134 28.623 6.5273 28.6231 6.6772 28.5881L9.63597 27.9883L10.6622 30.7871C10.7155 30.9314 10.8014 31.0614 10.9131 31.1671C11.0248 31.2727 11.1595 31.3512 11.3065 31.3963C11.4535 31.4414 11.6089 31.452 11.7607 31.4273C11.9125 31.4025 12.0565 31.3431 12.1816 31.2536L14.6605 29.4677L16.7263 31.7068C16.8199 31.8077 16.9333 31.8882 17.0595 31.9432C17.1856 31.9982 17.3218 32.0266 17.4594 32.0266H17.5527C17.7044 32.011 17.8506 31.9608 17.98 31.8799C18.1093 31.7991 18.2185 31.6897 18.299 31.5601L19.8984 28.9612L22.6705 30.294C22.8067 30.3451 22.9524 30.3659 23.0974 30.3549C23.2425 30.3439 23.3833 30.3014 23.5103 30.2303C23.6372 30.1593 23.747 30.0614 23.8322 29.9435C23.9173 29.8255 23.9757 29.6905 24.0033 29.5477L24.4831 26.5356L27.5218 26.6555C27.6762 26.6645 27.8305 26.6365 27.9719 26.5739C28.1132 26.5113 28.2377 26.4159 28.3348 26.2957C28.4327 26.1765 28.5017 26.0363 28.5364 25.886C28.5711 25.7357 28.5705 25.5794 28.5348 25.4294L27.8284 22.4706L30.7738 21.3244C30.9181 21.2711 31.0481 21.1853 31.1538 21.0735C31.2594 20.9618 31.3379 20.8272 31.383 20.6801C31.4281 20.5331 31.4387 20.3777 31.414 20.2259C31.3892 20.0741 31.3298 19.9301 31.2403 19.805L29.441 17.3261L31.6801 15.2603C31.7891 15.1566 31.8733 15.0296 31.9263 14.8888C31.9794 14.7481 32 14.5971 31.9867 14.4473Z" fill="#1B84C6"/>
<path d="M13.8209 23.0037C13.6407 22.9962 13.464 22.9521 13.3013 22.8742C13.1386 22.7963 12.9935 22.6862 12.8746 22.5506L8.9296 18.1658C8.69454 17.9007 8.57442 17.553 8.59567 17.1994C8.61691 16.8457 8.77778 16.5149 9.04289 16.2799C9.308 16.0448 9.65562 15.9247 10.0093 15.9459C10.363 15.9672 10.6937 16.1281 10.9288 16.3932L13.8875 19.7384L22.324 11.5285C22.4456 11.391 22.5942 11.28 22.7606 11.2026C22.927 11.1252 23.1076 11.083 23.2911 11.0786C23.4746 11.0743 23.657 11.1078 23.8269 11.1773C23.9968 11.2467 24.1505 11.3505 24.2785 11.4821C24.4064 11.6137 24.5058 11.7703 24.5703 11.9421C24.6349 12.1139 24.6633 12.2972 24.6537 12.4805C24.6442 12.6638 24.5969 12.8431 24.5148 13.0073C24.4326 13.1714 24.3175 13.3168 24.1766 13.4344L14.7538 22.6572C14.4993 22.8889 14.165 23.013 13.8209 23.0037Z" fill="white"/>
</g>
<defs>
<clipPath id="clip0_41_196">
<rect width="32" height="32.0133" fill="white"/>
</clipPath>
</defs>
</svg>
