<svg width="5" height="7" viewBox="0 0 5 7" fill="none" xmlns="http://www.w3.org/2000/svg">
<path d="M4.28782 7H0V0H4.28782V7Z" stroke="#E5E7EB"/>
<g clip-path="url(#clip0_844_4872)">
<path d="M2.45002 1.72923C2.45002 1.55983 2.31316 1.42298 2.14377 1.42298C1.97437 1.42298 1.83751 1.55983 1.83751 1.72923V3.10738H0.459364C0.289967 3.10738 0.153109 3.24424 0.153109 3.41363C0.153109 3.58303 0.289967 3.71989 0.459364 3.71989H1.83751V5.09804C1.83751 5.26743 1.97437 5.40429 2.14377 5.40429C2.31316 5.40429 2.45002 5.26743 2.45002 5.09804V3.71989H3.82817C3.99757 3.71989 4.13442 3.58303 4.13442 3.41363C4.13442 3.24424 3.99757 3.10738 3.82817 3.10738H2.45002V1.72923Z" fill="#2563EB"/>
</g>
<defs>
<clipPath id="clip0_844_4872">
<path d="M0 0.963457H4.28757V5.86354H0V0.963457Z" fill="white"/>
</clipPath>
</defs>
</svg>
