<svg width="7" height="10" viewBox="0 0 7 10" fill="none" xmlns="http://www.w3.org/2000/svg">
<path d="M6.42909 10H0V0H6.42909V10Z" stroke="#E5E7EB"/>
<g clip-path="url(#clip0_844_4903)">
<path d="M1.69757 2.99163L1.36986 3.92831H5.05882L4.7311 2.99163C4.6746 2.83092 4.52267 2.72293 4.35191 2.72293H2.07676C1.906 2.72293 1.75407 2.83092 1.69757 2.99163ZM0.497218 3.98858L0.939189 2.7267C1.1087 2.24329 1.56448 1.91935 2.07676 1.91935H4.35191C4.8642 1.91935 5.31998 2.24329 5.48949 2.7267L5.93146 3.98858C6.22276 4.10912 6.42868 4.39665 6.42868 4.7319V6.53996V7.14265C6.42868 7.36489 6.24912 7.54444 6.02688 7.54444H5.62509C5.40285 7.54444 5.2233 7.36489 5.2233 7.14265V6.53996H1.20538V7.14265C1.20538 7.36489 1.02583 7.54444 0.803584 7.54444H0.401792C0.179551 7.54444 0 7.36489 0 7.14265V6.53996V4.7319C0 4.39665 0.205918 4.10912 0.497218 3.98858ZM1.60717 5.13369C1.60717 5.02713 1.56484 4.92493 1.48949 4.84958C1.41414 4.77423 1.31194 4.7319 1.20538 4.7319C1.09881 4.7319 0.996617 4.77423 0.921267 4.84958C0.845916 4.92493 0.803584 5.02713 0.803584 5.13369C0.803584 5.24025 0.845916 5.34245 0.921267 5.4178C0.996617 5.49315 1.09881 5.53548 1.20538 5.53548C1.31194 5.53548 1.41414 5.49315 1.48949 5.4178C1.56484 5.34245 1.60717 5.24025 1.60717 5.13369ZM5.2233 5.53548C5.32986 5.53548 5.43206 5.49315 5.50741 5.4178C5.58276 5.34245 5.62509 5.24025 5.62509 5.13369C5.62509 5.02713 5.58276 4.92493 5.50741 4.84958C5.43206 4.77423 5.32986 4.7319 5.2233 4.7319C5.11674 4.7319 5.01454 4.77423 4.93919 4.84958C4.86384 4.92493 4.82151 5.02713 4.82151 5.13369C4.82151 5.24025 4.86384 5.34245 4.93919 5.4178C5.01454 5.49315 5.11674 5.53548 5.2233 5.53548Z" fill="#2563EB"/>
</g>
<defs>
<clipPath id="clip0_844_4903">
<path d="M0 1.51714H6.42868V7.94582H0V1.51714Z" fill="white"/>
</clipPath>
</defs>
</svg>
