<svg width="4" height="7" viewBox="0 0 4 7" fill="none" xmlns="http://www.w3.org/2000/svg">
<path d="M3.67513 7H0V0H3.67513V7Z" stroke="#E5E7EB"/>
<g clip-path="url(#clip0_844_4901)">
<path d="M2.06435 5.74052C2.55532 5.1261 3.67506 3.63694 3.67506 2.80048C3.67506 1.78601 2.852 0.962947 1.83753 0.962947C0.82306 0.962947 0 1.78601 0 2.80048C0 3.63694 1.11974 5.1261 1.61071 5.74052C1.72843 5.88695 1.94663 5.88695 2.06435 5.74052ZM1.83753 2.18797C1.99998 2.18797 2.15577 2.2525 2.27064 2.36737C2.38551 2.48223 2.45004 2.63803 2.45004 2.80048C2.45004 2.96292 2.38551 3.11872 2.27064 3.23359C2.15577 3.34845 1.99998 3.41299 1.83753 3.41299C1.67508 3.41299 1.51929 3.34845 1.40442 3.23359C1.28955 3.11872 1.22502 2.96292 1.22502 2.80048C1.22502 2.63803 1.28955 2.48223 1.40442 2.36737C1.51929 2.2525 1.67508 2.18797 1.83753 2.18797Z" fill="#374151"/>
</g>
<defs>
<clipPath id="clip0_844_4901">
<path d="M0 0.962947H3.67506V5.86303H0V0.962947Z" fill="white"/>
</clipPath>
</defs>
</svg>
