<svg width="5" height="6" viewBox="0 0 5 6" fill="none" xmlns="http://www.w3.org/2000/svg">
<path d="M4.5 6H0V0H4.5V6Z" stroke="#E5E7EB"/>
<g clip-path="url(#clip0_844_5008)">
<path d="M1.1883 1.59524L0.958902 2.25091H3.54117L3.31177 1.59524C3.27222 1.48274 3.16587 1.40715 3.04634 1.40715H1.45373C1.3342 1.40715 1.22785 1.48274 1.1883 1.59524ZM0.348053 2.2931L0.657433 1.40978C0.776087 1.0714 1.09513 0.844639 1.45373 0.844639H3.04634C3.40494 0.844639 3.72399 1.0714 3.84264 1.40978L4.15202 2.2931C4.35593 2.37748 4.50007 2.57875 4.50007 2.81342V4.07907V4.50095C4.50007 4.65652 4.37439 4.7822 4.21882 4.7822H3.93756C3.78199 4.7822 3.65631 4.65652 3.65631 4.50095V4.07907H0.843764V4.50095C0.843764 4.65652 0.718078 4.7822 0.562509 4.7822H0.281255C0.125686 4.7822 0 4.65652 0 4.50095V4.07907V2.81342C0 2.57875 0.144143 2.37748 0.348053 2.2931ZM1.12502 3.09468C1.12502 3.02008 1.09539 2.94854 1.04264 2.8958C0.989895 2.84305 0.918357 2.81342 0.843764 2.81342C0.76917 2.81342 0.697632 2.84305 0.644887 2.8958C0.592141 2.94854 0.562509 3.02008 0.562509 3.09468C0.562509 3.16927 0.592141 3.24081 0.644887 3.29355C0.697632 3.3463 0.76917 3.37593 0.843764 3.37593C0.918357 3.37593 0.989895 3.3463 1.04264 3.29355C1.09539 3.24081 1.12502 3.16927 1.12502 3.09468ZM3.65631 3.37593C3.7309 3.37593 3.80244 3.3463 3.85519 3.29355C3.90793 3.24081 3.93756 3.16927 3.93756 3.09468C3.93756 3.02008 3.90793 2.94854 3.85519 2.8958C3.80244 2.84305 3.7309 2.81342 3.65631 2.81342C3.58172 2.81342 3.51018 2.84305 3.45743 2.8958C3.40469 2.94854 3.37506 3.02008 3.37506 3.09468C3.37506 3.16927 3.40469 3.24081 3.45743 3.29355C3.51018 3.3463 3.58172 3.37593 3.65631 3.37593Z" fill="#4B5563"/>
</g>
<defs>
<clipPath id="clip0_844_5008">
<path d="M0 0.563457H4.50007V5.06353H0V0.563457Z" fill="white"/>
</clipPath>
</defs>
</svg>
