<svg width="5" height="6" viewBox="0 0 5 6" fill="none" xmlns="http://www.w3.org/2000/svg">
<path d="M4.5 6H0V0H4.5V6Z" stroke="#E5E7EB"/>
<g clip-path="url(#clip0_844_4998)">
<path d="M4.50007 1.40613C4.50007 1.84735 3.98063 2.50566 3.75651 2.76845C3.72311 2.80713 3.67389 2.82207 3.62906 2.8124H2.81255C2.65698 2.8124 2.53129 2.93809 2.53129 3.09365C2.53129 3.24922 2.65698 3.37491 2.81255 3.37491H3.65631C4.12214 3.37491 4.50007 3.75284 4.50007 4.21867C4.50007 4.6845 4.12214 5.06244 3.65631 5.06244H1.22697C1.30344 4.97542 1.3966 4.8638 1.49065 4.73899C1.54602 4.66516 1.60315 4.5843 1.65764 4.49993H3.65631C3.81188 4.49993 3.93756 4.37424 3.93756 4.21867C3.93756 4.0631 3.81188 3.93742 3.65631 3.93742H2.81255C2.34672 3.93742 1.96878 3.55948 1.96878 3.09365C1.96878 2.62783 2.34672 2.24989 2.81255 2.24989H3.16236C2.97778 1.97303 2.81255 1.65486 2.81255 1.40613C2.81255 0.940299 3.19048 0.562363 3.65631 0.562363C4.12214 0.562363 4.50007 0.940299 4.50007 1.40613ZM1.02922 4.86116C0.995817 4.89896 0.965934 4.93236 0.940445 4.96048L0.924624 4.97806L0.922867 4.9763C0.870131 5.01673 0.794544 5.01146 0.747082 4.96048C0.525594 4.71966 0 4.10002 0 3.65616C0 3.19034 0.377936 2.8124 0.843764 2.8124C1.30959 2.8124 1.68753 3.19034 1.68753 3.65616C1.68753 3.91984 1.50208 4.24504 1.3052 4.51663C1.21115 4.64583 1.11447 4.76272 1.03449 4.85501L1.02922 4.86116ZM1.12502 3.65616C1.12502 3.58157 1.09539 3.51003 1.04264 3.45729C0.989895 3.40454 0.918357 3.37491 0.843764 3.37491C0.76917 3.37491 0.697632 3.40454 0.644887 3.45729C0.592141 3.51003 0.562509 3.58157 0.562509 3.65616C0.562509 3.73076 0.592141 3.80229 0.644887 3.85504C0.697632 3.90779 0.76917 3.93742 0.843764 3.93742C0.918357 3.93742 0.989895 3.90779 1.04264 3.85504C1.09539 3.80229 1.12502 3.73076 1.12502 3.65616ZM3.65631 1.68738C3.7309 1.68738 3.80244 1.65775 3.85519 1.605C3.90793 1.55226 3.93756 1.48072 3.93756 1.40613C3.93756 1.33153 3.90793 1.26 3.85519 1.20725C3.80244 1.1545 3.7309 1.12487 3.65631 1.12487C3.58172 1.12487 3.51018 1.1545 3.45743 1.20725C3.40469 1.26 3.37506 1.33153 3.37506 1.40613C3.37506 1.48072 3.40469 1.55226 3.45743 1.605C3.51018 1.65775 3.58172 1.68738 3.65631 1.68738Z" fill="#2563EB"/>
</g>
<defs>
<clipPath id="clip0_844_4998">
<path d="M0 0.562363H4.50007V5.06244H0V0.562363Z" fill="white"/>
</clipPath>
</defs>
</svg>
