<svg width="5" height="9" viewBox="0 0 5 9" fill="none" xmlns="http://www.w3.org/2000/svg">
<path d="M5.00046 8.57132H0V0H5.00046V8.57132Z" stroke="#E5E7EB"/>
<g clip-path="url(#clip0_844_4932)">
<path d="M3.92858 3.92934C4.5201 3.92934 5.00002 3.44942 5.00002 2.8579C5.00002 2.26638 4.5201 1.78647 3.92858 1.78647C3.33706 1.78647 2.85715 2.26638 2.85715 2.8579C2.85715 2.90255 2.85938 2.94719 2.86496 2.99072L1.81474 3.51527C1.62277 3.32889 1.3605 3.21505 1.07143 3.21505C0.479912 3.21505 0 3.69496 0 4.28648C0 4.878 0.479912 5.35791 1.07143 5.35791C1.3605 5.35791 1.62277 5.24407 1.81474 5.05769L2.86496 5.58224C2.85938 5.62577 2.85715 5.6693 2.85715 5.71506C2.85715 6.30658 3.33706 6.78649 3.92858 6.78649C4.5201 6.78649 5.00002 6.30658 5.00002 5.71506C5.00002 5.12354 4.5201 4.64362 3.92858 4.64362C3.63952 4.64362 3.37724 4.75746 3.18528 4.94385L2.13505 4.41929C2.14063 4.37577 2.14286 4.33224 2.14286 4.28648C2.14286 4.24072 2.14063 4.19719 2.13505 4.15367L3.18528 3.62911C3.37724 3.8155 3.63952 3.92934 3.92858 3.92934Z" fill="#374151"/>
</g>
<defs>
<clipPath id="clip0_844_4932">
<path d="M0 1.42907H5.00002V7.14338H0V1.42907Z" fill="white"/>
</clipPath>
</defs>
</svg>
