<svg width="7" height="10" viewBox="0 0 7 10" fill="none" xmlns="http://www.w3.org/2000/svg">
<path d="M7.00019 9.67884H0V0H7.00019V9.67884Z" stroke="#E5E7EB"/>
<g clip-path="url(#clip0_844_4905)">
<path d="M3.50008 1.46842C5.13341 1.46842 6.2223 1.89619 6.2223 2.44064V2.63508V3.02397C6.4374 3.02397 6.61119 3.19775 6.61119 3.41286V4.19063C6.61119 4.40574 6.4374 4.57952 6.2223 4.57952V6.52396C6.2223 6.73907 6.04851 6.91285 5.83341 6.91285V7.30174C5.83341 7.51684 5.65963 7.69063 5.44452 7.69063H5.05563C4.84053 7.69063 4.66675 7.51684 4.66675 7.30174V6.91285H2.33342V7.30174C2.33342 7.51684 2.15963 7.69063 1.94453 7.69063H1.55564C1.34054 7.69063 1.16675 7.51684 1.16675 7.30174V6.91285C0.951649 6.91285 0.777865 6.73907 0.777865 6.52396V4.57952C0.562761 4.57952 0.388976 4.40574 0.388976 4.19063V3.41286C0.388976 3.19775 0.562761 3.02397 0.777865 3.02397V2.63508V2.44064C0.777865 1.89619 1.86675 1.46842 3.50008 1.46842ZM1.55564 3.41286V4.57952C1.55564 4.79463 1.72943 4.96841 1.94453 4.96841H3.30564V3.02397H1.94453C1.72943 3.02397 1.55564 3.19775 1.55564 3.41286ZM3.69453 4.96841H5.05563C5.27074 4.96841 5.44452 4.79463 5.44452 4.57952V3.41286C5.44452 3.19775 5.27074 3.02397 5.05563 3.02397H3.69453V4.96841ZM1.75009 6.32952C1.85322 6.32952 1.95214 6.28855 2.02507 6.21562C2.098 6.14269 2.13897 6.04377 2.13897 5.94063C2.13897 5.83749 2.098 5.73858 2.02507 5.66564C1.95214 5.59271 1.85322 5.55174 1.75009 5.55174C1.64695 5.55174 1.54803 5.59271 1.4751 5.66564C1.40217 5.73858 1.3612 5.83749 1.3612 5.94063C1.3612 6.04377 1.40217 6.14269 1.4751 6.21562C1.54803 6.28855 1.64695 6.32952 1.75009 6.32952ZM5.25008 6.32952C5.35322 6.32952 5.45213 6.28855 5.52506 6.21562C5.598 6.14269 5.63897 6.04377 5.63897 5.94063C5.63897 5.83749 5.598 5.73858 5.52506 5.66564C5.45213 5.59271 5.35322 5.55174 5.25008 5.55174C5.14694 5.55174 5.04802 5.59271 4.97509 5.66564C4.90216 5.73858 4.86119 5.83749 4.86119 5.94063C4.86119 6.04377 4.90216 6.14269 4.97509 6.21562C5.04802 6.28855 5.14694 6.32952 5.25008 6.32952ZM4.66675 2.44064C4.66675 2.33369 4.57925 2.24619 4.4723 2.24619H2.52786C2.42092 2.24619 2.33342 2.33369 2.33342 2.44064C2.33342 2.54758 2.42092 2.63508 2.52786 2.63508H4.4723C4.57925 2.63508 4.66675 2.54758 4.66675 2.44064Z" fill="#4B5563"/>
</g>
<defs>
<clipPath id="clip0_844_4905">
<path d="M0 1.46842H6.99999V7.69063H0V1.46842Z" fill="white"/>
</clipPath>
</defs>
</svg>
