<svg width="8" height="10" viewBox="0 0 8 10" fill="none" xmlns="http://www.w3.org/2000/svg">
<path d="M8 9.95539H0V0H8V9.95539Z" stroke="#E5E7EB"/>
<g clip-path="url(#clip0_844_4909)">
<path d="M3.9 1.91079C3.73375 1.91079 3.6 2.04454 3.6 2.21079C3.6 2.37704 3.73375 2.51079 3.9 2.51079H4.22125L4.65375 3.31079H2.78625L2.44375 2.83579C2.3875 2.75704 2.29625 2.71079 2.2 2.71079H1.5C1.33375 2.71079 1.2 2.84454 1.2 3.01079C1.2 3.17704 1.33375 3.31079 1.5 3.31079H2.04625L2.3225 3.69454L1.99 4.35829C1.865 4.32704 1.73375 4.31079 1.6 4.31079C0.71625 4.31079 0 5.02704 0 5.91079C0 6.79454 0.71625 7.51079 1.6 7.51079C2.41625 7.51079 3.08875 6.89954 3.1875 6.11079H3.8C3.90625 6.11079 4.00375 6.05454 4.05875 5.96329L5.11875 4.16954L5.39 4.67079C5.03 4.96454 4.8 5.41079 4.8 5.91079C4.8 6.79454 5.51625 7.51079 6.4 7.51079C7.28375 7.51079 8 6.79454 8 5.91079C8 5.02704 7.28375 4.31079 6.4 4.31079C6.23125 4.31079 6.06875 4.33704 5.91625 4.38579L4.6925 2.12079C4.6225 1.99079 4.4875 1.91079 4.34 1.91079H3.9ZM5.7325 5.30704L6.13625 6.05329C6.215 6.19954 6.3975 6.25329 6.5425 6.17454C6.6875 6.09579 6.7425 5.91329 6.66375 5.76829L6.26 5.02204C6.305 5.01454 6.3525 5.01079 6.4 5.01079C6.8975 5.01079 7.3 5.41329 7.3 5.91079C7.3 6.40829 6.8975 6.81079 6.4 6.81079C5.9025 6.81079 5.5 6.40829 5.5 5.91079C5.5 5.67829 5.5875 5.46704 5.7325 5.30704ZM1.665 6.11079H2.4775C2.38625 6.51204 2.0275 6.81079 1.6 6.81079C1.1025 6.81079 0.7 6.40829 0.7 5.91079C0.7 5.41329 1.1025 5.01079 1.6 5.01079C1.62125 5.01079 1.6425 5.01204 1.66375 5.01329L1.36125 5.61954C1.24875 5.84579 1.4125 6.11204 1.665 6.11204V6.11079ZM2.08625 5.51079L2.72 4.24454L3.63125 5.50954L3.63 5.51079H2.085H2.08625ZM3.21875 3.91079H4.57375L3.9625 4.94579L3.2175 3.91079H3.21875Z" fill="#4B5563"/>
</g>
<defs>
<clipPath id="clip0_844_4909">
<path d="M0 1.51037H8V7.91037H0V1.51037Z" fill="white"/>
</clipPath>
</defs>
</svg>
