<svg width="5" height="7" viewBox="0 0 5 7" fill="none" xmlns="http://www.w3.org/2000/svg">
<path d="M4.90051 7H0V0H4.90051V7Z" stroke="#E5E7EB"/>
<g clip-path="url(#clip0_844_4899)">
<path d="M4.90008 1.88171C4.90008 2.36215 4.33446 3.07898 4.09042 3.36513C4.05405 3.40724 4.00046 3.42351 3.95165 3.41299H3.06255C2.89315 3.41299 2.75629 3.54984 2.75629 3.71924C2.75629 3.88864 2.89315 4.0255 3.06255 4.0255H3.98131C4.48855 4.0255 4.90008 4.43703 4.90008 4.94426C4.90008 5.4515 4.48855 5.86303 3.98131 5.86303H1.33604C1.4193 5.76828 1.52075 5.64673 1.62315 5.51083C1.68345 5.43044 1.74565 5.34239 1.80499 5.25052H3.98131C4.15071 5.25052 4.28757 5.11366 4.28757 4.94426C4.28757 4.77486 4.15071 4.63801 3.98131 4.63801H3.06255C2.55531 4.63801 2.14378 4.22648 2.14378 3.71924C2.14378 3.21201 2.55531 2.80048 3.06255 2.80048H3.44345C3.24247 2.49901 3.06255 2.15256 3.06255 1.88171C3.06255 1.37448 3.47408 0.962947 3.98131 0.962947C4.48855 0.962947 4.90008 1.37448 4.90008 1.88171ZM1.1207 5.64386C1.08433 5.68502 1.05179 5.72138 1.02404 5.75201L1.00681 5.77115L1.0049 5.76924C0.947476 5.81326 0.86517 5.80752 0.81349 5.75201C0.572314 5.48978 0 4.81506 0 4.33175C0 3.82452 0.41153 3.41299 0.918765 3.41299C1.426 3.41299 1.83753 3.82452 1.83753 4.33175C1.83753 4.61887 1.63559 4.97297 1.42121 5.2687C1.31881 5.40939 1.21354 5.53667 1.12644 5.63716L1.1207 5.64386ZM1.22502 4.33175C1.22502 4.25053 1.19275 4.17263 1.13532 4.1152C1.07789 4.05776 0.999989 4.0255 0.918765 4.0255C0.837541 4.0255 0.759644 4.05776 0.70221 4.1152C0.644776 4.17263 0.61251 4.25053 0.61251 4.33175C0.61251 4.41298 0.644776 4.49087 0.70221 4.54831C0.759644 4.60574 0.837541 4.63801 0.918765 4.63801C0.999989 4.63801 1.07789 4.60574 1.13532 4.54831C1.19275 4.49087 1.22502 4.41298 1.22502 4.33175ZM3.98131 2.18797C4.06254 2.18797 4.14044 2.1557 4.19787 2.09827C4.2553 2.04083 4.28757 1.96294 4.28757 1.88171C4.28757 1.80049 4.2553 1.72259 4.19787 1.66516C4.14044 1.60772 4.06254 1.57546 3.98131 1.57546C3.90009 1.57546 3.82219 1.60772 3.76476 1.66516C3.70733 1.72259 3.67506 1.80049 3.67506 1.88171C3.67506 1.96294 3.70733 2.04083 3.76476 2.09827C3.82219 2.1557 3.90009 2.18797 3.98131 2.18797Z" fill="white"/>
</g>
<defs>
<clipPath id="clip0_844_4899">
<path d="M0 0.962947H4.90008V5.86303H0V0.962947Z" fill="white"/>
</clipPath>
</defs>
</svg>
