<svg width="4" height="10" viewBox="0 0 4 10" fill="none" xmlns="http://www.w3.org/2000/svg">
<path d="M4 9.95539H0V0H4V9.95539Z" stroke="#E5E7EB"/>
<g clip-path="url(#clip0_844_4907)">
<path d="M1.9999 2.11037C1.9999 1.95124 2.06311 1.79863 2.17564 1.68611C2.28816 1.57359 2.44077 1.51037 2.5999 1.51037C2.75903 1.51037 2.91164 1.57359 3.02416 1.68611C3.13669 1.79863 3.1999 1.95124 3.1999 2.11037C3.1999 2.2695 3.13669 2.42212 3.02416 2.53464C2.91164 2.64716 2.75903 2.71037 2.5999 2.71037C2.44077 2.71037 2.28816 2.64716 2.17564 2.53464C2.06311 2.42212 1.9999 2.2695 1.9999 2.11037ZM1.58115 4.00162C1.56865 4.00662 1.5574 4.01162 1.5449 4.01662L1.4449 4.06037C1.2399 4.15162 1.0824 4.32537 1.01115 4.53787L0.97865 4.63537C0.90865 4.84537 0.6824 4.95787 0.4724 4.88787C0.2624 4.81787 0.1499 4.59162 0.2199 4.38162L0.2524 4.28412C0.3949 3.85787 0.7099 3.51037 1.1199 3.32787L1.2199 3.28412C1.4799 3.16912 1.76115 3.10912 2.04615 3.10912C2.60365 3.10912 3.10615 3.44412 3.3199 3.95787L3.5124 4.41912L3.7799 4.55287C3.9774 4.65162 4.0574 4.89162 3.95865 5.08912C3.8599 5.28662 3.6199 5.36662 3.4224 5.26787L3.0874 5.10162C2.95865 5.03662 2.8574 4.92912 2.8024 4.79537L2.6824 4.50787L2.44115 5.32662L3.0599 6.00162C3.1274 6.07537 3.1749 6.16412 3.1999 6.26162L3.4874 7.41287C3.54115 7.62662 3.41115 7.84412 3.19615 7.89787C2.98115 7.95162 2.7649 7.82162 2.71115 7.60662L2.43615 6.50537L1.5524 5.54162C1.3674 5.34037 1.29865 5.05912 1.36865 4.79537L1.5799 4.00162H1.58115ZM0.85865 6.48537L1.17115 5.70537C1.1974 5.74287 1.2274 5.77787 1.25865 5.81287L1.7674 6.36787L1.58615 6.82037C1.55615 6.89537 1.51115 6.96412 1.45365 7.02162L0.6824 7.79287C0.52615 7.94912 0.2724 7.94912 0.11615 7.79287C-0.0400998 7.63662 -0.0400998 7.38287 0.11615 7.22662L0.85865 6.48537Z" fill="#4B5563"/>
</g>
<defs>
<clipPath id="clip0_844_4907">
<path d="M0 1.51037H4V7.91037H0V1.51037Z" fill="white"/>
</clipPath>
</defs>
</svg>
