<svg width="3" height="6" viewBox="0 0 3 6" fill="none" xmlns="http://www.w3.org/2000/svg">
<path d="M2.81291 6H0V0H2.81291V6Z" stroke="#E5E7EB"/>
<g clip-path="url(#clip0_844_5003)">
<path d="M0.562509 0.563457C0.25225 0.563457 0 0.815708 0 1.12597V3.65726C0 4.43422 0.629307 5.06353 1.40627 5.06353C2.18324 5.06353 2.81255 4.43422 2.81255 3.65726V1.12597C2.81255 0.815708 2.5603 0.563457 2.25004 0.563457H0.562509ZM1.40627 4.21977C1.29438 4.21977 1.18708 4.17532 1.10796 4.0962C1.02884 4.01708 0.984391 3.90978 0.984391 3.79788C0.984391 3.68599 1.02884 3.57869 1.10796 3.49957C1.18708 3.42045 1.29438 3.376 1.40627 3.376C1.51816 3.376 1.62547 3.42045 1.70459 3.49957C1.78371 3.57869 1.82815 3.68599 1.82815 3.79788C1.82815 3.90978 1.78371 4.01708 1.70459 4.0962C1.62547 4.17532 1.51816 4.21977 1.40627 4.21977ZM1.82815 2.67287C1.82815 2.78476 1.78371 2.89206 1.70459 2.97118C1.62547 3.0503 1.51816 3.09475 1.40627 3.09475C1.29438 3.09475 1.18708 3.0503 1.10796 2.97118C1.02884 2.89206 0.984391 2.78476 0.984391 2.67287C0.984391 2.56098 1.02884 2.45367 1.10796 2.37455C1.18708 2.29543 1.29438 2.25098 1.40627 2.25098C1.51816 2.25098 1.62547 2.29543 1.70459 2.37455C1.78371 2.45367 1.82815 2.56098 1.82815 2.67287ZM1.40627 1.96973C1.35087 1.96973 1.29601 1.95882 1.24483 1.93762C1.19364 1.91641 1.14713 1.88534 1.10796 1.84616C1.06878 1.80699 1.03771 1.76048 1.0165 1.7093C0.995303 1.65811 0.984391 1.60325 0.984391 1.54785C0.984391 1.49245 0.995303 1.43759 1.0165 1.3864C1.03771 1.33522 1.06878 1.28871 1.10796 1.24953C1.14713 1.21036 1.19364 1.17928 1.24483 1.15808C1.29601 1.13688 1.35087 1.12597 1.40627 1.12597C1.46168 1.12597 1.51654 1.13688 1.56772 1.15808C1.61891 1.17928 1.66541 1.21036 1.70459 1.24953C1.74376 1.28871 1.77484 1.33522 1.79604 1.3864C1.81724 1.43759 1.82815 1.49245 1.82815 1.54785C1.82815 1.60325 1.81724 1.65811 1.79604 1.7093C1.77484 1.76048 1.74376 1.80699 1.70459 1.84616C1.66541 1.88534 1.61891 1.91641 1.56772 1.93762C1.51654 1.95882 1.46168 1.96973 1.40627 1.96973Z" fill="#CA8A04"/>
</g>
<defs>
<clipPath id="clip0_844_5003">
<path d="M0 0.563457H2.81255V5.06353H0V0.563457Z" fill="white"/>
</clipPath>
</defs>
</svg>
