<svg width="48" height="48" viewBox="0 0 48 48" fill="none" xmlns="http://www.w3.org/2000/svg">
<g clip-path="url(#clip0_844_4399)">
<mask id="mask0_844_4399" style="mask-type:luminance" maskUnits="userSpaceOnUse" x="0" y="0" width="48" height="48">
<path d="M48 0H0V48H48V0Z" fill="white"/>
</mask>
<g mask="url(#mask0_844_4399)">
<path d="M35.7247 42.864C30.2642 59.2126 15.699 64.2548 7.99811 43.9539C6.93572 41.1631 9.70453 40.1282 11.6421 38.8952C12.9687 38.053 13.6678 37.3264 13.5853 36.5722C13.1999 33.0273 11.5541 23.1521 11.5541 23.1521L11.3889 22.8328C11.3889 22.8328 11.4275 22.7447 11.2678 22.8989C11.1027 23.064 10.7229 24.7814 9.23113 24.7814C7.88251 24.7814 6.52288 24.1814 5.87334 20.031C5.62563 18.5282 5.75774 14.5869 7.43113 13.8713C8.11921 13.5796 8.75223 13.475 9.36875 13.8273C9.99077 14.1796 8.65315 12.6163 15.5339 6.89151C20.0036 3.1594 27.066 2.61445 29.9174 3.24748C32.7687 3.8805 35.6146 5.27316 36.8752 8.22913C38.4054 11.8071 35.4495 14.5209 36.1045 22.6787C35.9834 25.6291 36.1486 32.1025 28.0348 34.2713C26.4935 34.6842 26.9724 36.9356 29.2843 37.486C32.9724 38.642 35.7247 41.4658 35.7247 42.875" fill="white"/>
<path fill-rule="evenodd" clip-rule="evenodd" d="M35.7247 17.4602L35.7302 17.3831C35.9559 15.3795 36.1816 13.4364 37.222 11.6914C37.5798 11.9336 37.5357 12.2419 37.4257 12.5281C36.3302 15.3465 36.4348 18.2749 36.5339 21.2033L36.5559 21.974C36.6715 25.629 35.7578 28.9538 33.3247 31.7446C32.477 32.7134 31.3541 33.385 30.2146 33.963C29.0367 34.5685 28.789 35.0694 29.1578 36.363L29.2018 36.5061C29.2789 36.7208 29.3559 36.9409 29.1468 37.1556C28.899 37.4088 28.6238 37.3373 28.3321 37.2547L28.299 37.2492C25.5698 36.485 23.0107 35.2092 20.7578 33.4896C20.4275 33.2474 20.1633 32.9226 19.9045 32.6033L19.888 32.5813C19.7504 32.4162 19.7229 32.152 19.9156 32.0088C20.0972 31.8712 20.2348 31.9813 20.3945 32.1079L20.4495 32.1575C21.6515 33.1327 23.1103 33.7388 24.6495 33.9024C25.3871 33.9795 26.1137 33.952 26.8513 33.9244C27.2587 33.9079 27.666 33.8914 28.0789 33.8969C28.6403 33.8969 29.1082 33.6382 29.5486 33.3905L29.7027 33.3024C31.233 32.4492 32.6917 31.4969 33.677 29.9611C34.5633 28.585 35.1027 27.0877 35.4165 25.5079C35.8128 23.5208 35.7798 21.5061 35.7468 19.4639C35.7302 18.8033 35.7192 18.1318 35.7192 17.4602H35.7247ZM8.01464 13.3098C9.22015 13.2162 9.8862 13.9263 10.4532 14.7575C11.1251 15.773 11.5476 16.933 11.6862 18.1428C11.7137 18.3465 11.7412 18.5611 11.6201 18.7648C11.3724 18.7978 11.3504 18.5997 11.3449 18.4565C11.3174 17.3171 10.811 16.3263 10.3045 15.3685C9.94125 14.6804 9.41281 14.0143 8.57611 13.8492C7.62932 13.6565 6.7596 14.5098 6.33024 15.6217C5.53207 17.6914 5.66969 19.7281 6.4073 21.7318C6.72657 22.607 7.1284 23.4987 7.93758 24.1098C8.75226 24.7318 9.73758 24.6217 10.3376 23.796L10.4477 23.6584C10.5578 23.5153 10.6679 23.3776 10.7229 23.218C10.8385 22.8987 11.0201 22.6015 11.3449 22.6455C11.7192 22.7006 11.7853 23.1024 11.8238 23.4162C12.1653 26.2998 12.5691 29.1757 13.0348 32.0419L13.3596 34.1776C13.5027 35.1189 13.6679 36.4731 13.5578 37.0455C13.5507 37.0857 13.5451 37.1261 13.5412 37.1666C13.5192 37.3208 13.5082 37.4419 13.3101 37.4694C13.0403 37.5134 12.9247 37.3593 12.8862 37.1171C12.7596 36.1813 12.7211 35.818 12.666 34.3868C12.6165 32.9997 12.3578 31.6345 12.0935 30.2639L11.8183 28.7776C11.5321 27.0822 11.2513 25.3648 11.2238 23.4382L11.1137 23.6033C10.6954 24.2254 10.3596 24.7318 9.7651 24.9244C9.3238 25.0935 8.84018 25.118 8.38406 24.9943C7.92794 24.8706 7.52293 24.6052 7.22749 24.2364C6.45182 23.3603 5.90693 22.3046 5.64216 21.1648C5.17978 19.2932 5.09721 17.4712 5.69171 15.6272C5.97794 14.7409 6.99629 13.1666 8.01464 13.3153V13.3098ZM9.91923 20.3281C10.1614 20.5043 10.3816 20.6584 10.5798 20.0309C10.5192 17.7079 9.7706 16.2217 8.60914 16.1611C9.22565 16.9648 9.82015 17.7465 9.87519 18.8309C9.64614 18.7139 9.44518 18.5486 9.2862 18.3465C9.17611 18.2254 9.06602 18.1042 8.9284 18.0162L8.76326 17.8841C8.49904 17.6859 8.22932 17.4767 7.78345 17.6364C7.99262 17.9556 8.27886 18.1868 8.5706 18.407C8.90088 18.6657 9.23115 18.9189 9.42932 19.3153C8.84583 19.7391 8.59262 20.2896 8.89537 20.9611C9.1596 21.5391 9.55042 22.018 10.3211 22.051C10.288 21.7043 10.0623 21.451 9.83666 21.2033C9.56143 20.9061 9.30271 20.6198 9.42382 20.1795C9.59996 20.0969 9.7651 20.218 9.91923 20.3281Z" fill="black"/>
<path d="M57.4293 72.4019C57.4293 72.4019 56.0367 60.6496 55.3211 57.501C53.9064 51.3469 51.2862 46.4148 47.8734 45.3634C46.244 44.857 45.7046 43.4918 45.2862 42.435C45.1211 42.0056 44.9669 41.6258 44.7743 41.3781C43.0458 39.1762 39.4679 36.9634 37.5963 36.2368C36.1376 35.6698 31.9541 35.3175 30.5504 35.8735C29.9174 36.1212 29.6587 36.479 29.5816 36.8918C29.4991 36.9194 29.4165 36.9524 29.3394 37.0019C29.1578 37.101 29.0091 37.2772 28.8165 37.4973C28.0734 38.3506 26.8073 39.8038 21.7816 39.5781C17.7908 39.4019 15.1486 38.8184 13.5798 36.3689C13.4532 36.1707 13.3046 36.1047 13.1394 36.1377C10.1241 35.3371 6.91728 35.7109 4.16694 37.1836C3.20364 37.7065 -2.1248 42.9029 -2.17985 43.1946C-2.28994 43.7781 -3.58902 44.7359 -5.21838 45.8148C-8.64774 48.0772 -10.1505 52.5139 -11.4881 56.4441L-11.8514 57.501C-12.4514 59.2405 -13.8661 72.2753 -13.8661 72.2753L-4.17801 72.4019H57.4293Z" fill="white"/>
<path d="M11.5266 72.4019C11.5266 72.4019 10.7174 48.8698 10.7174 44.0367C10.7174 40.0294 12.7321 35.0643 13.5798 36.3744C15.1486 38.7854 17.8293 39.589 21.8202 39.7597C28.1504 40.0349 28.4752 37.4863 29.3394 37.0074C31.0679 36.0386 32.2403 40.6404 32.2403 44.7909V72.3854" stroke="black" stroke-width="0.825688"/>
<path d="M57.0826 72.3852C56.7413 71.2127 56.4495 68.3503 56.2624 66.7705C56.1303 65.6311 55.1835 57.6054 54.1431 54.8035C53.5046 53.0916 52.9101 51.3357 51.9688 49.7338C51.3248 48.6329 50.3559 47.8457 49.4367 47.0421C48.2806 46.06 47.0472 45.1728 45.7486 44.3889C44.0477 43.332 42.2587 43.1228 40.3761 43.7448C40.0734 43.8387 39.8017 44.0125 39.5895 44.248C39.3774 44.4834 39.2327 44.7717 39.1706 45.0824C38.433 48.0164 38.6697 51.0054 38.6312 53.9779C38.5871 57.8201 38.8018 61.6568 38.9174 65.4934C39.0165 68.6421 38.9174 69.165 38.8844 72.3852H38.0862C38.0367 70.6127 38.0642 71.543 38.0532 69.7705C38.0422 67.1503 38.0092 64.5357 37.9651 61.9155C37.9321 59.8347 37.9486 57.7485 37.811 55.6678C37.6679 53.4879 37.6624 51.3136 37.8495 49.1393C37.9871 47.587 37.855 46.0017 38.4715 44.499C38.989 43.2329 40.0293 42.7485 41.2183 42.6549C42.4514 42.5613 43.7339 42.3907 45.0605 43.1668C44.7963 42.2531 44.2348 41.8072 43.8165 41.2953C42.2752 39.4127 40.211 38.2402 38.1137 37.0678C35.9504 35.8568 33.6715 36.0219 31.3651 36.11C31.0073 36.1265 30.7046 36.3191 30.3853 36.4788C29.9725 36.699 29.5431 36.8806 28.9211 36.743C29.444 36.0274 30.1376 35.7907 30.8532 35.5815C32.8954 34.987 34.8715 35.2953 36.1211 35.4824C37.7064 35.7246 43.1945 38.3668 45.7816 42.5228C47.0092 44.499 50.5046 44.5265 53.6862 51.198C54.5081 52.9766 55.1481 54.8338 55.5963 56.7412C56.1963 59.1632 57.7706 70.6457 57.7706 72.3852H57.0826ZM-13.3597 72.3852C-13.2496 72.0054 -13.211 71.8402 -13.1615 71.521C-12.9083 69.9577 -12.8587 68.3503 -12.6716 66.7705C-12.5395 65.6311 -12.4899 64.4916 -12.3413 63.3577C-11.945 60.4568 -11.4826 57.5779 -10.5523 54.8035C-9.96332 53.0586 -9.31928 51.3357 -8.378 49.7338C-7.73396 48.6329 -6.76516 47.8457 -5.84589 47.0421C-4.70644 46.0512 -3.4514 45.187 -2.15782 44.3889C-0.4569 43.332 1.33209 43.1228 3.21466 43.7448C3.51734 43.8387 3.78909 44.0125 4.00125 44.248C4.21342 44.4834 4.35814 44.7717 4.42016 45.0824C5.15778 48.0164 4.92108 51.0054 4.95962 53.9779C5.00365 57.8201 4.78897 61.6568 4.67338 65.4934C4.57429 68.6421 4.7009 72.3742 4.7009 72.3742L5.50457 72.3852C5.55411 70.6127 5.52659 71.543 5.5376 69.7705C5.54861 67.1503 5.58163 64.5357 5.62567 61.9155C5.6587 59.8347 5.64218 57.7485 5.7798 55.6678C5.92292 53.4879 5.92842 51.3136 5.74127 49.1393C5.60365 47.587 5.73576 46.0017 5.11925 44.499C4.60182 43.2329 3.56145 42.7485 2.36695 42.6549C1.13943 42.5613 -0.143138 42.3907 -1.46974 43.1668C-1.20552 42.2531 -0.644056 41.8072 -0.225707 41.2953C1.31558 39.4127 3.3798 38.2402 5.47154 37.0678C7.64035 35.8568 9.91925 36.0219 12.2257 36.11C12.5835 36.1265 12.8862 36.3191 13.2055 36.4788C13.6183 36.699 13.3321 37.1118 13.5578 36.5173C13.877 35.6916 13.4477 35.7907 12.7321 35.5815C10.6954 34.987 8.6587 35.3613 6.622 35.609C6.21466 35.6641 5.80732 35.8512 5.43851 36.0494C2.60916 37.5797 -0.946808 40.299 -2.19084 42.5228C-2.8514 43.7118 -3.88075 44.3283 -4.80552 45.1485C-8.09176 48.0714 -8.95598 48.7045 -10.0954 51.1925C-10.9027 52.977 -11.5421 54.8327 -12.0055 56.7357C-12.611 59.1577 -13.0569 61.6127 -13.2606 64.1228C-13.4092 65.9063 -13.6679 67.6898 -13.8275 69.4843C-13.9376 70.7393 -14.0202 71.6696 -14.0202 72.3797H-13.3597V72.3852Z" fill="black"/>
<path d="M28.5908 0.572381L27.9798 -0.308352C28.244 0.181556 28.288 0.743024 28.5853 1.22192C29.1908 2.20174 28.8936 3.06596 27.8422 3.56688C27.4242 3.78065 26.9852 3.95037 26.5321 4.0733C26.2781 4.14263 26.0456 4.27477 25.8561 4.45754C25.6666 4.64032 25.5261 4.86785 25.4477 5.11917C24.8642 6.87513 23.422 7.23293 21.8697 7.42559C21.1266 7.51367 20.378 7.53018 19.6293 7.57972C19.1482 7.60239 18.6884 7.78542 18.3233 8.09965C17.9582 8.41388 17.7087 8.84124 17.6147 9.31367C17.4825 10.0513 17.3945 10.7999 17.3394 11.543C17.2403 12.8972 16.4202 13.8054 15.4899 14.6476C14.6344 15.4002 13.8696 16.25 13.211 17.1797C12.4789 18.2421 12.688 19.4256 12.622 20.5816C12.5559 21.6494 13.0789 22.4972 13.5192 23.4054C14.4 25.2164 15.4403 26.9999 14.8018 29.1852C14.5651 29.9999 14.9449 30.7981 15.2532 31.5577C15.3413 31.7779 15.5009 31.9761 15.2697 32.1907C15.077 32.3724 14.8624 32.3834 14.6147 32.3283C13.5303 32.0916 12.5835 31.5027 11.5871 31.0568C9.8697 30.2806 8.28988 29.2293 6.49539 28.5797C5.32842 28.1559 4.22199 27.5339 3.04401 27.1045C1.33759 26.4825 -0.445896 26.0917 -2.19635 25.6072C-3.84773 25.1449 -5.55415 24.7595 -6.73213 23.3063C-7.08897 22.8431 -7.28385 22.2755 -7.28683 21.6908C-7.28981 21.106 -7.10074 20.5365 -6.74865 20.0696C-5.98901 19.1008 -4.82755 18.5834 -4.12846 17.5595C-3.77371 17.0904 -3.5633 16.528 -3.52296 15.9412C-3.48443 13.9045 -2.48259 12.5283 -0.748649 11.565C0.517406 10.866 1.51924 9.94119 2.09172 8.49899C2.55961 7.31 3.01649 6.06046 4.03484 5.14119C4.61159 4.6349 5.27309 4.23427 5.98897 3.9577C7.01282 3.53385 8.15777 3.37972 9.0275 2.59257C9.59115 2.08349 9.9705 1.40221 10.1064 0.654951C10.5303 -1.73404 12.033 -3.0111 14.2238 -3.68266C15.4954 -4.06798 16.7394 -4.54688 18.022 -4.89367C19.7902 -5.39529 21.6556 -5.44827 23.4495 -5.0478C24.5174 -4.80009 25.3046 -4.09551 25.9431 -3.34138C28.5688 -4.53037 31.1064 -4.8111 33.5339 -3.07716C34.6569 -2.27899 35.5706 -1.23312 36.2972 -0.0496359C36.688 0.583392 37.0624 1.22743 37.3431 1.92101C37.9566 3.47455 38.1833 5.15396 38.0036 6.81458C37.822 8.62559 38.0422 10.4201 38.0147 12.2256C37.9926 13.5852 37.7064 14.8678 36.8862 15.9852C36.6806 16.3152 36.3706 16.5671 36.0055 16.7008C35.7413 16.4421 35.8128 16.1724 35.8183 15.9302C35.8458 14.0476 35.5981 12.1871 35.3835 10.3265C35.2954 9.52284 34.7174 9.10449 34.1945 8.66413C33.3082 7.9155 32.5211 7.05128 31.6183 6.31917C30.819 5.67754 30.134 4.90515 29.5926 4.03477C29.2238 3.44027 29.1853 2.80174 29.0697 2.16321C28.9706 1.63477 28.855 1.11183 28.5963 0.577887L28.5908 0.572381Z" fill="black"/>
<path fill-rule="evenodd" clip-rule="evenodd" d="M25.2935 27.7595C25.6128 27.8366 25.9541 27.9246 25.844 28.4035C25.6238 28.4861 25.4642 28.387 25.3046 28.2879C25.1119 28.1723 24.9192 28.0567 24.633 28.2219C24.7156 27.754 24.9578 27.6714 25.2495 27.7485C25.266 27.7485 25.277 27.7485 25.2935 27.7595ZM30.4293 28.0788C30.6165 28.2549 30.4954 28.4641 30.3523 28.6292C30.2807 28.6567 30.2146 28.6898 30.1541 28.7228C29.9614 28.8274 29.8018 28.91 29.6036 28.8109C29.4385 28.5136 29.455 28.2384 29.7688 28.0567C29.978 27.9467 30.2422 27.9136 30.4293 28.0788ZM29.0972 28.8054C29.1633 28.4035 29.0312 28.1778 28.5853 28.2329C28.3156 28.2714 28.0569 28.3375 28.1009 28.6843C28.1394 29.0476 28.3761 29.0255 28.6018 29.0035L28.8 28.9925C28.8825 28.998 28.9651 28.932 29.0972 28.8054ZM26.4935 29.7797L26.5761 29.7632C26.6587 29.7522 26.7413 29.7356 26.7523 29.598C25.822 29.554 25.0624 29.1191 24.3082 28.4696C24.4969 28.8836 24.8069 29.2306 25.1971 29.4645C25.5874 29.6985 26.0395 29.8084 26.4935 29.7797ZM26.5046 28.6788C26.6367 29.0531 26.9339 29.0531 27.2367 28.954C27.4458 28.8769 27.4293 28.6567 27.4183 28.4751C27.3963 28.1999 27.2091 28.1448 26.978 28.1283C26.6422 28.1008 26.5266 28.2824 26.5046 28.6788Z" fill="white"/>
<path fill-rule="evenodd" clip-rule="evenodd" d="M29.8293 27.2805C29.1141 27.5689 28.3338 27.6564 27.5724 27.5337C26.8513 27.4896 26.2348 27.286 25.6238 27.0383C25.0073 26.8071 24.1431 27.1594 23.7247 27.7704C23.3559 28.3208 23.3945 28.8713 23.9174 29.4217C24.5119 30.0548 25.255 30.5612 26.1192 30.5006C26.6146 30.4621 27.1101 30.4126 27.6055 30.3575C28.7449 30.2419 29.8789 30.1208 31.0403 30.1924C32.0036 30.2474 32.477 29.3392 32.2073 28.3924C31.8935 27.3245 30.9633 26.8896 29.8238 27.286L29.8293 27.2805ZM28.5853 28.2328C29.0256 28.1777 29.1633 28.3979 29.0972 28.8052C28.9651 28.9318 28.877 28.9979 28.8 28.9924C28.7449 28.9924 28.6734 28.9924 28.6018 29.0034C28.3816 29.0254 28.1394 29.0474 28.1009 28.6841C28.0568 28.3373 28.3211 28.2713 28.5853 28.2328ZM26.4935 29.774L26.5761 29.7575C26.6587 29.7465 26.7412 29.73 26.7523 29.5924C25.822 29.5484 25.0623 29.1135 24.3082 28.4639C24.4969 28.878 24.8069 29.2249 25.1971 29.4589C25.5874 29.6928 26.0395 29.8027 26.4935 29.774ZM30.4293 28.0786C30.6165 28.2548 30.4954 28.4639 30.3523 28.6291C30.2807 28.6566 30.2146 28.6896 30.1541 28.7227C29.9614 28.8273 29.8018 28.9098 29.6036 28.8107C29.4385 28.5135 29.455 28.2383 29.7688 28.0566C29.9779 27.9465 30.2422 27.9135 30.4293 28.0786ZM26.5045 28.6676C26.6367 29.0529 26.9339 29.0529 27.2367 28.9428C27.4458 28.8713 27.4293 28.6511 27.4183 28.4695C27.3963 28.1942 27.2091 28.1392 26.9779 28.1227C26.6422 28.0951 26.5266 28.2768 26.5045 28.6731V28.6676ZM25.2935 27.7594C25.6128 27.8364 25.9541 27.9245 25.844 28.4034C25.6238 28.486 25.4642 28.3869 25.3045 28.2878C25.1119 28.1722 24.9192 28.0566 24.633 28.2217C24.7156 27.7539 24.9578 27.6713 25.2495 27.7484C25.266 27.7484 25.277 27.7484 25.2935 27.7594Z" fill="black"/>
<path d="M29.378 18.6328C29.7358 19.9043 30.2036 21.0548 31.0403 22.0511C31.3816 22.4584 31.2385 23.0474 30.8752 23.4052C30.1156 24.1429 29.2624 24.7263 28.1229 24.264C27.8477 24.1539 27.6165 24.2915 27.3688 24.3135C26.8458 24.3575 26.455 24.2309 26.455 23.5263C27.1816 23.6584 27.8312 23.1245 28.5963 23.5924C28.9376 23.8071 29.5816 23.5594 29.9669 23.2621C30.2807 23.0144 30.5064 22.6731 30.1046 22.1997C29.0587 20.9502 28.6183 19.4309 28.4532 17.8456C28.4077 17.308 28.4947 16.7675 28.7064 16.2713C28.8055 16.0181 28.9926 15.7979 29.3009 15.908C29.6036 16.0181 29.5486 16.3098 29.466 16.5135C29.1798 17.1961 29.2458 17.8841 29.378 18.6273V18.6328Z" fill="black"/>
<path d="M32.1027 17.5981C32.8238 17.6147 33.5009 17.6532 34.178 17.7358C34.3431 17.7523 34.4477 17.9174 34.4532 18.0991C34.4532 18.2862 34.3541 18.4128 34.189 18.4844C33.578 18.7541 32.978 18.9413 32.3339 18.4954C31.9761 18.2532 31.844 18.022 32.1027 17.5981ZM23.5982 17.7468C23.9394 17.9284 23.8844 18.1321 23.7137 18.3413C23.356 18.7816 22.1615 18.8917 21.7101 18.5339C21.4514 18.3248 21.3082 18.0605 21.4679 17.7413C21.633 17.411 21.9193 17.466 22.1835 17.6037C22.6238 17.8238 23.0862 17.7688 23.5982 17.7468Z" fill="black"/>
<path d="M24.2202 14.4275C25.1409 14.9853 25.826 15.8604 26.1468 16.888C27.0165 16.7229 27.8367 16.5687 28.7009 17.0091C28.9285 16.304 29.2995 15.6537 29.7908 15.099C30.6495 14.2018 32.5871 13.5412 33.9908 14.0091C35.433 14.4935 36.4624 15.4513 36.8917 16.8275C37.0908 17.4544 37.1382 18.1196 37.03 18.7684C36.9219 19.4172 36.6613 20.0311 36.2697 20.5596C34.2991 23.3669 30.1981 22.6238 28.9816 19.7889C28.7835 19.3376 28.6679 18.8587 28.6348 18.3687C28.6018 17.7908 28.3431 17.499 27.8091 17.4165C27.1541 17.3174 26.6422 17.5155 26.411 18.1816C26.2293 18.6825 26.2348 19.2275 26.0036 19.7339C25.2715 21.3302 23.9174 22.3431 22.0513 22.3265C20.4825 22.3155 18.6715 21.3357 18.2532 19.6403C17.7908 17.7687 16.2991 17.3669 14.8183 16.855C13.5633 16.4201 12.3137 15.9743 11.0642 15.5339C10.8055 15.4403 10.6624 15.2366 10.7614 14.9834C10.8825 14.6697 11.1358 14.7963 11.3559 14.8733C13.233 15.5669 15.1211 16.2385 16.9926 16.9431C17.6422 17.1853 18.011 16.7669 18.2367 16.3541C19.5192 14.0201 21.4513 13.299 23.9064 14.3064C24 14.3394 24.088 14.3724 24.2202 14.433V14.4275Z" fill="black"/>
<path d="M21.5504 14.2346C22.1238 13.9834 22.6363 13.6116 23.0532 13.1447C23.2018 12.9795 23.389 12.8309 23.5981 12.8694C23.9669 12.93 24.4899 12.8144 24.633 13.2823C24.7486 13.6676 24.3468 13.8603 24.066 14.0749C23.3064 14.6529 22.5137 15.1208 21.5009 14.9942C21.2477 14.9667 20.9669 15.0052 20.8954 14.6529C20.9835 14.3502 21.2972 14.3832 21.5504 14.2346ZM32.444 12.9905C32.9119 12.897 33.1376 13.2162 33.3853 13.4419C33.8312 13.8492 34.1945 14.3447 34.8165 14.5318C34.9981 14.5869 35.1302 14.752 35.0367 14.9722C34.9541 15.1648 34.8165 15.2859 34.5963 15.2254C33.8091 15.0162 32.989 14.9006 32.3614 14.3006C31.811 13.7722 31.8 13.53 32.444 12.996V12.9905Z" fill="black"/>
<path d="M-23.2293 72.0713L-10.2715 72.9795C-10.2715 72.9795 -6.4954 69.0602 -7.66237 58.0235C-7.82751 56.4272 -6.13209 46.519 -6.04952 45.7648C-5.82934 43.7832 -4.87705 39.9905 -3.84218 38.5428C0.85323 31.9758 0.231211 30.9189 0.522953 29.3832C0.836714 27.7648 1.37066 24.9575 1.69543 23.8786C1.84405 23.3832 2.93396 19.8712 1.95965 19.7061C-2.68622 18.9245 -1.64035 27.8639 -3.40732 27.0382C-6.10457 25.7722 -6.65503 22.2327 -6.65503 22.2327C-6.65503 22.2327 -10.2165 12.5832 -12.1046 12.4731C-12.8752 12.4235 -11.989 17.3612 -11.989 17.3612C-11.989 17.3612 -15.9688 12.0988 -16.8881 12.0933C-17.8073 12.0933 -16.4477 16.007 -16.4477 16.007C-16.4477 16.007 -18.3633 14.3446 -19.1284 14.8621C-20.1413 15.5501 -15.4403 23.4107 -16.2 23.4107C-16.778 23.4107 -17.7853 21.4456 -18.4844 21.0823C-19.6679 20.4657 -20.0917 20.3391 -20.2073 21.4401C-20.3229 22.607 -17.8679 26.2951 -16.7394 28.3593C-16.1559 29.4272 -12.7101 35.6254 -11.9725 37.3153C-11.0477 39.4511 -13.3211 42.8089 -14.2624 44.4327C-15.1981 46.0621 -19.0073 55.574 -20.2514 57.2749C-21.5009 58.9758 -22.7725 61.7501 -23.3284 64.7391C-23.9394 68.0474 -23.2293 72.0713 -23.2293 72.0713Z" fill="white"/>
<path fill-rule="evenodd" clip-rule="evenodd" d="M-5.31193 43.9923C-5.38349 44.3941 -5.46056 44.796 -5.54863 45.1923L-5.28441 43.64C-5.52289 44.9414 -5.75409 46.2442 -5.97799 47.5482C-6.07157 48.0987 -6.15413 48.6547 -6.2367 49.2106C-6.55046 51.4125 -6.73212 53.6363 -6.91377 55.8547C-6.94414 56.1108 -6.99945 56.3634 -7.07891 56.6088C-7.17799 56.9556 -7.27157 57.3024 -7.22753 57.6327C-7.15047 58.2271 -7.12845 58.8216 -7.10643 59.4216C-7.0734 60.2914 -7.04037 61.1666 -6.8312 62.0253C-6.74827 62.414 -6.72599 62.8133 -6.76514 63.2088C-6.90826 65.5042 -7.26056 67.7446 -8.11377 69.9024C-8.56514 71.0473 -9.10459 72.1042 -9.99634 72.9959L-10.6404 72.9629C-10.4312 72.3849 -10.1119 71.873 -9.78716 71.3666C-9.56698 71.0088 -9.3468 70.6565 -9.15964 70.2822C-8.64771 69.2363 -8.28992 68.1299 -8.10276 66.9794L-8.09726 66.9354C-7.9156 65.873 -7.72845 64.8051 -7.71194 63.7152C-7.70093 63.0326 -7.72845 62.3721 -8.1523 61.7336L-8.69175 63.2473C-9.89175 66.6327 -11.0807 69.9904 -13.6294 72.7427C-13.9423 72.769 -14.2574 72.7504 -14.5651 72.6877C-12.7486 70.8382 -11.5046 68.6583 -10.6404 66.3134L-10.3321 65.4987C-9.60551 63.5556 -8.8734 61.6015 -8.50459 59.5372C-8.41102 59.0033 -8.28441 58.4804 -8.15781 57.9519C-7.97615 57.1813 -7.7945 56.4106 -7.70643 55.6235L-7.49726 53.84C-7.13395 50.6473 -6.77065 47.4547 -6.17065 44.2895C-5.70966 41.8351 -4.85654 39.4709 -3.64404 37.2877C-3.12661 36.3519 -2.54313 35.4657 -1.95414 34.5739C-1.52478 33.9244 -1.10092 33.2804 -0.704594 32.6198L-0.429365 32.2125C-0.132116 31.7941 0.165131 31.3758 0.143112 30.8088C0.0550385 28.5409 0.638525 26.3831 1.211 24.2253L1.47522 23.2455C1.70091 22.3648 1.91559 21.473 1.89907 20.5482C1.89357 19.9868 1.59632 19.7776 1.14495 20.0418C-0.0174732 20.7895 -0.902987 21.8974 -1.37615 23.196C-1.77173 24.2746 -2.00366 25.4064 -2.06423 26.5537C-2.13579 27.418 -2.76881 27.7482 -3.57248 27.451C-4.54129 27.0987 -5.09175 26.306 -5.6367 25.5244L-5.68074 25.4693C-6.19267 24.7317 -6.47891 23.895 -6.76514 23.0583C-6.87524 22.7281 -6.98533 22.3978 -7.11744 22.0785C-8.05322 19.695 -9.06606 17.3446 -10.233 15.0602L-10.3156 14.906C-10.7009 14.1354 -11.1193 13.3207 -12.0661 12.9134L-11.956 13.9042C-11.7028 16.2492 -11.4606 18.5501 -10.7009 20.7739L-11.0587 20.9226C-12.4239 17.7519 -14.0202 14.7464 -16.6459 12.3904C-16.8181 12.7004 -16.8691 13.0633 -16.789 13.4088C-16.5853 14.6749 -16.0294 15.7978 -15.4734 16.9207C-15.2752 17.3171 -15.0771 17.7189 -14.8954 18.1207C-14.6477 18.6712 -14.356 19.2106 -14.0697 19.7446C-13.8771 20.0969 -13.6899 20.4437 -13.5138 20.7904L-13.4973 20.8235C-13.3651 21.0877 -13.222 21.3794 -13.4587 21.6657C-13.6954 21.6271 -13.767 21.484 -13.833 21.3519L-13.8495 21.3244C-14.4103 20.1885 -15.0543 19.0956 -15.7762 18.0547C-16.4202 17.0914 -17.0642 16.1226 -17.967 15.3574L-18.0716 15.2693C-18.3138 15.0492 -18.567 14.829 -18.8642 15.0657C-19.211 15.3409 -19.1284 15.7978 -18.9523 16.1666C-18.6991 16.695 -18.4349 17.2125 -18.1762 17.7354C-17.8349 18.4235 -17.4881 19.1115 -17.1633 19.8106L-16.778 20.6363C-16.2275 21.8143 -15.6771 22.9923 -15.1541 24.1813C-15.0495 24.4235 -14.978 24.6767 -15.3578 24.9134C-15.9963 24.418 -16.5028 23.7849 -17.0092 23.1519C-17.7028 22.2877 -18.4018 21.4235 -19.4312 20.895C-19.7945 21.3464 -19.9046 21.7482 -19.5578 22.3262C-19.0294 23.207 -18.534 24.1152 -18.0385 25.0125C-17.7083 25.618 -17.378 26.2235 -17.0367 26.829C-16.7284 27.3684 -16.4587 27.9299 -16.1945 28.4969C-15.8312 29.262 -15.4734 30.0271 -15.0055 30.7317C-13.8711 32.4941 -12.886 34.3483 -12.0606 36.2749C-11.3009 37.9923 -11.5651 39.6327 -12.2092 41.229C-13.0233 43.1284 -13.9535 44.9759 -14.9945 46.7611C-15.742 48.1712 -16.3859 49.6337 -16.9211 51.1372L-17.1578 51.7648L-17.2459 51.996C-17.7798 53.3721 -18.3138 54.7482 -18.7431 56.1629L-19.0569 57.1758C-19.4367 58.3758 -19.811 59.5758 -20.0422 60.8088C-20.366 62.6301 -20.4732 64.4834 -20.3615 66.3299L-20.3284 67.051C-20.2404 68.9281 -20.1578 70.7941 -19.145 72.462L-21.0495 72.3519C-23.3505 67.5904 -22.167 62.9721 -20.4 58.3813C-21.0456 59.061 -21.5144 59.889 -21.7651 60.7923C-22.1505 61.9978 -22.4973 63.2088 -22.745 64.4473C-23.29 66.9279 -23.3274 69.4932 -22.8551 71.9886C-22.833 72.0437 -22.8055 72.1097 -22.811 72.1978C-23.0312 72.2308 -23.2514 72.2198 -23.4606 72.1593L-23.4936 72.0877C-23.6642 71.6804 -23.8239 71.3171 -23.8569 70.9097C-23.978 69.5115 -24.0495 68.1024 -23.967 66.7097C-23.8349 64.596 -23.2129 62.5813 -22.5798 60.5721C-22.5358 60.451 -22.5028 60.3244 -22.4697 60.1978C-22.3927 59.895 -22.3156 59.5923 -22.1505 59.3171C-21.4514 58.1446 -20.7743 56.9611 -20.0973 55.7721C-19.6789 55.04 -19.2606 54.3079 -18.8312 53.5813C-18.0771 52.2767 -17.5101 50.8785 -16.9486 49.4749C-16.5028 48.3137 -16.0013 47.1748 -15.4459 46.062C-15.0936 45.3794 -14.7688 44.6804 -14.4495 43.9813C-14.0354 43.0469 -13.5817 42.1305 -13.0899 41.2345C-12.3138 39.8693 -12.0716 38.5042 -12.5064 37.0235C-12.8917 35.7189 -13.5798 34.5629 -14.2679 33.407C-14.4936 33.0216 -14.7248 32.6363 -14.945 32.2455C-15.1927 31.8051 -15.4569 31.3648 -15.7156 30.9354C-16.156 30.2143 -16.5963 29.4932 -16.9596 28.7281C-17.5321 27.5171 -18.1817 26.3501 -18.8312 25.1831L-19.8385 23.3666L-19.8771 23.284C-20.2294 22.6345 -20.5872 21.9629 -20.4551 21.1813C-20.2899 20.1904 -19.7119 19.9482 -18.8367 20.4271C-18.4734 20.6253 -18.1596 20.895 -17.8459 21.1648C-17.6092 21.3684 -17.378 21.5666 -17.1193 21.7427C-17.345 21.473 -17.4495 21.1537 -17.5596 20.84C-17.6178 20.6419 -17.6915 20.4486 -17.7798 20.262C-18.4404 18.9574 -19.0624 17.6198 -19.6349 16.2712C-19.7621 15.988 -19.796 15.6716 -19.7317 15.3678C-19.6674 15.0641 -19.5082 14.7886 -19.2771 14.5813C-18.8587 14.2125 -18.3248 14.306 -17.8624 14.6528C-17.7358 14.7464 -17.5872 14.8125 -17.433 14.873L-17.2349 14.9666C-17.5778 14.3565 -17.7058 13.6489 -17.5982 12.9574L-17.5872 12.8528C-17.5541 12.4785 -17.5266 12.1042 -17.1248 11.9391C-16.6844 11.7629 -16.2661 11.84 -15.8862 12.1703C-14.9945 12.9299 -14.2899 13.8382 -13.5743 14.7519L-13.4862 14.862C-13.3211 15.0602 -13.1835 15.2749 -13.0459 15.4895C-12.7927 15.8583 -12.545 16.2271 -12.2092 16.5519C-12.4827 15.4644 -12.6486 14.3526 -12.7046 13.2326L-12.7266 13.051C-12.7651 12.7317 -12.8037 12.4345 -12.4514 12.2363C-12.0661 12.0161 -11.7193 12.2033 -11.4055 12.4235C-10.4973 13.0565 -9.93579 13.9648 -9.44588 14.9281C-8.70962 16.4073 -8.04464 17.921 -7.45322 19.4638C-7.28808 19.8877 -7.10643 20.3115 -6.92478 20.7299C-6.51227 21.652 -6.15207 22.5966 -5.84588 23.5593C-5.48784 24.7635 -4.75749 25.8234 -3.75964 26.5868C-3.2367 26.9886 -2.79083 26.818 -2.69175 26.2235L-2.60918 25.7226C-2.3945 24.429 -2.18533 23.1519 -1.52478 21.9409C-0.974319 20.9391 -0.36331 20.1079 0.588984 19.5244C1.43669 19.0125 2.2954 19.2216 2.49357 19.9813C2.5977 20.3421 2.63501 20.7189 2.60366 21.0932C2.46605 22.3042 2.13577 23.4602 1.8055 24.6271C1.63486 25.2326 1.45871 25.8437 1.31008 26.4602L1.12843 27.1703C0.872046 27.9127 0.761761 28.6978 0.803663 29.4822C0.886232 30.1317 0.8477 30.7978 0.693571 31.4363C0.401829 32.5648 -0.225695 33.5115 -0.847713 34.4638C-1.22202 35.0253 -1.60184 35.5978 -1.90459 36.2033C-2.30643 37.018 -2.79634 37.7996 -3.28074 38.5758C-3.49542 38.9226 -3.7101 39.2638 -3.91377 39.6106C-4.74496 40.9923 -5.0257 42.495 -5.31193 43.9978V43.9923ZM-21.3963 64.8987C-21.3963 64.9482 -21.4018 64.9923 -21.4129 65.0308C-21.633 66.7207 -21.3468 68.251 -21.0275 69.7868C-21.2477 68.6473 -21.2367 67.5024 -21.2257 66.3519C-21.2257 65.7574 -21.2202 65.1629 -21.2422 64.5684C-21.3853 64.651 -21.3908 64.7776 -21.3963 64.8987Z" fill="black"/>
<path fill-rule="evenodd" clip-rule="evenodd" d="M66.8091 72.4951C67.9211 70.8823 68.1137 69.0052 68.3064 67.1227L68.389 66.3796C68.5871 64.6346 68.5926 62.8731 68.411 61.1282C68.2483 59.8737 67.9982 58.6321 67.6624 57.4126L67.3651 56.2016C67.1449 55.2493 66.8532 54.319 66.5669 53.3942C66.3908 52.8328 66.2147 52.2713 66.055 51.7098C65.5625 50.007 64.9518 48.3406 64.2275 46.7227C63.9853 46.1722 63.7266 45.6217 63.4624 45.0713C62.7927 43.7456 62.2295 42.3688 61.778 40.9539C61.6128 40.3924 61.4202 39.8309 61.2275 39.275C60.7321 37.8217 60.2367 36.3685 60.2092 34.8162C60.1871 33.1594 60.5669 31.5465 60.9468 29.9392L60.9908 29.763C61.4312 27.9025 61.8715 26.0419 61.778 24.0988C61.6954 22.2328 60.622 21.0107 59.2293 19.9979C58.3101 19.3263 57.2147 19.0071 56.1192 18.7869C55.5869 18.6906 55.0402 18.7075 54.5148 18.8365C53.9893 18.9654 53.497 19.2036 53.0697 19.5355C52.5688 19.8933 52.5523 20.5373 52.9761 21.1869C53.9504 19.9043 55.2385 20.13 56.4936 20.3502L56.9174 20.4217C57.2091 20.4658 57.5009 20.5539 57.7981 20.6419C58.1079 20.7411 58.4243 20.8184 58.7449 20.8731C59.1743 20.9392 59.3945 21.1704 59.6147 21.6217C58.8165 21.8144 58.1064 21.6273 57.4128 21.4511L57.1266 21.374L56.8899 21.319C56.1743 21.1318 55.4807 20.9557 54.7156 21.0988C53.7633 21.2805 53.2018 21.7704 53.1358 22.7447C53.0917 23.4933 53.1137 24.2474 53.1358 24.9961C53.1468 25.3263 53.2458 25.7062 53.6697 25.6841C54 25.6731 54 25.4199 54.011 25.1777V25.0291C54.1431 23.4548 55.9046 22.0016 57.4569 22.2438C57.633 22.2713 57.8147 22.2878 57.9963 22.3098C58.6018 22.3759 59.2128 22.4364 59.7468 22.8107L59.8569 22.8823C60.0055 22.9704 60.1541 23.0584 60.066 23.2676C59.9559 23.5373 59.7358 23.4713 59.4991 23.3997L59.466 23.3942L59.3339 23.3557C58.4422 23.0915 57.5504 22.8273 56.5926 23.1465C56.1339 23.2971 55.7286 23.5775 55.4257 23.9536C55.1229 24.3297 54.9355 24.7854 54.8862 25.2658C54.8403 25.63 54.892 25.9998 55.0362 26.3374C55.1803 26.675 55.4116 26.9682 55.7064 27.1869C56.4385 27.7539 56.8458 27.6107 57.1486 26.7465C57.1926 26.6199 57.1816 26.4713 57.1761 26.3227C57.1596 26.0419 57.1486 25.7612 57.5064 25.6181C57.7706 25.5135 57.9743 25.6456 58.178 25.7832C58.3047 25.8755 58.4489 25.9411 58.6018 25.9759C58.9787 26.0564 59.311 26.2767 59.5321 26.5924C59.2183 26.9612 58.9156 26.8511 58.6128 26.7465C58.4842 26.6949 58.3489 26.6616 58.211 26.6474C58.0458 26.7465 57.9908 26.9172 57.9358 27.0878C57.9192 27.1539 57.8972 27.2254 57.8642 27.2915C57.1486 28.8438 56.1027 28.6016 55.0734 27.7373H55.0679C54.9578 27.6438 54.8477 27.5502 54.7926 27.4291C54.4954 26.7025 54.0495 26.3227 53.1743 26.4052C52.789 26.4383 52.5137 25.9539 52.4587 25.486C52.3422 24.6581 52.287 23.8228 52.2936 22.9869C52.0183 22.9484 51.7431 22.9484 51.4679 22.9428C50.9394 22.9428 50.411 22.9428 49.9321 22.6676C49.8165 22.6016 49.7119 22.497 49.6899 22.2493C50.0972 21.9795 50.5651 22.0016 51.0385 22.0291C51.5174 22.0511 52.0073 22.0731 52.4532 21.8089C52.3981 21.6988 52.3321 21.5942 52.266 21.4951C52.0348 21.1208 51.8036 20.752 51.8972 20.2731C51.9358 20.0805 51.7431 20.0199 51.5725 19.9759C51.3465 19.9095 51.1258 19.8267 50.9119 19.7282C50.1027 19.3814 49.4807 19.6786 49.3376 20.5539C48.9413 22.9759 48.8422 25.4034 49.3266 27.8199C49.5192 28.7832 49.8936 29.6915 50.4275 30.5172C51.0387 31.4958 51.5831 32.5146 52.0569 33.5667L52.5908 34.6676C52.9871 35.4658 53.3174 36.2915 53.6477 37.1117L54.1981 38.4658C55.0899 40.53 55.3926 42.7263 55.6679 44.9337C55.9673 47.3347 56.1546 49.7483 56.2293 52.1667L56.2844 53.6144C56.3504 54.9245 56.5431 56.2126 56.7302 57.5006C56.8075 58.0138 56.8809 58.5276 56.9504 59.0419C57.2257 61.1006 57.8312 63.0768 58.4312 65.0474L58.6789 65.8621C59.372 68.2876 60.5771 70.5363 62.2128 72.4566C61.9101 72.5007 61.5963 72.5007 61.288 72.4566C58.5633 69.0658 57.5449 65.0695 56.5321 61.1447L56.3669 60.4896L56.3504 60.5447L56.3394 60.5722C56.2403 60.8364 56.1192 61.1667 56.0587 61.5465C55.7835 63.1428 55.9376 64.7227 56.0972 66.3025C56.2153 67.4824 56.5084 68.6382 56.9669 69.7318C57.1321 70.1282 57.3358 70.5025 57.5394 70.8713C57.8257 71.3942 58.1119 71.9172 58.288 72.5006H57.633C56.8544 71.5622 56.2773 70.4736 55.9376 69.3025C55.277 67.3484 55.0734 65.3392 55.0018 63.3135C54.9798 62.697 55.1394 62.1025 55.2991 61.519C55.5229 60.8086 55.6343 60.0675 55.6293 59.3227C55.7064 58.0676 55.778 56.8236 55.6183 55.552C55.5033 54.4771 55.4518 53.3963 55.4642 52.3153C55.4532 51.7539 55.4532 51.1924 55.4257 50.6309V50.5704C55.3706 49.2548 55.3156 47.741 55.1504 46.3869L55.0293 45.2034C54.8587 43.4199 54.7211 42.0107 53.6257 38.9227C53.2789 37.9484 52.8 37.0291 52.3321 36.1153C51.9302 35.3392 51.5284 34.563 51.2036 33.7484C50.7911 32.755 50.2646 31.8129 49.6348 30.941C48.7596 29.697 48.5449 28.2768 48.3302 26.8511C48.2972 26.6199 48.2642 26.3832 48.2202 26.152C47.989 24.7098 48.1761 23.2951 48.3633 21.886C48.4293 21.352 48.5009 20.8181 48.5504 20.2841C48.6605 19.1062 49.8055 18.5887 51.2532 18.963C51.4844 19.0236 51.7046 19.1062 51.9358 19.1832L52.266 19.3043C52.6617 18.7436 53.2332 18.331 53.8899 18.1318C54.677 17.9227 54.6605 17.4328 54.644 16.8107V16.7557C54.6055 15.5722 54.4624 14.3997 54.3137 13.2273C54.1266 11.6584 53.9284 10.0896 54 8.49881C54.055 7.37588 54.7486 6.66578 55.7394 6.79239C56.4605 6.87496 56.7523 7.45844 57.011 7.98688C57.5339 9.04377 57.7211 10.1942 57.9082 11.3447C57.9853 11.8126 58.0569 12.275 58.1559 12.7318C58.2991 13.4089 58.3981 14.0915 58.4972 14.7795C58.6403 15.7814 58.7835 16.7832 59.0752 17.7575L59.0862 17.8126C59.1302 17.9557 59.1743 18.0988 59.1688 18.2364C59.1413 18.7704 59.411 19.0786 59.8293 19.3759C61.2825 20.3942 62.2734 21.7979 62.6036 23.5208C62.8238 24.6603 62.5761 25.8162 62.3339 26.9612L62.2293 27.4566C62.0752 28.2273 61.8991 28.9979 61.7174 29.7575C61.317 31.305 61.0191 32.8772 60.8257 34.4639C60.7211 35.5043 60.9963 36.4786 61.3211 37.4089L61.3981 37.6401C61.8495 38.9282 62.2954 40.2162 62.8293 41.4768C63.9908 44.174 65.0752 46.8988 66.1156 49.6401C66.2917 50.1025 66.4458 50.5814 66.589 51.0603C66.8642 51.941 67.1449 52.8328 67.5963 53.6364C68.2458 54.7924 68.8238 55.9869 69.4018 57.1814C69.7871 57.974 70.1725 58.7722 70.5743 59.5539C70.7229 59.8401 70.7835 60.1484 70.8495 60.4511L70.9266 60.8364C71.444 62.8731 71.9449 64.9208 71.9504 67.0401C71.9504 68.4383 71.7963 69.8364 71.5926 71.2236C71.5376 71.6309 71.3614 71.9832 71.1633 72.3795L71.1247 72.4511C70.9101 72.5006 70.6899 72.4951 70.4752 72.4511L70.5633 72.0933C70.8 71.1685 71.0257 70.2713 71.0587 69.3355C71.1247 67.2273 71.0807 65.119 70.6128 63.0548L70.5247 62.675C70.1669 61.0731 69.8036 59.4603 68.8073 58.0511C68.9174 58.9814 69.1816 59.8566 69.4458 60.7263C69.6275 61.3208 69.8036 61.9098 69.9358 62.5153C70.4532 64.9318 70.4587 67.3208 69.8477 69.7263C69.666 70.4584 69.3523 71.1245 69.0385 71.7906L68.7082 72.4951H66.8036H66.8091ZM55.3156 14.6034C55.4642 15.6823 55.6183 16.7722 55.5082 17.9062C56.1861 17.877 56.8622 17.9954 57.4899 18.2529C57.8036 18.3575 58.1174 18.4621 58.4367 18.5282C58.5743 18.2915 58.4752 18.1153 58.3706 17.9392C58.3156 17.8291 58.2495 17.719 58.244 17.5979C58.1064 15.5447 57.6605 13.5465 57.2147 11.5484L56.9229 10.2273C56.7413 9.42358 56.4275 8.65844 55.9871 7.96487C55.8605 7.75569 55.7119 7.59055 55.4367 7.60156C55.1394 7.61808 55.0569 7.86028 54.9853 8.07496C54.7943 8.70641 54.7547 9.37398 54.8697 10.0236L54.9413 10.508C55.0348 11.0915 55.1284 11.697 55.0954 12.3906C55.1119 13.1337 55.211 13.8658 55.3156 14.6034ZM68.7798 69.963L69.0275 68.752C69.2532 67.1557 69.2972 65.6585 69.3413 64.1502V64.0676C69.7651 66.1043 69.3963 68.0419 68.7798 69.9575V69.963Z" fill="black"/>
</g>
</g>
<defs>
<clipPath id="clip0_844_4399">
<path d="M0 24C0 10.7452 10.7452 0 24 0C37.2548 0 48 10.7452 48 24C48 37.2548 37.2548 48 24 48C10.7452 48 0 37.2548 0 24Z" fill="white"/>
</clipPath>
</defs>
</svg>
