<svg width="48" height="48" viewBox="0 0 48 48" fill="none" xmlns="http://www.w3.org/2000/svg">
<g clip-path="url(#clip0_844_4058)">
<mask id="mask0_844_4058" style="mask-type:luminance" maskUnits="userSpaceOnUse" x="0" y="0" width="48" height="48">
<path d="M48 0H0V48H48V0Z" fill="white"/>
</mask>
<g mask="url(#mask0_844_4058)">
<path d="M35.7248 42.864C30.2642 59.2126 15.6991 64.2548 7.99818 43.9539C6.9358 41.1631 9.7046 40.1282 11.6422 38.8952C12.9688 38.053 13.6679 37.3264 13.5853 36.5722C13.2 33.0273 11.5541 23.1521 11.5541 23.1521L11.389 22.8328C11.389 22.8328 11.4275 22.7447 11.2679 22.8989C11.1028 23.064 10.723 24.7814 9.23121 24.7814C7.88259 24.7814 6.52295 24.1814 5.87341 20.031C5.62571 18.5282 5.75782 14.5869 7.43121 13.8713C8.11928 13.5796 8.75231 13.475 9.36882 13.8273C9.99084 14.1796 8.65323 12.6163 15.534 6.89151C20.0037 3.1594 27.0661 2.61445 29.9174 3.24748C32.7688 3.8805 35.6147 5.27316 36.8752 8.22913C38.4055 11.8071 35.4496 14.5209 36.1046 22.6787C35.9835 25.6291 36.1486 32.1025 28.0349 34.2713C26.4936 34.6842 26.9725 36.9356 29.2844 37.486C32.9725 38.642 35.7248 41.4658 35.7248 42.875" fill="white"/>
<path fill-rule="evenodd" clip-rule="evenodd" d="M35.7248 17.4602L35.7303 17.3831C35.956 15.3795 36.1817 13.4364 37.222 11.6914C37.5798 11.9336 37.5358 12.2419 37.4257 12.5281C36.3303 15.3465 36.4349 18.2749 36.534 21.2033L36.556 21.974C36.6716 25.629 35.7578 28.9538 33.3248 31.7446C32.4771 32.7134 31.3541 33.385 30.2147 33.963C29.0367 34.5685 28.789 35.0694 29.1578 36.363L29.2018 36.5061C29.2789 36.7208 29.356 36.9409 29.1468 37.1556C28.8991 37.4088 28.6239 37.3373 28.3321 37.2547L28.2991 37.2492C25.5699 36.485 23.0107 35.2092 20.7578 33.4896C20.4275 33.2474 20.1633 32.9226 19.9046 32.6033L19.8881 32.5813C19.7505 32.4162 19.7229 32.152 19.9156 32.0088C20.0973 31.8712 20.2349 31.9813 20.3945 32.1079L20.4495 32.1575C21.6515 33.1327 23.1103 33.7388 24.6495 33.9024C25.3872 33.9795 26.1138 33.952 26.8514 33.9244C27.2587 33.9079 27.6661 33.8914 28.0789 33.8969C28.6404 33.8969 29.1083 33.6382 29.5486 33.3905L29.7028 33.3024C31.233 32.4492 32.6917 31.4969 33.6771 29.9611C34.5633 28.585 35.1028 27.0877 35.4165 25.5079C35.8129 23.5208 35.7798 21.5061 35.7468 19.4639C35.7303 18.8033 35.7193 18.1318 35.7193 17.4602H35.7248ZM8.01469 13.3098C9.22019 13.2162 9.88625 13.9263 10.4532 14.7575C11.1252 15.773 11.5477 16.933 11.6862 18.1428C11.7138 18.3465 11.7413 18.5611 11.6202 18.7648C11.3725 18.7978 11.3505 18.5997 11.345 18.4565C11.3174 17.3171 10.811 16.3263 10.3046 15.3685C9.94129 14.6804 9.41285 14.0143 8.57615 13.8492C7.62937 13.6565 6.75964 14.5098 6.33028 15.6217C5.53212 17.6914 5.66973 19.7281 6.40735 21.7318C6.72661 22.607 7.12845 23.4987 7.93762 24.1098C8.7523 24.7318 9.73762 24.6217 10.3376 23.796L10.4477 23.6584C10.5578 23.5153 10.6679 23.3776 10.7229 23.218C10.8385 22.8987 11.0202 22.6015 11.345 22.6455C11.7193 22.7006 11.7853 23.1024 11.8239 23.4162C12.1653 26.2998 12.5691 29.1757 13.0349 32.0419L13.3596 34.1776C13.5028 35.1189 13.6679 36.4731 13.5578 37.0455C13.5507 37.0857 13.5452 37.1261 13.5413 37.1666C13.5193 37.3208 13.5083 37.4419 13.3101 37.4694C13.0404 37.5134 12.9248 37.3593 12.8862 37.1171C12.7596 36.1813 12.7211 35.818 12.6661 34.3868C12.6165 32.9997 12.3578 31.6345 12.0936 30.2639L11.8184 28.7776C11.5321 27.0822 11.2514 25.3648 11.2239 23.4382L11.1138 23.6033C10.6954 24.2254 10.3596 24.7318 9.76515 24.9244C9.32384 25.0935 8.84022 25.118 8.38411 24.9943C7.92799 24.8706 7.52297 24.6052 7.22753 24.2364C6.45187 23.3603 5.90698 22.3046 5.64221 21.1648C5.17982 19.2932 5.09726 17.4712 5.69175 15.6272C5.97799 14.7409 6.99634 13.1666 8.01469 13.3153V13.3098ZM9.91927 20.3281C10.1615 20.5043 10.3817 20.6584 10.5798 20.0309C10.5193 17.7079 9.77065 16.2217 8.60918 16.1611C9.2257 16.9648 9.82019 17.7465 9.87524 18.8309C9.64618 18.7139 9.44523 18.5486 9.28625 18.3465C9.17615 18.2254 9.06606 18.1042 8.92845 18.0162L8.76331 17.8841C8.49909 17.6859 8.22937 17.4767 7.78349 17.6364C7.99267 17.9556 8.27891 18.1868 8.57065 18.407C8.90093 18.6657 9.2312 18.9189 9.42937 19.3153C8.84588 19.7391 8.59267 20.2896 8.89542 20.9611C9.15964 21.5391 9.55047 22.018 10.3211 22.051C10.2881 21.7043 10.0624 21.451 9.8367 21.2033C9.56148 20.9061 9.30276 20.6198 9.42386 20.1795C9.60001 20.0969 9.76515 20.218 9.91927 20.3281Z" fill="black"/>
<path d="M58.0954 72.6056L-13.6679 72.4129C-13.6679 72.4129 -11.0972 55.6735 -4.23302 47.9175C-1.15596 44.4441 1.40367 41.0148 8.2789 38.5487C9.45688 38.1249 11.2018 33.7047 12.1376 33.2423C13.0239 32.8019 12.4404 36.1157 13.2606 36.7872C14.933 38.1828 16.6986 39.4628 18.545 40.6184C21.7872 42.6661 23.2789 46.9432 23.2789 46.9432C23.2789 46.9432 24.7321 42.8203 25.9431 40.7946C26.7963 39.3634 29.6477 35.1579 29.6477 35.1579C29.6477 35.1579 34.8606 36.7872 36.7927 38.2239C37.9651 39.0937 37.2771 38.901 42.5945 41.9395C47.2128 44.5762 51.7431 51.7983 54.1541 57.7927C56.7193 64.1671 58.0954 72.6001 58.0954 72.6001V72.6056Z" fill="white"/>
<path fill-rule="evenodd" clip-rule="evenodd" d="M57.7431 72.6054C57.3743 71.1192 57.055 69.6329 56.7358 68.1412C56.5982 67.4806 56.4605 66.8201 56.3119 66.1705C55.8605 64.1338 55.2661 62.1522 54.611 60.1815C53.9799 58.2644 53.2071 56.3969 52.2991 54.5944C51.3971 52.7538 50.367 50.9788 49.2165 49.2825C47.5651 46.899 45.7706 44.6311 43.3927 42.9302C41.6642 41.6971 39.7486 40.7724 37.8385 39.8531C37.1615 39.5228 36.4679 39.6769 35.7908 39.8256L35.5706 39.8806C35.0257 39.9907 34.4917 40.1118 33.9523 40.2329C33.3059 40.3802 32.6582 40.5215 32.0092 40.6568C31.7284 40.7118 31.6239 40.877 31.5413 41.1081L31.211 42.0714C30.9853 42.743 30.7541 43.4146 30.545 44.0916C30.4018 44.543 30.1596 44.7412 29.6807 44.7302C29.2734 44.7247 28.8661 44.7302 28.4587 44.7412C28.0183 44.7467 27.5835 44.7577 27.1486 44.7467C26.378 44.7302 25.9982 45.0054 26.0917 45.9302C26.1963 46.921 26.1908 47.9173 26.1908 48.9192C26.1908 49.5081 26.1908 50.0971 26.2073 50.6916C26.2624 52.2054 26.2624 53.7357 26.2349 55.2439C26.1798 58.0678 26.1798 60.8916 26.1798 63.721C26.1853 66.6494 26.1908 69.5834 26.1248 72.5393C25.9132 72.6013 25.6888 72.6051 25.4752 72.5503C25.4037 69.5724 25.3706 66.6439 25.3872 63.7155C25.3982 61.965 25.3872 60.2091 25.3817 58.4531C25.3596 54.9357 25.3431 51.4182 25.4807 47.9008C25.4917 47.7081 25.4257 47.532 25.211 47.5265C25.0855 47.6669 24.9589 47.8064 24.8312 47.9448C24.1266 48.7155 23.433 49.4751 23.1028 50.5815C22.6459 50.0531 22.4587 49.4366 22.2716 48.8476C22.0679 48.1925 21.8697 47.565 21.3358 47.0916C21.2257 47.4109 21.2257 47.7026 21.2257 47.9999V49.8164L21.2367 53.6146L21.2312 58.2604C21.2257 61.6182 21.2202 64.9705 21.2312 68.3228C21.2367 68.7302 21.2312 69.1375 21.2147 69.5393C21.1927 70.5632 21.1651 71.587 21.3248 72.5999H20.5431C20.4709 71.4545 20.436 70.3071 20.4385 69.1595V47.1962C20.4385 45.8751 20.0147 45.5008 18.7541 45.1595C16.6624 44.6091 14.5596 44.0091 12.9523 42.4237C12.3578 41.8403 11.7193 42.132 11.1908 42.3687L11.1248 42.4017C10.6514 42.6219 10.1615 42.7815 9.67156 42.9412C9.01101 43.1614 8.35046 43.3815 7.73945 43.7283C7.61285 43.7944 7.49725 43.8714 7.37615 43.9485C7.14693 44.1031 6.90365 44.2358 6.64954 44.3448L6.52844 44.3999C6.36331 44.4769 6.20367 44.5485 6.01652 44.3724C5.80734 44.1852 5.81285 43.987 5.90642 43.7393L6.22019 42.7981C6.49541 41.9614 6.77065 41.1302 7.13395 40.321L7.18899 40.2109C7.26606 40.0843 7.33762 39.9577 7.26606 39.787C7.04587 39.6384 6.84221 39.7485 6.66055 39.8476L6.56147 39.9026L6.44037 39.9577L6.33028 40.0127C3.99633 41.1852 1.66239 42.3577 -0.264217 44.1962C-1.63797 45.4851 -2.90796 46.8802 -4.06238 48.3687C-6.28039 51.3151 -8.08946 54.5481 -9.44036 57.9797C-10.7394 61.2164 -11.8624 64.5302 -12.4294 67.9981C-12.5394 68.6366 -12.6385 69.2751 -12.7431 69.9192L-13.178 72.5448C-13.4807 72.5999 -13.7725 72.5999 -14.1193 72.5999C-13.8661 70.7834 -13.5743 68.9669 -13.2275 67.1558C-13.1009 66.5008 -12.9358 65.8568 -12.7651 65.2127C-12.6661 64.8164 -12.5615 64.4256 -12.4734 64.0292C-12.1612 62.7897 -11.7883 61.5662 -11.356 60.3632L-11.3009 60.2146C-10.1569 56.758 -8.60467 53.4502 -6.67706 50.3614C-5.74703 48.8802 -4.69768 47.4773 -3.53945 46.1669C-1.4477 43.7834 0.864223 41.6531 3.76514 40.3155C5.33945 39.5889 6.80367 38.7192 8.25688 37.7944C8.66973 37.5302 8.86239 37.1503 9.06055 36.7705C9.13762 36.6329 9.20918 36.4898 9.29725 36.3522C10.1064 35.0586 10.9486 33.7981 12.2202 32.8953L12.3083 32.8292C12.4679 32.7026 12.622 32.587 12.8422 32.7192C13.0404 32.8292 13.0294 32.9999 13.0239 33.1815V33.3357C13.0569 34.2494 13.1339 35.1577 13.211 36.0659C13.2385 36.3577 13.3596 36.6164 13.6514 36.7485C14.8844 37.3155 15.9358 38.1412 16.9872 38.9724C17.6202 39.4678 18.2532 39.9632 18.9248 40.4036C20.5441 41.4317 21.8861 42.8418 22.833 44.51C22.9431 44.7081 23.0257 44.9173 23.1193 45.1595L23.2624 45.5228C23.7743 43.4586 24.8752 41.7687 25.9762 40.0898L26.6202 39.099C26.7303 38.9228 26.8183 38.7357 26.9064 38.5485C27.0275 38.2953 27.1486 38.0421 27.3358 37.8109C27.4712 37.646 27.5557 37.4453 27.5792 37.2333C27.6027 37.0212 27.564 36.8069 27.4679 36.6164C27.3468 36.3577 27.2807 36.088 27.3853 35.8072C27.8532 35.6641 28.1009 35.9338 28.3651 36.2146L28.4202 36.2696C28.9156 35.9503 28.8605 35.5375 28.6018 35.0971C28.5138 34.943 28.4367 34.7944 28.5688 34.6458C28.6954 34.5081 28.8661 34.5247 29.0312 34.5742C31.0734 35.1632 33.1046 35.7852 34.9872 36.8091C35.2459 36.9522 35.5156 37.0843 35.7853 37.2109C36.5174 37.5632 37.2495 37.9155 37.7835 38.5045C38.6312 39.4403 39.7156 39.9467 40.8 40.4531C41.4495 40.7614 42.0936 41.0586 42.6936 41.4549C44.0395 42.2948 45.2843 43.2866 46.4037 44.4109C47.6697 45.7485 48.8532 47.1632 49.8826 48.6825C50.7853 50.0036 51.644 51.3577 52.3927 52.7834C53.4123 54.725 54.2952 56.7354 55.0349 58.7999C55.7229 60.71 56.3119 62.6476 56.8349 64.6072C57.2092 66.0274 57.4514 67.4696 57.6881 68.9173C57.8917 70.1283 58.0899 71.3393 58.3706 72.5503C58.1945 72.6054 58.0018 72.6054 57.7431 72.6054ZM21.8367 44.2678C20.5657 42.7448 19.0761 41.4185 17.4165 40.332C16.9196 40.0039 16.4435 39.6455 15.9908 39.2586C15.3303 38.7192 14.6697 38.1742 13.8881 37.8164C12.9633 37.3981 12.4679 36.8036 12.4349 35.8072V35.6751C12.4294 35.4604 12.4239 35.2458 12.3963 35.0366C12.3523 34.6182 11.8624 34.3981 11.6037 34.7118C11.5156 34.8219 11.411 34.91 11.3119 35.0036C11.1669 35.123 11.0391 35.2619 10.9321 35.4164C9.66606 37.4311 8.41101 39.4458 7.49725 41.6531C7.37615 41.9503 7.29358 42.3412 7.54679 42.5834C7.75046 42.7815 8.00918 42.6769 8.26239 42.5724C8.30613 42.5533 8.35017 42.535 8.3945 42.5173L9.46789 42.11C10.189 41.8237 10.9156 41.543 11.6587 41.3173C12.4459 41.0806 13.0459 41.2182 13.6018 41.8403C14.1906 42.4668 14.9105 42.9555 15.7101 43.2714C16.5853 43.6568 17.4826 43.9485 18.3798 44.2458C19.1615 44.5045 19.9431 44.7632 20.7083 45.0769C21.6495 45.4623 22.5248 45.9632 22.5138 47.1962C22.5138 47.3889 22.5578 47.5815 22.8771 47.554C23.0367 47.1136 23.0367 46.6733 22.8165 46.2329L22.5303 45.6494C22.3101 45.2091 22.0899 44.7577 21.8367 44.2678ZM31.8165 36.2916L32.3119 36.4678L34.7615 37.5962C35.2056 37.7978 35.6497 37.9997 36.0936 38.2017C36.2697 38.2843 36.4624 38.3669 36.4624 38.5925C36.4624 38.8347 36.2697 38.8678 36.0936 38.9008L35.9945 38.9228C35.728 38.9869 35.4619 39.0529 35.1963 39.121C34.5138 39.2916 33.8312 39.4623 33.1321 39.5669C31.6679 39.787 30.8752 40.376 30.4734 41.7852C30.4239 41.9614 30.3633 42.1375 30.2972 42.3081C30.2092 42.5558 30.1266 42.8036 30.0771 43.0458C29.9395 43.7063 29.5156 43.7724 29.0037 43.8164L28.0294 43.9265C27.4954 43.9815 26.9615 44.0476 26.422 44.0806C25.9817 44.1081 25.7284 44.3338 25.5633 44.6861C25.4367 44.9503 25.2936 45.2036 25.156 45.4568C24.8917 45.9357 24.622 46.4146 24.4624 46.943C24.3853 47.1852 24.2752 47.5485 23.8184 47.5375C23.9284 46.2164 24.2587 44.9338 24.7817 43.7228C25.1395 42.8971 25.6404 42.165 26.1413 41.4384C26.5596 40.8219 26.978 40.2054 27.3138 39.5448C27.9303 38.3063 28.833 37.321 29.7468 36.3357L30.033 36.0219C30.2257 35.8072 30.3578 35.7467 30.6165 35.8458C31.0184 36.0109 31.4202 36.154 31.8275 36.2971L31.8165 36.2916Z" fill="black"/>
<path fill-rule="evenodd" clip-rule="evenodd" d="M36 51.8202C35.6807 49.8716 35.7248 48.0221 36.622 46.145C38.2239 47.9505 38.1853 50.0533 38.1523 52.1065L38.1413 52.9707C38.4165 53.0753 38.5651 52.9762 38.6973 52.8881L38.8294 52.8111C39.5174 52.5083 39.7266 52.6349 39.8422 53.4001C40.0514 54.7872 40.0624 56.1909 40.0734 57.5891L40.0789 58.1946C40.0789 58.5744 39.8752 58.8496 39.611 59.0258C38.9037 59.5504 38.264 60.1605 37.7064 60.8423C37.3431 61.2441 36.9798 61.6514 36.5835 62.0202C36.0385 62.5157 35.1138 62.6808 34.5138 62.2239L33.9358 61.7891C33.0661 61.1395 32.2018 60.4955 31.3762 59.7854C30.9774 59.4778 30.6727 59.0647 30.4967 58.5928C30.3206 58.121 30.2801 57.6093 30.3798 57.1157C30.4734 56.5432 30.5229 55.9597 30.5725 55.3707C30.6165 54.9083 30.6551 54.4459 30.7156 53.9836C30.8697 52.8441 31.0844 52.712 32.1193 53.1634C32.2129 53.2019 32.3064 53.2294 32.4 53.2514C32.6477 53.3175 32.9064 53.3891 33.1321 53.6918L33.2422 52.8661C33.3303 52.2056 33.4129 51.5946 33.4074 50.9725V50.9395C33.4074 50.8514 33.4073 50.7414 33.3633 50.7083C32.3725 50.0368 32.5541 49.156 32.9945 48.3028L33.0496 48.1927C33.3741 47.6567 33.5962 47.065 33.7046 46.4478C33.7046 46.3817 33.7651 46.3212 33.8147 46.2606L33.8807 46.1836L33.9633 46.2001L34.0459 46.2221C34.1285 46.7946 34.4312 47.2514 34.7285 47.7138C34.9817 48.1047 35.2349 48.4955 35.3615 48.9524C35.5046 49.4973 35.4165 49.9542 35.0257 50.301C34.6404 50.6478 34.5853 51.0496 34.6404 51.512L34.6789 51.8423C34.7119 52.101 34.745 52.3652 34.756 52.6294C34.8055 53.6037 34.9541 53.7248 36.0165 53.5322C36.1211 52.9817 36.0881 52.4313 36 51.8202ZM37.6129 59.6368C37.6679 59.5817 37.734 59.5322 37.7945 59.4826C37.925 59.3656 38.0629 59.2571 38.2073 59.1579C38.978 58.6625 39.3523 58.0239 39.2202 57.0496C39.1486 56.5157 39.1651 55.9762 39.1651 55.4313C39.1762 55.1505 39.1762 54.8698 39.1706 54.5891V54.4569C39.1706 54.2037 39.1706 53.945 38.9505 53.7413C38.6973 53.7964 38.4606 53.9065 38.2294 54.0166C37.8991 54.1652 37.5688 54.3138 37.211 54.3138C36.8037 54.3138 36.3963 54.3248 35.989 54.3413C34.6899 54.3854 33.3908 54.4349 32.1413 53.912C31.7119 53.7303 31.5413 53.868 31.5193 54.3193C31.4642 55.4202 31.3266 56.5102 31.1285 57.5891L31.1229 57.6111C31.0569 57.9579 30.9853 58.3652 31.3211 58.6459C32.5118 59.6216 33.7082 60.5905 34.9101 61.5524C35.3395 61.9047 35.7798 61.8276 36.0716 61.4092C36.3052 61.0978 36.5609 60.8034 36.8367 60.5285C37.0954 60.2533 37.3651 59.967 37.6073 59.6368H37.6129ZM36.4954 49.3047C36.5615 49.3377 36.633 49.3762 36.7046 49.3487L37.3651 49.2661C36.9248 49.7175 36.6551 49.723 36.2037 49.3102C36.3083 49.2056 36.4018 49.2551 36.4954 49.3047Z" fill="black"/>
<path d="M36.9633 2.74123C37.789 4.93205 38.5486 6.58343 38.4055 8.88985C38.3505 9.73756 37.734 11.0752 37.5248 11.8899C37.233 13.0128 36.622 14.0421 36.5505 15.2311C36.5395 15.3798 36.4294 15.4788 36.1762 15.5284C35.7468 14.9669 35.6918 14.2513 35.6697 13.5908C35.6037 11.5266 35.5046 9.47334 35.0422 7.45866C34.9101 6.89169 34.6954 6.35224 34.4697 5.65866C34.2661 7.53022 34.2661 7.51921 32.5651 7.54673C29.5046 7.60178 26.4551 7.78343 23.4275 8.2238C22.5633 8.3504 22.4918 8.29536 21.8973 7.18894C21.2918 7.59628 21.3083 8.32288 21.0055 8.87334C20.0862 10.5743 18.9028 12.0165 17.1523 12.9412C16.5468 13.2605 15.3138 13.2165 13.9156 12.8477C13.3927 14.5155 12.1266 15.9632 12.5725 17.9229C12.6491 18.244 12.6542 18.5781 12.5877 18.9015C12.5211 19.2248 12.3844 19.5297 12.1872 19.7944C11.978 20.0917 11.7468 20.1412 11.4606 20.0532C11.1688 19.9651 11.3064 19.7284 11.3119 19.5247C11.3395 17.7302 10.9046 16.0293 9.88625 14.5541C8.95047 13.1889 6.74313 13.5302 6.03854 15.0715C5.91194 15.3577 5.85139 15.699 5.40551 15.9743C5.32295 14.9669 5.30643 14.0477 5.41102 13.1394C5.62174 11.0242 6.08371 8.94163 6.78716 6.93573C7.82195 4.01868 9.63626 1.44094 12.033 -0.517485C14.5836 -2.57384 17.6871 -3.82677 20.9505 -4.11749C21.611 -4.18905 22.2661 -4.31565 22.9266 -4.38171C25.2455 -4.60564 27.5851 -4.30849 29.7743 -3.51198C32.7358 -2.46611 35.2899 -0.85877 36.6275 2.14123C36.7101 2.33389 36.8312 2.51004 36.9633 2.74123ZM10.7725 22.1889C10.9927 22.1284 11.1468 22.1394 11.2129 22.3486C11.6862 23.6807 11.7083 25.0678 11.6422 26.4495C11.6147 26.9779 10.7395 27.6165 10.0073 27.7155C9.30826 27.8036 8.65872 27.71 8.24588 27.055C8.0257 26.7082 8.19083 26.3394 8.31744 25.9265C7.53028 25.9486 6.84772 26.2568 6.14313 25.9265C5.20735 25.4917 5.11377 25.0788 5.85689 24.3853L6.04955 24.1486C5.71927 23.7302 5.17982 23.6697 4.83854 23.2954C4.45872 22.8935 4.40368 22.5137 4.71194 22.1119C5.11928 21.5889 5.76882 21.4899 6.20918 21.8366C6.37982 21.9577 6.52294 22.1229 6.62203 22.31C6.82915 22.7245 7.14959 23.0718 7.54615 23.3115C7.94271 23.5512 8.39912 23.6735 8.86239 23.6642C9.86423 23.6917 10.4202 23.0972 10.7725 22.1889Z" fill="black"/>
<path d="M24.1101 28.6675C23.978 29.6418 24.9963 30.4565 25.8936 30.0987C25.6569 29.2289 24.7486 29.1409 24.1101 28.6675Z" fill="white"/>
<path fill-rule="evenodd" clip-rule="evenodd" d="M23.5211 29.6035C24.2037 30.8916 25.5028 31.2494 26.9174 30.5008C27.4954 30.1485 27.7376 29.587 27.9468 29.0641C28.0366 28.8507 28.0758 28.6194 28.0615 28.3884C28.0472 28.1573 27.9797 27.9326 27.8642 27.732C27.0936 26.3118 26.1468 26.2732 25.0073 26.4879C23.7688 26.7246 22.9266 28.4916 23.5211 29.6035ZM25.8936 30.0989C24.9963 30.4567 23.978 29.6421 24.1101 28.6677C24.3138 28.8164 24.5395 28.9265 24.7651 29.0366C25.2551 29.2732 25.734 29.5044 25.8936 30.0989Z" fill="black"/>
<path d="M23.2294 25.9814C23.6807 26.1851 23.6532 26.4934 23.4606 26.8071C23.3174 27.0548 23.1028 27.2035 22.8165 27.0273C22.5523 26.8622 22.6128 26.6365 22.7615 26.4218C22.8826 26.2567 22.9266 26.02 23.2294 25.9814Z" fill="black"/>
<path d="M28.0954 23.4824C27.8202 23.4934 27.6165 23.4604 27.4349 23.3228C27.2807 23.2127 27.2587 23.0585 27.2918 22.8879C27.3193 22.7062 27.4679 22.6787 27.611 22.6897C28.3872 22.7283 29.1523 22.6622 29.8734 22.3374C30.0496 22.2549 30.2037 22.3264 30.2973 22.4806C30.3908 22.6512 30.4073 22.8273 30.2532 22.998C29.978 23.3172 29.6367 23.4934 29.2073 23.4824H28.1009H28.0954Z" fill="black"/>
<path d="M32.6752 19.5413C32.444 19.0184 32.1303 18.7046 31.5853 18.6771C31.255 18.6606 31.2 18.3964 31.0954 18.1376C31.2055 18.0551 31.2881 17.934 31.3872 17.9285C32.5486 17.8349 33.7211 17.8294 34.8826 17.923C35.2128 17.945 35.3945 18.3633 35.0587 18.4954C34.5083 18.7156 34.3706 19.222 34.0404 19.5853C33.589 20.0808 33.2037 20.0863 32.6752 19.5413ZM22.1615 17.912C22.833 17.9505 23.433 17.967 24.033 18.022C24.2312 18.0386 24.4734 18.1211 24.4734 18.3909C24.4734 18.6991 24.2202 18.6771 24.0165 18.6716C23.6697 18.6716 23.4826 18.8202 23.3284 19.145C23.1413 19.5523 22.9486 19.9872 22.3376 19.9597C21.7596 19.9321 21.5064 19.5633 21.3413 19.123C21.2202 18.8092 21.0661 18.6606 20.7358 18.6716C20.5486 18.6771 20.345 18.6606 20.3229 18.4019C20.3009 18.1266 20.4881 18.0716 20.7083 18.0055C21.1818 17.8794 21.6756 17.8476 22.1615 17.912Z" fill="black"/>
<path d="M25.8275 14.543C25.5193 15.4678 25.4642 15.3907 24.5615 15.1815C23.1193 14.8512 21.6605 14.1246 20.1413 14.9448C20.0312 15.0054 19.8661 14.9999 19.7229 14.9889C19.5248 14.9778 19.2716 15.0604 19.167 14.8072C19.0514 14.532 19.2495 14.3503 19.4587 14.2402C20.5431 13.6898 21.5229 12.9026 22.8936 13.0457C23.5982 13.1173 24.3248 12.8916 25.0569 12.9136C26.0917 12.9522 26.2899 13.2274 25.9376 14.2292L25.8275 14.5485V14.543ZM35.0477 13.365C35.5761 13.7283 35.7358 14.2898 36.055 14.7412C36.1149 14.816 36.1447 14.9106 36.1386 15.0063C36.1325 15.1019 36.0909 15.1919 36.022 15.2586C35.8899 15.4072 35.7248 15.4127 35.5761 15.3246C34.5248 14.7191 33.4349 14.9723 32.3835 15.2586C31.822 15.4072 31.5798 15.2145 31.4367 14.7522C31.3431 14.4384 31.2771 14.1191 31.2385 13.7944C31.167 13.2549 31.6183 13.1393 31.9541 13.1228C32.9725 13.0733 34.0128 12.8751 35.0477 13.365Z" fill="black"/>
</g>
</g>
<defs>
<clipPath id="clip0_844_4058">
<path d="M0 24C0 10.7452 10.7452 0 24 0C37.2548 0 48 10.7452 48 24C48 37.2548 37.2548 48 24 48C10.7452 48 0 37.2548 0 24Z" fill="white"/>
</clipPath>
</defs>
</svg>
