<svg width="48" height="48" viewBox="0 0 48 48" fill="none" xmlns="http://www.w3.org/2000/svg">
<g clip-path="url(#clip0_844_4266)">
<mask id="mask0_844_4266" style="mask-type:luminance" maskUnits="userSpaceOnUse" x="0" y="0" width="48" height="48">
<path d="M48 0H0V48H48V0Z" fill="white"/>
</mask>
<g mask="url(#mask0_844_4266)">
<path d="M35.7248 42.8645C30.2642 59.2131 15.6991 64.2553 7.99815 43.9544C6.93577 41.1636 9.70457 40.1287 11.6422 38.8957C12.9688 38.0535 13.6679 37.3269 13.5853 36.5727C13.2 33.0278 11.5541 23.1526 11.5541 23.1526L11.389 22.8333C11.389 22.8333 11.4275 22.7452 11.2679 22.8993C11.1027 23.0645 10.7229 24.7819 9.23118 24.7819C7.88256 24.7819 6.52292 24.1819 5.87338 20.0314C5.62567 18.5287 5.75778 14.5874 7.43118 13.8718C8.11925 13.5801 8.75228 13.4755 9.36879 13.8278C9.99081 14.1801 8.6532 12.6168 15.5339 6.892C20.0037 3.15989 27.066 2.61494 29.9174 3.24796C32.7688 3.88099 35.6147 5.27365 36.8752 8.22962C38.4055 11.8076 35.4495 14.5214 36.1046 22.6792C35.9835 25.6296 36.1486 32.103 28.0348 34.2718C26.4936 34.6847 26.9725 36.936 29.2844 37.4865C32.9725 38.6425 35.7248 41.4663 35.7248 42.8755" fill="white"/>
<path fill-rule="evenodd" clip-rule="evenodd" d="M35.7248 17.4607L35.7303 17.3836C35.956 15.38 36.1816 13.4368 37.222 11.6919C37.5798 11.9341 37.5358 12.2424 37.4257 12.5286C36.3303 15.3469 36.4349 18.2754 36.5339 21.2038L36.556 21.9745C36.6716 25.6295 35.7578 28.9543 33.3248 31.7451C32.4771 32.7139 31.3541 33.3855 30.2147 33.9635C29.0367 34.569 28.789 35.0699 29.1578 36.3635L29.2018 36.5066C29.2789 36.7213 29.356 36.9414 29.1468 37.1561C28.8991 37.4093 28.6238 37.3378 28.3321 37.2552L28.2991 37.2497C25.5699 36.4855 23.0107 35.2097 20.7578 33.4901C20.4275 33.2479 20.1633 32.9231 19.9046 32.6038L19.8881 32.5818C19.7505 32.4167 19.7229 32.1524 19.9156 32.0093C20.0972 31.8717 20.2349 31.9818 20.3945 32.1084L20.4495 32.158C21.6515 33.1332 23.1103 33.7393 24.6495 33.9029C25.3871 33.98 26.1138 33.9524 26.8514 33.9249C27.2587 33.9084 27.666 33.8919 28.0789 33.8974C28.6404 33.8974 29.1082 33.6387 29.5486 33.391L29.7027 33.3029C31.233 32.4497 32.6917 31.4974 33.6771 29.9616C34.5633 28.5855 35.1027 27.0882 35.4165 25.5084C35.8128 23.5213 35.7798 21.5066 35.7468 19.4644C35.7303 18.8038 35.7193 18.1323 35.7193 17.4607H35.7248ZM8.01467 13.3102C9.22018 13.2167 9.88623 13.9268 10.4532 14.758C11.1252 15.7735 11.5477 16.9334 11.6862 18.1433C11.7138 18.3469 11.7413 18.5616 11.6202 18.7653C11.3725 18.7983 11.3505 18.6002 11.3449 18.457C11.3174 17.3176 10.811 16.3268 10.3046 15.369C9.94128 14.6809 9.41284 14.0148 8.57614 13.8497C7.62935 13.657 6.75963 14.5102 6.33027 15.6222C5.5321 17.6919 5.66972 19.7286 6.40733 21.7323C6.7266 22.6075 7.12843 23.4992 7.93761 24.1102C8.75229 24.7323 9.73761 24.6222 10.3376 23.7965L10.4477 23.6589C10.5578 23.5157 10.6679 23.3781 10.7229 23.2185C10.8385 22.8992 11.0202 22.602 11.3449 22.646C11.7193 22.7011 11.7853 23.1029 11.8238 23.4167C12.1653 26.3003 12.5691 29.1762 13.0349 32.0424L13.3596 34.1781C13.5027 35.1194 13.6679 36.4735 13.5578 37.046C13.5507 37.0862 13.5452 37.1266 13.5413 37.1671C13.5193 37.3213 13.5082 37.4424 13.3101 37.4699C13.0404 37.5139 12.9248 37.3598 12.8862 37.1176C12.7596 36.1818 12.7211 35.8185 12.666 34.3873C12.6165 33.0002 12.3578 31.635 12.0936 30.2644L11.8183 28.7781C11.5321 27.0827 11.2514 25.3653 11.2238 23.4387L11.1138 23.6038C10.6954 24.2258 10.3596 24.7323 9.76513 24.9249C9.32383 25.094 8.84021 25.1185 8.38409 24.9948C7.92797 24.8711 7.52296 24.6057 7.22752 24.2368C6.45185 23.3608 5.90696 22.3051 5.64219 21.1653C5.17981 19.2937 5.09724 17.4717 5.69174 15.6277C5.97797 14.7414 6.99632 13.1671 8.01467 13.3157V13.3102ZM9.91926 20.3286C10.1615 20.5047 10.3816 20.6589 10.5798 20.0313C10.5193 17.7084 9.77063 16.2222 8.60917 16.1616C9.22568 16.9653 9.82018 17.7469 9.87522 18.8313C9.64617 18.7144 9.44521 18.5491 9.28623 18.3469C9.17614 18.2258 9.06605 18.1047 8.92843 18.0167L8.7633 17.8846C8.49907 17.6864 8.22935 17.4772 7.78348 17.6368C7.99265 17.9561 8.27889 18.1873 8.57063 18.4075C8.90091 18.6662 9.23119 18.9194 9.42935 19.3157C8.84586 19.7396 8.59265 20.2901 8.89541 20.9616C9.15963 21.5396 9.55045 22.0185 10.3211 22.0515C10.2881 21.7047 10.0624 21.4515 9.83669 21.2038C9.56146 20.9066 9.30274 20.6203 9.42385 20.18C9.59999 20.0974 9.76513 20.2185 9.91926 20.3286Z" fill="black"/>
<path d="M57.6 72.3031L-14.1633 72.1214C-14.1633 72.1214 -12.3303 60.5783 -8.86789 54.0168C-4.84955 46.382 0.688067 39.3746 13.1505 36.3856C13.6459 36.27 18.4404 38.8242 20.2183 39.7049C21.044 40.1122 24.4624 39.8645 24.4624 39.8645L30.5615 36.8425C30.5615 36.8425 37.7394 39.1544 41.3835 41.2077C46.0183 43.8113 51.2477 51.5012 53.6587 57.5012C56.2239 63.8755 57.6 72.3086 57.6 72.3086V72.3031Z" fill="white"/>
<path d="M20.5541 72.3029C20.5541 72.3029 20.455 65.29 20.5321 62.9561C20.6422 59.4001 21.6055 47.323 21.6055 47.323C21.6055 47.323 22.5303 47.5763 23.0092 47.4717C23.5773 47.2797 24.1373 47.0649 24.6881 46.8276C24.6881 46.8276 27.1321 52.69 27.6385 54.7377C28.4972 58.1946 29.4716 68.857 29.4716 68.857L29.6257 72.3029H20.5541Z" fill="black"/>
<path fill-rule="evenodd" clip-rule="evenodd" d="M56.2899 68.037C56.5927 69.4572 56.8954 70.8829 57.2532 72.303C57.5064 72.303 57.6991 72.303 57.8752 72.2535C57.5897 71.1546 57.3746 70.0385 57.2312 68.9122C57.1211 68.1911 57.011 67.47 56.8679 66.7654C56.5266 65.092 56.1413 63.4352 55.6569 61.8113C55.1064 59.9618 54.4789 58.1232 53.7138 56.3452C52.9639 54.4875 52.0771 52.6881 51.0605 50.9618C49.6225 48.6211 47.9773 46.4141 46.145 44.3673C44.0752 42.0608 41.444 40.5966 38.7303 39.3361C36.8551 38.4189 34.9183 37.6335 32.9339 36.9856C31.5248 36.5563 30.0716 36.303 28.5853 36.3141C28.255 36.3141 28.0734 36.5122 28.2826 36.7324C28.7339 37.2058 28.4147 37.3819 28.1009 37.5526C27.9331 37.6361 27.7696 37.7279 27.611 37.8278C27.109 38.1444 26.5826 38.4205 26.0367 38.6535C25.778 38.7526 25.5303 38.8847 25.2826 39.0223C24.8092 39.2865 24.3303 39.5508 23.7798 39.5397C23.3945 39.5342 23.0147 39.5397 22.6349 39.5563L21.8257 39.5728C21.4294 39.5728 21.0385 39.5067 20.6697 39.3636C19.9516 39.0761 19.2592 38.7281 18.6 38.3232C18.1156 38.048 17.6312 37.7673 17.1248 37.5306L16.4862 37.2388C15.4327 36.805 14.4273 36.2626 13.4862 35.6205C13.2 35.4113 12.9248 35.5214 12.6936 35.6645C11.8954 36.1599 11.0202 36.4682 10.1449 36.7764C9.37431 37.0517 8.60367 37.3214 7.88807 37.7122C6.38532 38.5379 4.82752 39.2755 3.27523 40.0131C0.385318 41.3728 -1.93762 43.4865 -4.03487 45.87C-5.19083 47.1801 -6.2367 48.5838 -7.17248 50.0645C-9.09977 53.1535 -10.652 56.4613 -11.7963 59.9177L-11.8624 60.1104C-12.2882 61.2991 -12.6556 62.5078 -12.9633 63.7324C-13.0514 64.1287 -13.156 64.5196 -13.255 64.9104C-13.4202 65.5599 -13.5853 66.204 -13.7174 66.859C-14.0642 68.67 -14.356 70.492 -14.6092 72.3085C-14.2624 72.3085 -13.9706 72.3085 -13.6679 72.248C-13.5963 71.7856 -13.5358 71.3342 -13.4752 70.8884C-13.3541 70.0131 -13.2385 69.1544 -13.0569 68.3122L-12.9138 67.6186C-12.5615 65.9342 -12.2147 64.2498 -11.6697 62.6095C-11.6147 62.4664 -11.5706 62.3177 -11.5211 62.1691C-10.9982 60.5948 -10.4752 59.015 -9.8367 57.4847C-9.19288 55.9569 -8.47459 54.4615 -7.68441 53.004C-6.11353 50.0335 -4.1306 47.3 -1.7945 44.8847C-0.0605545 43.1012 1.9211 41.637 4.16146 40.5636C4.28807 40.5085 4.42018 40.4315 4.54679 40.3599C5.05321 40.0792 5.59266 39.7764 6.19816 40.0131C7.43669 40.4865 8.67523 40.993 9.8477 41.6095C11.433 42.4352 12.9908 43.3104 14.5541 44.1856C15.0385 44.4608 15.5229 44.7361 16.0073 45.0003L16.0349 45.0168C17.1248 45.6223 17.1248 45.6223 17.8183 44.5985L17.8624 44.5819L17.8899 44.5709C18.4073 44.7911 18.8697 45.1214 19.3321 45.4407C19.5963 45.6223 19.855 45.804 20.1303 45.9691C21.2532 46.6572 21.3578 46.9324 20.9339 48.0939C20.6862 48.7709 20.4495 49.4535 20.2073 50.1306C19.8881 51.0333 19.5688 51.9361 19.2385 52.8278C18.355 55.1589 17.6196 57.5435 17.0367 59.9673C16.7505 61.1893 16.9927 61.6297 18.1211 62.2241C18.3853 62.3673 18.655 62.4994 18.9248 62.637L19.7945 63.0884C20.0862 63.2425 20.2514 63.4737 20.2183 63.8315C20.0147 66.0003 19.9431 68.1801 19.9321 70.3599C19.9321 70.7012 19.8936 71.0425 19.855 71.3838C19.8165 71.692 19.7835 72.0003 19.7725 72.303H20.5596C20.8789 69.2975 20.978 66.2865 21.0771 63.2645C21.1266 61.7508 21.2422 60.237 21.3523 58.7232C21.4239 57.859 21.4844 56.9893 21.5394 56.1251C21.5835 55.4645 21.5945 54.7985 21.6 54.1324C21.6165 53.1306 21.633 52.1342 21.7486 51.1379C21.8477 50.3508 21.9193 49.5581 21.9963 48.7434L22.1064 47.615C23.0422 48.0003 23.7798 47.6315 24.4954 47.1746C24.8917 47.5049 25.0569 47.9452 25.211 48.3746L25.3486 48.7214C26.0972 50.4939 26.5872 52.3544 27.055 54.2205C27.3083 55.2113 27.5505 56.2021 27.7266 57.215L27.7982 57.6443V57.6663C28.1284 59.5875 28.4587 61.5085 28.6899 63.4462C28.8936 65.2076 29.0092 66.9856 29.1303 68.7581L29.2569 70.7122C29.2734 70.8994 29.2734 71.0865 29.2789 71.2792C29.2844 71.5874 29.2954 71.9067 29.3394 72.2425C29.6092 72.303 29.8018 72.303 30.0165 72.2425C30.1706 68.626 29.7413 65.1196 29.2899 61.6131L29.1963 60.9196C29.1413 60.5232 29.0862 60.1324 29.0422 59.7361C28.9201 58.6447 28.74 57.5606 28.5028 56.4884C28.3927 56.004 28.255 55.5196 28.1119 55.0352C27.9468 54.4902 27.7927 53.9452 27.6771 53.3838C27.4734 52.3489 27.1266 51.3636 26.7798 50.3783C26.3833 49.185 25.8611 48.0373 25.222 46.9544C25.1229 46.7893 25.0238 46.5636 25.244 46.459C25.756 46.2388 26.1578 45.8645 26.5651 45.4902C26.9394 45.1489 27.3138 44.8021 27.7761 44.5599L27.8752 44.8076C27.9468 44.9728 28.0128 45.1379 28.0954 45.281C28.5688 46.1122 28.811 46.1618 29.5596 45.5728C30.011 45.226 30.4844 44.9122 30.9578 44.5985C31.4807 44.2572 32.0037 43.9159 32.4881 43.5251C33.1486 42.9911 33.8697 42.5397 34.5963 42.0939C35.4143 41.6166 36.1946 41.0774 36.9303 40.481C38.2514 39.3526 40.3431 40.8333 42.8642 42.6113L42.8972 42.6388C45.2862 44.3232 47.0807 46.6021 48.7321 48.9801C49.8795 50.6764 50.9059 52.4514 51.8037 54.292C52.7229 56.1196 53.5101 58.0076 54.1486 59.9452C55.0453 62.5912 55.7626 65.2945 56.2954 68.037H56.2899ZM16.9872 43.9819C16.8661 44.1966 16.756 44.3232 16.5027 44.2186C15.2532 43.6186 14.0587 42.9526 12.8697 42.281C10.9596 41.2021 9.07156 40.1397 7.01834 39.4407C7.01834 39.1654 7.15046 39.0994 7.26605 39.0443L7.28807 39.0388C8.00917 38.7085 8.70825 38.3287 9.38532 37.9104C9.76035 37.6654 10.1979 37.5336 10.6459 37.5306C11.7468 37.5306 12.8477 37.5141 13.8385 36.9251C14.1027 36.7764 14.367 36.8535 14.6367 37.0076L15.5064 37.5141C16.7174 38.2297 17.9394 38.9342 19.222 39.5177C19.4697 39.6278 19.7174 39.7709 19.8605 40.0407C18.7392 41.225 17.7736 42.5476 16.9872 43.9764V43.9819ZM31.0624 43.5636C31.9431 42.804 32.9339 42.1874 33.9138 41.5709C34.7945 41.0205 35.6752 40.47 36.4679 39.8205C36.3908 39.5893 36.2587 39.4902 36.1266 39.4021C36.1025 39.3842 36.0786 39.3658 36.055 39.3471C35.1358 38.6425 34.0734 38.2572 33 37.8719C32.6422 37.7397 32.2844 37.6131 31.9321 37.47C31.4257 37.2663 30.8092 37.0462 30.1761 37.3985L29.411 37.8278C28.3283 38.4838 27.1921 39.0472 26.0147 39.5122C25.6514 39.6443 25.6073 39.8205 25.8385 40.1397C26.0587 40.4425 26.2624 40.7508 26.4661 41.0645C26.7138 41.4278 26.956 41.7911 27.2147 42.1434C27.6661 42.7489 28.1339 43.3544 28.6018 43.9434L29.1963 44.703C29.8294 44.3287 30.4073 43.9819 31.0624 43.5691V43.5636ZM21.0495 40.7067C21.3523 40.4755 21.6826 40.3049 22.0844 40.3599C23.4275 40.1728 24.5064 40.47 25.4697 41.2462C26.1303 41.7801 26.1688 42.1599 25.6569 42.8425C25.5358 43.0076 25.4367 43.1838 25.3376 43.3599C25.1725 43.6682 25.0073 43.9654 24.7211 44.1856C23.7468 43.6572 22.778 43.5251 21.7872 44.103C21.4899 44.2792 21.2697 44.1856 21.044 43.9544C20.7434 43.6496 20.4387 43.3486 20.1303 43.0517L19.7009 42.6333C19.3761 42.3196 19.2771 42.0553 19.756 41.7526C20.0477 41.5599 20.3064 41.3342 20.5816 41.103C20.7303 40.9709 20.8899 40.8333 21.0495 40.7067ZM19.7119 62.1361C19.8771 62.2297 20.0587 62.3232 20.3284 62.3232L20.455 59.1471C20.5651 56.3728 20.6752 53.604 20.8844 50.8352C20.6257 51.3911 20.422 51.9636 20.2239 52.5306L19.9266 53.3452C19.0404 55.6737 18.3578 58.0682 17.7798 60.4847C17.6917 60.8425 17.7028 61.1452 18.055 61.3269C18.4899 61.5471 18.9248 61.7673 19.4587 62.0205C19.5468 62.048 19.6238 62.092 19.7119 62.1361ZM22.9321 44.4498C23.2331 44.3856 23.5466 44.4164 23.8294 44.5379C24.545 45.237 24.6385 45.7874 24.1927 46.2994C23.5816 47.015 22.6459 47.2297 22.0238 46.7948C21.5505 46.459 21.4734 45.9471 21.622 45.4737C21.8092 44.8682 22.3376 44.5654 22.9321 44.4498ZM20.6477 45.4131C21.2147 45.3416 20.9394 44.9342 20.8018 44.8021C20.3064 44.3177 19.7945 43.8608 19.2385 43.3709L18.6 42.804C18.567 43.0682 18.4404 43.2443 18.3248 43.4205C18.2466 43.5239 18.1784 43.6345 18.1211 43.7508L18.1321 43.7618C18.9578 44.3122 19.767 44.8407 20.6477 45.4131ZM25.8495 44.037L26.0697 43.7728L26.2183 43.5196C26.3615 43.2719 26.4826 43.0627 26.6807 42.9141C27.3688 43.5911 27.3688 43.8388 26.7083 44.3563C26.6422 44.4113 26.5761 44.4553 26.5046 44.5049C26.3505 44.6205 26.1908 44.7361 26.0587 44.8792C25.8605 45.0829 25.6679 45.2755 25.3596 45.3856C25.0679 45.1434 25.1009 44.9012 25.3431 44.6315C25.5193 44.4388 25.6844 44.2407 25.8495 44.037Z" fill="black"/>
<path d="M40.4807 13.4148C40.5853 15.9194 41.1413 18.1817 42.8862 20.0258C43.5963 20.7744 43.5082 21.1212 42.6771 21.7157C42.3303 21.9689 41.9284 22.0845 41.5541 22.2551C41.7193 23.3781 41.4275 23.6093 39.7211 23.7249C39.4734 24.2588 39.7376 24.7817 39.7871 25.3047C39.8972 26.5817 39.9468 27.8918 40.4642 29.0863C41.0087 30.3784 41.7806 31.5622 42.7431 32.5818C43.222 33.0772 43.0844 33.5561 42.3963 33.6717C41.6301 33.8359 40.8348 33.8037 40.0844 33.5781C40.5248 34.3487 40.3982 34.5359 39.5064 34.7506C37.7449 35.1744 36.666 34.2276 35.7082 32.9065C35.6917 33.3304 35.8183 33.6551 35.9504 33.9744C36.0936 34.3102 35.978 34.6129 35.6752 34.6405C34.5743 34.7616 33.4183 35.0808 32.4826 34.1561C32.279 33.9648 32.1188 33.7323 32.0124 33.4741C31.9061 33.2159 31.8562 32.9379 31.866 32.6588C31.8715 32.312 32.0147 32.1469 32.2789 31.9432C34.3541 30.3084 35.6367 28.2662 35.7633 25.5249C35.8734 23.1964 35.5706 20.9175 35.378 18.6111C35.2128 16.5579 35.1193 14.4992 35.5101 12.3964C35.8899 10.3818 35.6202 8.36156 34.3761 6.4845C33.2752 4.83312 31.8605 3.67716 30.2037 2.7579C29.2433 2.24998 28.1612 2.01756 27.0771 2.08634C26.1523 2.13037 25.4477 2.89 24.9358 3.64964C23.6862 5.50468 22.5303 7.42028 21.2862 9.28083C20.1138 11.0423 18.8972 12.7873 17.6697 14.5157C16.8211 15.7202 16.0204 16.9579 15.2697 18.2258C15.1982 18.3469 15.1596 18.5175 15.0495 18.5781C13.8275 19.3047 14.2238 20.4937 14.3339 21.4845C14.4605 22.6074 14.5486 23.7194 14.5706 24.8423C14.5816 25.4368 14.422 26.0148 13.9816 26.3671C13.1945 26.9946 13.1835 27.7432 13.3211 28.6295C13.5413 30.0331 13.6459 31.4753 12.7816 32.7139C11.8844 34.0074 10.6899 34.8937 8.97247 34.7175C8.32292 34.6515 8.18531 34.3818 8.46054 33.7817C8.66421 33.3414 9.06604 32.9726 9.07705 32.4551L8.87338 32.29C8.6532 32.5597 8.47705 32.8735 8.21283 33.0827C7.12293 33.9799 4.82201 33.9634 3.69907 33.0937C3.35228 32.8184 3.39081 32.4551 3.83669 32.2184C4.38714 31.9267 4.84953 31.5579 5.12476 30.9799C5.08072 30.9414 5.0532 30.8973 5.01467 30.8863C4.61283 30.8038 4.07889 30.8258 3.94678 30.3744C3.82017 29.934 4.27705 29.6863 4.5743 29.4386C6.24219 28.057 6.42935 26.246 6.10458 24.2808C5.85136 22.7726 4.95962 21.479 4.72843 19.9597C4.4532 18.1983 4.48072 16.5084 5.54311 14.9726C5.65871 14.8074 5.81283 14.6423 5.79082 14.3561C5.26967 14.1187 4.79013 13.7991 4.37063 13.4093C3.88623 12.9414 3.94678 12.6882 4.54127 12.4184C5.00366 12.1873 5.48806 12.0166 5.98898 11.89C6.26421 11.824 6.57797 11.7249 6.67705 11.268C5.44953 11.4001 4.27705 11.3781 3.1376 10.4863C4.31008 10.1285 5.22935 9.63863 6.10458 9.05514C8.07522 7.73404 9.67155 6.03312 11.0587 4.13955C12.6881 1.9212 14.1853 -0.407243 16.2605 -2.25678C17.8768 -3.75145 19.8063 -4.86663 21.9082 -5.521C24.0165 -6.15403 26.1743 -6.39073 28.2385 -5.59256C30.1761 -4.83844 32.2128 -4.13935 33.5615 -2.37788C33.8257 -2.02559 34.0789 -1.65678 34.2605 -1.26045C34.6671 -0.314565 35.3552 0.483091 36.2312 1.02395C38.0422 2.15239 39.5615 3.6001 40.1394 5.70285C40.5963 7.35423 40.8055 9.08817 40.6348 10.8331C40.5578 11.6698 40.4202 12.5065 40.4752 13.4203L40.4807 13.4148Z" fill="black"/>
<path d="M28.3376 29.615C28.1615 29.4609 28.0073 29.2627 27.8037 29.1692C26.8128 28.7013 26.0752 27.9747 25.3816 27.138C24.611 26.2187 23.8404 25.2444 22.6844 24.749C22.244 24.5563 21.7872 24.3196 21.3248 24.749C20.7523 25.2719 20.0697 25.7618 20.2239 26.6481C20.3615 27.4187 20.8294 28.0022 21.4679 28.5086C22.9266 29.6701 24.6605 29.9673 26.422 30.1985C27.0716 30.2866 27.8147 30.2811 28.3376 29.615Z" fill="white"/>
<path fill-rule="evenodd" clip-rule="evenodd" d="M25.3101 26.0864C24.9599 25.5703 24.5109 25.1288 23.989 24.7873C23.7578 24.5451 23.4826 24.4405 23.2183 24.347C23.1083 24.3029 22.9982 24.2644 22.8991 24.2149C21.6881 23.6479 20.2514 24.2534 19.7394 25.4974C19.5241 26.0559 19.494 26.6687 19.6536 27.2456C19.8132 27.8224 20.154 28.3327 20.6257 28.7011C21.7651 29.6754 23.1303 30.3525 24.5945 30.6662C25.844 30.9415 27.0716 31.0956 28.3321 30.6938C28.8165 30.5396 29.2128 30.3029 29.2734 29.7855C29.3339 29.3341 29.0807 28.9928 28.6789 28.7561C28.5963 28.7066 28.5193 28.646 28.4422 28.58C28.3596 28.5139 28.2771 28.4479 28.178 28.3928C27.1046 27.7763 26.0752 27.1268 25.3156 26.0809L25.3101 26.0864ZM28.1725 29.4607L28.3376 29.6149C27.8147 30.2809 27.0716 30.2864 26.4165 30.1983C24.6661 29.9671 22.9266 29.6699 21.4624 28.5084C20.8309 28.0654 20.3889 27.4014 20.2239 26.6479C20.0862 25.8607 20.6147 25.3763 21.1376 24.9194L21.3248 24.7543C21.7651 24.347 22.189 24.5341 22.6073 24.7158L22.6899 24.7488C23.7853 25.2222 24.5284 26.1139 25.255 26.9892L25.3761 27.1378C26.0248 27.9878 26.8539 28.6834 27.8037 29.1745C27.9413 29.2405 28.0569 29.3506 28.1725 29.4662V29.4607Z" fill="black"/>
<path d="M29.7303 19.2222C29.9449 20.1194 30.1376 20.9616 30.3468 21.7928C30.622 22.8717 30.4624 23.3561 29.4826 23.769C28.3816 24.2204 26.978 24.1543 26.2018 22.9158C26.0807 22.7231 26.0037 22.5525 26.0367 22.3323C26.0752 22.1561 26.1413 22.0185 26.3339 21.9855C26.5376 21.9525 26.6092 22.0681 26.6862 22.2387C27.2037 23.3231 27.9908 23.6259 29.0917 23.18C29.6477 22.9598 29.8238 22.5304 29.6422 21.991C29.251 20.795 29.0016 19.5571 28.8991 18.3029C28.8165 17.4882 28.6679 16.6405 29.2128 15.9194H29.433L29.7303 19.2222Z" fill="black"/>
<path d="M27.3303 22.5415C27.0165 22.0957 27.3303 21.9526 27.633 21.8645C27.8532 21.7984 28.0844 21.9195 28.0679 22.1727C28.0404 22.6131 27.7321 22.6571 27.3303 22.5415Z" fill="black"/>
<path d="M21.4184 17.6476C21.6936 16.987 21.9138 16.0292 22.745 16.4091C23.8844 16.9265 23.5101 18.099 23.2789 19.0182C23.1908 19.365 22.4807 19.8935 22.2716 19.8054C21.3743 19.4311 21.2147 18.6109 21.4184 17.6476ZM33.9083 19.6733C33.4349 20.0861 32.9725 20.0916 32.6862 19.5907C32.1908 18.71 32.2129 17.7852 32.8679 16.9925C33.0055 16.8274 33.6275 16.7944 33.7651 16.9375C34.5358 17.7632 34.5688 18.688 33.9083 19.6733Z" fill="black"/>
<path d="M35.6752 14.3669C37.0844 15.1485 37.2936 17.1742 36.8257 18.0935C36.3853 18.9412 35.7523 19.6623 35.0147 20.2898C34.4019 20.8577 33.6732 21.286 32.8789 21.5449C32.4936 21.655 32.1633 21.5504 31.8826 21.3632C30.8862 20.7027 30.055 19.8495 29.2679 18.9577C29.1028 18.7595 28.9761 18.5339 28.9046 18.2806C28.6679 17.499 28.0844 17.2238 27.3468 17.565C26.8483 17.7769 26.4219 18.1287 26.1193 18.5779C25.375 19.718 24.3618 20.6575 23.1688 21.3137C22.3872 21.7595 21.8752 21.666 21.1321 21.1155C20.4165 20.5816 19.7615 19.9706 19.1835 19.299C18.7211 18.7595 18.2587 18.2311 18.3193 17.455C18.3358 17.2017 18.1816 17.0696 17.9615 16.9981C17.8956 16.9761 17.8271 16.9632 17.7578 16.9595C16.5853 16.9045 15.4844 16.4641 14.3119 16.3926C13.4312 16.3375 12.611 15.9137 11.7523 15.699C11.5046 15.6329 11.2734 15.4898 11.0257 15.4458C10.6679 15.3797 10.5963 15.143 10.5303 14.8072C11.1752 14.7064 11.8353 14.7825 12.4404 15.0274C13.4477 15.4293 14.5321 15.4953 15.578 15.732C16.4312 15.9302 17.3119 16.0072 18.2037 16.288C18.4514 15.3247 18.8367 14.488 19.833 14.0861C20.9284 13.6458 21.6605 14.2623 22.4752 14.9118C23.3119 14.466 24.2037 13.9595 25.211 14.3724C26.2239 14.7797 26.4661 15.732 26.6532 16.7228C27.2917 16.7449 27.9083 16.5302 28.5248 16.6843C28.7394 16.299 28.767 15.8972 28.8716 15.5173C28.9487 15.1911 29.1047 14.8888 29.326 14.6369C29.5473 14.3851 29.827 14.1914 30.1406 14.0729C30.4542 13.9545 30.7921 13.9148 31.1246 13.9574C31.4571 14 31.7741 14.1236 32.0477 14.3173C32.5872 14.8128 33.0936 14.8458 33.7817 14.477C34.0655 14.3119 34.3838 14.2151 34.7114 14.194C35.0391 14.173 35.3671 14.2284 35.6697 14.3559L35.6752 14.3669Z" fill="black"/>
<path d="M21.7321 13.8664C22.255 13.2829 22.9321 12.9746 23.4716 12.4902C23.7248 12.2645 24 12.3306 24.2092 12.5783C24.4183 12.815 24.611 13.0352 24.3578 13.3765C23.7582 14.1306 22.9355 14.6758 22.0073 14.9343C21.2147 15.193 20.367 15.2756 19.5413 15.4297C19.2936 15.4792 18.9798 15.6113 18.9083 15.2315C18.8422 14.8682 19.0844 14.6811 19.4312 14.615C20.2128 14.4609 20.9945 14.3288 21.7321 13.8664ZM34.5633 13.7618C35.1853 13.8719 35.5541 14.3673 36.0936 14.5434C36.3027 14.6095 36.556 14.8022 36.4569 15.0664C36.3413 15.3856 36.0165 15.3031 35.7853 15.2315C35.0541 14.999 34.334 14.7327 33.6275 14.4333C32.9229 14.1251 32.2459 13.7508 31.5688 13.3875C31.2385 13.2113 30.9303 12.9581 31.1615 12.5508C31.3927 12.1489 31.767 12.0278 32.1688 12.3471C32.8844 12.9251 33.7431 13.2554 34.5688 13.7618H34.5633Z" fill="black"/>
</g>
</g>
<defs>
<clipPath id="clip0_844_4266">
<path d="M0 24C0 10.7452 10.7452 0 24 0C37.2548 0 48 10.7452 48 24C48 37.2548 37.2548 48 24 48C10.7452 48 0 37.2548 0 24Z" fill="white"/>
</clipPath>
</defs>
</svg>
