<svg width="48" height="48" viewBox="0 0 48 48" fill="none" xmlns="http://www.w3.org/2000/svg">
<g clip-path="url(#clip0_844_4124)">
<mask id="mask0_844_4124" style="mask-type:luminance" maskUnits="userSpaceOnUse" x="0" y="0" width="48" height="48">
<path d="M48 0H0V48H48V0Z" fill="white"/>
</mask>
<g mask="url(#mask0_844_4124)">
<path d="M35.7248 42.864C30.2642 59.2126 15.6991 64.2548 7.99817 43.9539C6.93578 41.1631 9.70459 40.1282 11.6422 38.8952C12.9688 38.053 13.6679 37.3264 13.5853 36.5722C13.2 33.0273 11.5541 23.1521 11.5541 23.1521L11.389 22.8328C11.389 22.8328 11.4275 22.7447 11.2679 22.8989C11.1028 23.064 10.7229 24.7814 9.23119 24.7814C7.88257 24.7814 6.52294 24.1814 5.8734 20.031C5.62569 18.5282 5.7578 14.5869 7.43119 13.8713C8.11927 13.5796 8.7523 13.475 9.36881 13.8273C9.99083 14.1796 8.65321 12.6163 15.5339 6.89151C20.0037 3.1594 27.0661 2.61445 29.9174 3.24748C32.7688 3.8805 35.6147 5.27316 36.8752 8.22913C38.4055 11.8071 35.4495 14.5209 36.1046 22.6787C35.9835 25.6291 36.1486 32.1025 28.0349 34.2713C26.4936 34.6842 26.9725 36.9356 29.2844 37.486C32.9725 38.642 35.7248 41.4658 35.7248 42.875" fill="white"/>
<path fill-rule="evenodd" clip-rule="evenodd" d="M35.7248 17.4602L35.7303 17.3831C35.956 15.3795 36.1817 13.4364 37.222 11.6914C37.5798 11.9336 37.5358 12.2419 37.4257 12.5281C36.3303 15.3465 36.4349 18.2749 36.534 21.2033L36.556 21.974C36.6716 25.629 35.7578 28.9538 33.3248 31.7446C32.4771 32.7134 31.3542 33.385 30.2147 33.963C29.0367 34.5685 28.789 35.0694 29.1578 36.363L29.2019 36.5061C29.2789 36.7208 29.356 36.9409 29.1468 37.1556C28.8991 37.4088 28.6239 37.3373 28.3321 37.2547L28.2991 37.2492C25.5699 36.485 23.0107 35.2092 20.7578 33.4896C20.4275 33.2474 20.1633 32.9226 19.9046 32.6033L19.8881 32.5813C19.7505 32.4162 19.723 32.152 19.9156 32.0088C20.0973 31.8712 20.2349 31.9813 20.3945 32.1079L20.4496 32.1575C21.6515 33.1327 23.1104 33.7388 24.6496 33.9024C25.3872 33.9795 26.1138 33.952 26.8514 33.9244C27.2587 33.9079 27.6661 33.8914 28.0789 33.8969C28.6404 33.8969 29.1083 33.6382 29.5486 33.3905L29.7028 33.3024C31.2331 32.4492 32.6918 31.4969 33.6771 29.9611C34.5633 28.585 35.1028 27.0877 35.4165 25.5079C35.8129 23.5208 35.7798 21.5061 35.7468 19.4639C35.7303 18.8033 35.7193 18.1318 35.7193 17.4602H35.7248ZM8.0147 13.3098C9.22021 13.2162 9.88626 13.9263 10.4532 14.7575C11.1252 15.773 11.5477 16.933 11.6863 18.1428C11.7138 18.3465 11.7413 18.5611 11.6202 18.7648C11.3725 18.7978 11.3505 18.5997 11.345 18.4565C11.3175 17.3171 10.811 16.3263 10.3046 15.3685C9.94131 14.6804 9.41287 14.0143 8.57617 13.8492C7.62938 13.6565 6.75966 14.5098 6.3303 15.6217C5.53213 17.6914 5.66975 19.7281 6.40736 21.7318C6.72663 22.607 7.12846 23.4987 7.93764 24.1098C8.75232 24.7318 9.73764 24.6217 10.3376 23.796L10.4477 23.6584C10.5578 23.5153 10.6679 23.3776 10.723 23.218C10.8386 22.8987 11.0202 22.6015 11.345 22.6455C11.7193 22.7006 11.7853 23.1024 11.8239 23.4162C12.1654 26.2998 12.5691 29.1757 13.0349 32.0419L13.3597 34.1776C13.5028 35.1189 13.6679 36.4731 13.5578 37.0455C13.5507 37.0857 13.5452 37.1261 13.5413 37.1666C13.5193 37.3208 13.5083 37.4419 13.3101 37.4694C13.0404 37.5134 12.9248 37.3593 12.8863 37.1171C12.7597 36.1813 12.7211 35.818 12.6661 34.3868C12.6165 32.9997 12.3578 31.6345 12.0936 30.2639L11.8184 28.7776C11.5321 27.0822 11.2514 25.3648 11.2239 23.4382L11.1138 23.6033C10.6954 24.2254 10.3597 24.7318 9.76516 24.9244C9.32386 25.0935 8.84024 25.118 8.38412 24.9943C7.92801 24.8706 7.52299 24.6052 7.22755 24.2364C6.45188 23.3603 5.90699 22.3046 5.64223 21.1648C5.17984 19.2932 5.09727 17.4712 5.69177 15.6272C5.978 14.7409 6.99635 13.1666 8.0147 13.3153V13.3098ZM9.91929 20.3281C10.1615 20.5043 10.3817 20.6584 10.5798 20.0309C10.5193 17.7079 9.77067 16.2217 8.6092 16.1611C9.22571 16.9648 9.82021 17.7465 9.87525 18.8309C9.6462 18.7139 9.44525 18.5486 9.28626 18.3465C9.17617 18.2254 9.06608 18.1042 8.92846 18.0162L8.76333 17.8841C8.49911 17.6859 8.22938 17.4767 7.78351 17.6364C7.99268 17.9556 8.27892 18.1868 8.57067 18.407C8.90094 18.6657 9.23122 18.9189 9.42938 19.3153C8.84589 19.7391 8.59268 20.2896 8.89544 20.9611C9.15966 21.5391 9.55048 22.018 10.3211 22.051C10.2881 21.7043 10.0624 21.451 9.83672 21.2033C9.56149 20.9061 9.30278 20.6198 9.42388 20.1795C9.60002 20.0969 9.76516 20.218 9.91929 20.3281Z" fill="black"/>
<path d="M56.8954 72.11H-9.62204L-9.14864 68.6256C-9.14864 68.6256 -13.4202 67.1724 -13.8441 66.3302C-14.2734 65.488 -9.2147 54.5393 -8.52112 52.8109C-7.82204 51.0769 -4.28259 44.9503 -2.18534 43.7834C0.148603 42.4733 7.81649 38.9999 8.25686 38.6476C9.69356 37.4916 12.8092 36.2916 12.8092 36.2916V37.9815L22.244 53.4494L22.811 55.5302C22.811 55.5302 28.5137 40.0733 29.0477 36.9357C29.4991 34.2935 35.6422 37.4971 35.6422 37.4971C35.6422 37.4971 41.9229 41.3834 43.5137 42.6329C46.7284 45.176 51.2202 50.2623 53.4605 55.7999C54.7376 58.9375 57.4514 65.0586 57.8972 65.7797C58.3431 66.4953 56.411 67.7613 56.411 67.7613L56.8954 72.1155V72.11Z" fill="white"/>
<path fill-rule="evenodd" clip-rule="evenodd" d="M43.2936 42.9906C41.967 41.8952 40.6349 40.7998 39.1651 39.9521C38.945 39.831 38.7358 39.6989 38.5211 39.5668C37.7945 39.1374 37.0679 38.697 36.2422 38.4328C36.1431 38.9943 36.1651 39.5337 36.2147 40.0622C36.4789 42.6462 36.4807 45.2503 36.2202 47.8347C36.1431 48.4677 36.1596 49.1172 36.1761 49.7613L36.1872 50.4383C36.1872 50.8126 36.1321 51.187 36.0385 51.5392C35.9064 52.0457 35.6697 52.2714 35.1578 52.3099C34.7009 52.3429 34.244 52.4145 33.7927 52.486C33.0621 52.6281 32.3183 52.6908 31.5743 52.6732C31.4202 52.6622 31.2661 52.6677 31.1725 52.6732H31.1009L31.2936 52.9154C31.4697 53.1356 31.6789 53.3943 31.8661 53.664C32.1688 54.0879 32.2349 54.4567 31.9486 55.0347C30.5174 57.9191 28.5908 60.3906 26.5211 62.6475C25.8605 63.3686 25.233 64.1447 24.611 64.9154C23.5816 66.198 22.5523 67.4805 21.3193 68.5374C20.6972 69.0714 20.1358 69.6824 19.5688 70.2989C19.0205 70.9199 18.438 71.5098 17.8238 72.0658C17.0917 72.1044 16.3816 72.1044 15.611 72.1044C15.9633 71.3998 16.2495 70.6457 16.5358 69.8915C16.7844 69.213 17.0599 68.5446 17.3615 67.8879C17.8992 66.7266 18.3895 65.544 18.8312 64.3429C19.1615 63.4622 19.178 62.5704 18.6 61.7668L17.9725 60.886C16.8495 59.3172 15.7211 57.7484 14.4385 56.3337C13.855 55.6952 13.7229 54.6824 14.0917 53.7466C14.1853 53.5154 14.2679 53.2787 14.356 53.0365L14.4716 52.7172C13.7009 52.387 12.9303 52.3704 12.1541 52.3484C11.7853 52.3484 11.422 52.3374 11.0642 52.2934L10.9872 52.2824C9.79816 52.1503 9.77614 52.1448 9.35779 50.8402C8.44917 48.0355 7.86554 45.1358 7.61834 42.198C7.57055 41.3769 7.38638 40.5695 7.07339 39.809C5.81834 40.3209 4.61835 40.8989 3.42385 41.4769L3.3688 41.4989C2.00917 42.1594 0.660545 42.8695 -0.677069 43.5961C-2.65872 44.686 -4.20551 46.3374 -5.46606 48.3631L-5.49358 48.4071C-6.41285 49.8824 -7.32661 51.3576 -8.04771 52.9759L-9.3578 55.8934L-10.0899 57.5062L-10.6679 58.7778C-11.1743 59.8897 -11.6807 60.9961 -12.1541 62.1191C-12.5623 63.067 -12.9368 64.0291 -13.2771 65.0035C-13.4973 65.6475 -13.2826 65.9392 -12.8202 66.1044L-11.9945 66.4347C-11.2305 66.775 -10.4311 67.0298 -9.61101 67.1943C-8.5101 67.3704 -7.51927 67.8273 -6.52845 68.2842L-6.45689 68.3172L-6.37982 68.3503C-4.71193 69.1209 -3.07707 69.9631 -1.4367 70.8108C-0.74086 71.1868 -0.0681019 71.6041 0.577977 72.0603C0.0495367 72.1044 -0.478904 72.1154 -1.00734 72.0769C-2.44059 71.2866 -3.92884 70.6004 -5.46056 70.0236C-6.52845 69.5943 -7.59633 69.1649 -8.65322 68.6475C-8.72987 69.0454 -8.81428 69.4418 -8.90643 69.8365C-9.08257 70.6236 -9.24771 71.3503 -9.26973 72.1099H-9.96331C-10.0844 71.7136 -9.99634 71.3392 -9.91377 70.9649L-9.84771 70.6622C-9.73762 70.0402 -9.78166 69.5778 -10.4752 69.4457C-11.4936 69.242 -12.3468 68.631 -13.2055 68.02C-13.2971 67.9555 -13.3888 67.8913 -13.4807 67.8273C-14.1413 67.3594 -14.3505 66.3851 -14.0973 65.2402C-13.811 63.9466 -13.3046 62.7631 -12.7927 61.5796L-12.7211 61.4145C-11.8239 59.3227 -10.8936 57.2585 -9.9578 55.1943L-9.22019 53.5539C-7.80551 50.4108 -6.16514 47.3888 -3.85322 44.9447C-2.69725 43.7227 -1.37615 42.8035 0.0935736 42.0934C0.522932 41.8897 0.95229 41.675 1.38165 41.4603C2.48256 40.9099 3.58348 40.3594 4.71192 39.9081C5.77431 39.4897 6.25321 38.9723 6.71559 38.4603C7.211 37.9264 7.69541 37.398 8.84036 37.0181L9.6055 36.7539C10.5303 36.4236 11.455 36.1044 12.4349 36.0108H12.4899C12.5615 36.0053 12.633 35.9998 12.6771 35.9558L12.6936 35.9392C12.9138 35.7191 13.1505 35.4989 13.4092 35.8512C13.5205 36.0027 13.585 36.1836 13.5948 36.3714C13.6046 36.5592 13.5592 36.7457 13.4642 36.9081C13.0789 37.5025 13.2881 38.064 13.4807 38.5814L13.4972 38.631C13.9596 39.842 16.811 44.6585 17.8294 46.0402L18.1596 46.475C19.3156 48.0163 22.145 51.7814 22.9982 54.3851C23.3394 53.7191 23.5816 53.009 23.8183 52.3099L24.1046 51.4842C24.6734 49.9047 25.2093 48.3135 25.7119 46.7117C25.9156 46.0787 26.0972 45.4457 26.2734 44.8016C26.422 44.2842 26.5651 43.7668 26.7248 43.2603C26.9615 42.4787 27.2092 41.7081 27.4569 40.9374L27.9523 39.3851L28.2771 38.3282L28.6349 37.1447C29.0917 35.7246 29.2073 35.4659 30.5064 35.5099C32.1138 35.5649 34.0073 36.1319 35.1083 36.5943C40.3927 38.8181 48.7872 44.3337 52.7064 52.5686C53.8841 55.1056 54.9764 57.6814 55.9817 60.2915C56.945 62.7136 57.6991 64.6181 58.3266 65.5209C58.855 66.2915 58.7945 66.7319 58.1064 67.2879C58.0177 67.3602 57.9314 67.4354 57.8477 67.5136C57.6275 67.7172 57.4073 67.9209 57.1211 68.009C56.8128 68.1025 56.7193 68.3668 56.7633 68.7246C56.8944 69.8315 57.0137 70.9398 57.1211 72.0493C56.8954 72.1044 56.6807 72.1044 56.389 72.0548C56.1688 71.5484 56.1798 71.064 56.1908 70.5961V70.5411C56.2183 69.6879 55.9982 68.9062 55.767 68.086L55.6018 67.486C55.4202 67.5631 55.2385 67.6347 55.0514 67.7007C54.6661 67.8438 54.2972 67.9814 53.9505 68.1851C52.6567 68.9689 51.2436 69.536 49.767 69.864C48.6165 70.1062 48.0881 70.8053 48.2477 72.1099C47.9725 72.1154 47.6917 72.0934 47.4165 72.0438C47.3064 69.7484 48.6936 69.2035 50.4881 68.4989L51.1321 68.2402C53.7413 67.1668 57.0771 65.642 57.0771 65.642C57.0771 65.642 53.7138 57.7209 52.5303 54.7319C50.2183 48.864 44.4055 43.9044 44.2128 43.7503L43.2936 42.9961V42.9906ZM25.9431 48.5668C25.0693 51.171 24.1221 53.75 23.1027 56.3007C22.3321 58.2603 21.4954 60.187 20.6587 62.1081L20.5761 62.3062C20.2734 62.9888 19.9927 63.6824 19.7119 64.3704C19.2991 65.3723 18.8862 66.3796 18.4349 67.3594C18.0661 68.1521 17.7468 68.9723 17.4275 69.798L16.9872 70.9209L16.9596 70.9869C16.8936 71.1356 16.8275 71.2842 16.9816 71.4273C17.0972 71.5374 17.2239 71.4548 17.3229 71.3723C17.455 71.2622 17.5872 71.1466 17.7083 71.02L18.4239 70.2769L19.4367 69.231L20.5101 68.1521C21.0936 67.5686 21.6771 66.9906 22.2495 66.3906C22.6624 65.9613 23.0202 65.4714 23.378 64.9814C23.7633 64.4585 24.1486 63.9356 24.589 63.4952C25.7665 62.3363 26.8488 61.0845 27.8257 59.7521C28.167 59.2842 28.5248 58.8273 28.8826 58.3704C29.6697 57.3521 30.4569 56.3337 31.0899 55.1723C31.3761 54.6493 31.4422 54.286 30.9578 53.8622C30.589 53.5319 30.2807 53.1136 29.978 52.7062L29.9394 52.6512L29.9174 52.6236C29.7523 52.3925 29.5541 52.1282 29.7413 51.7594C30.1486 51.7044 30.5615 51.6879 30.9743 51.6934C32.1303 51.6934 33.2862 51.6493 34.4422 51.6053L34.6459 51.5998C35.0422 51.5833 35.3009 51.3576 35.3174 50.8622C35.3428 50.2288 35.3759 49.5957 35.4165 48.9631L35.4991 47.587C35.5982 46.0181 35.6972 44.4493 35.6367 42.8805C35.5816 41.5429 35.5596 40.1998 35.6312 38.8622C35.6697 38.2016 35.4495 37.8934 34.9872 37.6016C33.6881 36.787 32.2624 36.5943 30.8367 36.3961L30.1982 36.3081C29.8349 36.253 29.7138 36.4952 29.6202 36.7925C29.5321 37.0787 29.4275 37.3649 29.3284 37.6512C29.1743 38.075 29.0202 38.5044 28.9101 38.9503C28.7284 39.6879 28.4697 40.3925 28.211 41.097C28.0569 41.5154 27.9027 41.9392 27.7651 42.3631C27.5119 43.1558 27.2862 43.9594 27.0605 44.7741C26.7358 45.9301 26.411 47.1136 25.9816 48.2915C25.9771 48.3843 25.9642 48.4764 25.9431 48.5668ZM12.6936 39.0989L12.7211 39.1649C13.6294 41.1906 18.0165 47.7851 19.7615 50.2016L20.0092 50.5429C20.9174 51.7704 22.5578 53.9943 22.1009 55.8053C21.6639 57.6275 21.0366 59.3986 20.2294 61.0897C20.1798 61.1943 20.1468 61.3099 20.1083 61.4255C20.0574 61.6708 19.937 61.8963 19.7615 62.075C19.0459 60.864 18.2037 59.7631 17.3615 58.6677C16.9816 58.1723 16.6018 57.6769 16.233 57.1704C15.9688 56.8071 15.6716 56.4769 15.3798 56.1411C15.1321 55.8659 14.8844 55.5906 14.6587 55.2934C14.378 54.9301 14.4055 54.6934 14.5816 54.3961C14.7743 54.0714 14.8954 53.7136 15.022 53.3558L15.1211 53.0585C15.3798 52.3429 15.2037 51.9686 14.5266 51.7539C14.0587 51.6108 13.5798 51.6053 13.1009 51.6053C12.7927 51.6053 12.4844 51.6053 12.1816 51.5613C12.1486 51.5613 12.1101 51.5613 12.0716 51.5723L11.9945 51.5833C10.4642 51.6108 10.3321 51.4732 9.8422 49.8879C9.16234 47.6878 8.705 45.4251 8.47706 43.1337C8.42201 42.6493 8.33394 42.1759 8.24587 41.7025C8.1633 41.2842 8.08073 40.8714 8.03119 40.4475C7.9211 39.5778 8.05871 39.264 8.7633 38.9613C9.56697 38.6145 9.81467 38.2622 10.0404 37.9429C10.2936 37.5851 10.5193 37.2659 11.4605 37.0292H11.4716C12.2037 36.842 12.2532 36.8255 12.2862 37.7117C12.3027 38.2236 12.5064 38.675 12.6936 39.0934V39.0989Z" fill="black"/>
<path d="M41.6697 6.16501C42.0511 7.01494 42.2514 7.93492 42.2581 8.86646C42.2647 9.79801 42.0775 10.7207 41.7082 11.576C41.0091 13.2054 40.3156 14.8402 39.6936 16.5026C38.9559 18.4623 39.2697 20.3338 40.244 22.1723C41.4 24.3467 42.7101 26.4549 43.4477 28.8384C44.1633 31.1779 44.455 33.5448 43.4752 35.8402C42.6385 37.8164 41.6257 39.721 39.5669 40.7834C37.9743 41.6137 36.1292 41.8198 34.3926 41.3613C32.411 40.8935 30.9633 39.6384 29.5156 38.3338C28.678 37.5591 27.8074 36.8209 26.9064 36.121C26.2128 35.5925 25.7835 34.8659 25.233 34.2329C25.1449 34.1338 25.1284 34.0182 25.2055 33.9136C25.277 33.8035 25.3871 33.8146 25.5137 33.8421C28.3816 34.5577 30.2642 33.0714 31.9101 31.0017C33.6 28.8769 34.6183 26.4329 35.3229 23.8512C36.1839 20.8052 36.5336 17.6374 36.3578 14.4769C36.2477 12.8366 36.0055 11.1907 35.5651 9.57785C35.0917 7.87143 34.4752 6.26409 33.4624 4.80538C33.1101 4.30996 32.6532 3.91914 32.2569 3.3962C31.3024 4.41398 30.2391 5.32401 29.0862 6.10996C26.7814 7.73057 24.2808 9.053 21.644 10.0457C19.2991 10.965 16.8 11.2402 14.422 11.9944C13.6076 12.2449 12.9177 12.7933 12.4899 13.5301C11.7288 14.785 11.4564 16.2762 11.7247 17.7191C11.7798 18.0054 11.8844 18.3522 11.4936 18.4017C11.1358 18.4457 11.2073 18.0604 11.1413 17.8237C10.877 16.8604 10.6899 15.8751 10.3156 14.9393C9.89722 13.8934 8.56511 13.1008 7.61832 13.398C7.32885 13.4998 7.06713 13.6677 6.85402 13.8885C6.64091 14.1092 6.48229 14.3767 6.3908 14.6696C5.77067 16.2387 5.55121 17.9375 5.75227 19.6127C5.90089 20.7522 6.52842 21.6329 7.16695 22.5191C8.03667 23.7412 8.59814 23.8953 10.0183 23.4824C10.4862 23.3393 10.7009 23.0256 10.9156 22.6568C11.0036 22.4971 11.1137 22.3045 11.3339 22.3485C11.5486 22.3815 11.7192 22.5467 11.7743 22.7613C12.2147 24.765 12.8917 26.7136 12.9578 28.7999C13.0514 31.8604 10.3706 34.6513 7.48071 34.7008C5.6642 34.7338 3.90273 34.4806 2.12475 34.2054C0.894216 34.0193 -0.360219 34.0641 -1.57434 34.3375C-2.88993 34.6292 -4.16149 34.976 -5.24039 35.8292C-5.53214 36.0604 -5.76883 35.9448 -5.967 35.6091C-7.05691 33.7705 -8.08076 31.91 -8.64223 29.8292C-9.35782 27.1485 -9.6881 24.4953 -8.92296 21.732C-8.62021 20.6311 -8.36149 19.5301 -7.85507 18.5063C-6.9303 16.6347 -5.70828 15.0164 -3.96883 13.8274C-2.04223 12.5063 -0.104612 11.2072 1.82199 9.89162C3.41832 8.80721 4.62933 7.35951 5.67521 5.76318C7.57429 2.86776 9.73759 0.203541 12.4844 -1.91572C14.3945 -3.40196 16.4752 -4.63499 18.8477 -5.20747C20.5321 -5.62582 22.2825 -5.70288 24 -5.43316C25.2991 -5.23499 26.5596 -4.97077 27.7046 -4.31572C28.3871 -3.9249 29.0917 -3.53958 29.6862 -3.03316C30.3569 -2.50456 31.1231 -2.11021 31.9431 -1.87169C34.1449 -1.13958 36.1651 -0.104715 37.9651 1.354C39.5614 2.64758 40.9376 4.12831 41.6697 6.1595V6.16501Z" fill="black"/>
<path d="M28.844 29.5044C29.1082 28.7227 29.0642 28.6126 28.3046 28.475C27.7431 28.3759 27.2422 28.1282 26.7082 27.9576C26.1082 27.7649 25.7174 27.1979 25.0844 27.0493C24.7541 28.6897 26.9394 30.1594 28.8385 29.5099L28.844 29.5044Z" fill="white"/>
<path fill-rule="evenodd" clip-rule="evenodd" d="M24.9137 29.2619C25.3939 29.7405 25.9822 30.0963 26.6289 30.2994C27.2757 30.5026 27.9618 30.547 28.6293 30.4289L28.9816 30.2913C29.2458 30.1867 29.488 30.0986 29.7082 29.972C29.9945 29.8069 30.2202 29.4656 29.9724 29.2124C29.422 28.6454 29.6972 28.3207 30.1926 27.9904C30.4128 27.8473 30.5449 27.6491 30.4293 27.4014C30.2807 27.0711 29.989 27.1922 29.7688 27.2913C29.4629 27.4084 29.1385 27.4699 28.811 27.473C27.4458 27.6271 26.3394 26.9775 25.244 26.3445L25.211 26.328C24.5614 25.9427 24.1651 26.0748 24.0825 26.8344C24.0168 27.276 24.058 27.727 24.2026 28.1494C24.3472 28.5718 24.5911 28.9533 24.9137 29.2619ZM28.3046 28.4748C29.0697 28.6124 29.1082 28.7225 28.8385 29.5097C26.9394 30.1592 24.7541 28.684 25.0844 27.0491C25.4146 27.1317 25.6899 27.3243 25.9541 27.5225C26.1799 27.7093 26.4346 27.858 26.7082 27.9629C26.8899 28.0179 27.066 28.084 27.2422 28.15C27.589 28.2821 27.9302 28.4142 28.3046 28.4803V28.4748Z" fill="black"/>
<path d="M23.2293 25.9814C23.6807 26.1851 23.6532 26.4934 23.4605 26.8071C23.3174 27.0548 23.1027 27.2035 22.8165 27.0273C22.5523 26.8622 22.6128 26.6365 22.7615 26.4218C22.8826 26.2567 22.9266 26.02 23.2293 25.9814Z" fill="black"/>
<path d="M29.8183 17.3063C29.5882 18.7755 29.65 20.2757 30 21.721C30.2587 22.954 29.1633 24.7155 27.4238 24.4568C26.8183 24.3687 26.4605 24.0109 26.2513 23.4769C26.1578 23.2402 26.1688 22.9925 26.433 22.8714C26.6532 22.7779 26.8403 22.8604 26.9504 23.0916C27.2146 23.6476 27.688 23.6091 28.1559 23.4714C28.6844 23.3118 29.0587 22.943 29.0972 22.376C29.1358 21.8201 29.1082 21.2586 29.0091 20.7026C28.6941 19.048 28.8623 17.3376 29.4935 15.776C29.6146 15.4623 29.7908 15.176 30.1486 15.3191C30.5614 15.4843 30.2477 15.8036 30.1871 16.0403C30.0935 16.4476 29.9559 16.8494 29.8183 17.3063Z" fill="black"/>
<path d="M32.0037 20.1742C32.7193 20.1907 33.4018 20.2348 34.0734 20.3118C34.2385 20.3338 34.3486 20.4935 34.3486 20.6806C34.3486 20.8623 34.255 20.9889 34.0899 21.0659C33.4734 21.3302 32.8789 21.5173 32.2349 21.077C31.8771 20.8292 31.7394 20.5981 32.0037 20.1742ZM23.2073 19.8714C23.5927 19.8714 23.6367 20.0806 23.5927 20.3393C23.4826 20.9008 22.4917 21.5724 21.9193 21.4678C21.5945 21.4127 21.3413 21.2476 21.3303 20.8898C21.3193 20.521 21.5945 20.4384 21.8972 20.4274C22.3927 20.4109 22.767 20.1412 23.2073 19.877V19.8714ZM21.4183 17.6476C21.6936 16.987 21.9138 16.0292 22.745 16.4091C23.8844 16.9265 23.5101 18.099 23.2789 19.0182C23.1908 19.365 22.4807 19.8935 22.2716 19.8054C21.3743 19.4311 21.2147 18.6109 21.4183 17.6476ZM33.9083 19.6733C33.4349 20.0861 32.9725 20.0916 32.6862 19.5907C32.1908 18.71 32.2128 17.7852 32.8679 16.9925C33.0055 16.8274 33.6275 16.7944 33.7651 16.9375C34.5358 17.7632 34.5688 18.688 33.9083 19.6733Z" fill="black"/>
<path d="M24.2256 14.5208C23.7468 13.8548 22.8385 13.6401 22.0899 13.8327C21.4293 14.0089 20.8954 14.4383 20.2403 14.6254C20.0201 14.686 19.8275 14.774 19.7064 14.5098C19.6018 14.2951 19.6238 14.1025 19.8275 13.9428C20.8623 13.1557 22.7779 12.4621 24.1596 13.2327C24.4958 13.4394 24.7786 13.7223 24.9853 14.0584C25.1669 14.3172 25.233 14.697 24.9853 14.8896C24.6605 15.1428 24.4348 14.8236 24.2256 14.5208ZM34.4587 14.8511C33.9247 14.4933 33.4183 14.4493 32.9174 14.8071C32.7412 14.9337 32.5486 15.0713 32.3669 14.8511C32.1853 14.6254 32.2348 14.3777 32.4385 14.1575C32.7468 13.8217 33.1651 13.7667 33.5834 13.7172C34.0698 13.6709 34.5547 13.8184 34.9329 14.1276C35.3112 14.4368 35.5522 14.8827 35.6036 15.3685C35.6146 15.6052 35.6036 15.8694 35.3174 15.9355C35.0587 15.9905 34.8605 15.8419 34.7559 15.6107C34.6513 15.3795 34.5798 15.1318 34.4587 14.8511ZM29.1523 13.8162C29.4385 13.4529 29.5926 12.9905 29.9504 12.6823C30.088 12.5667 30.1926 12.3795 30.4183 12.5061C30.622 12.6217 30.6385 12.8309 30.5834 13.0016C30.4128 13.475 30.2146 13.9428 29.9945 14.3997C29.8844 14.6199 29.6091 14.7025 29.389 14.6309C29.0256 14.5208 29.1137 14.1961 29.1468 13.8658V13.8107L29.1523 13.8162Z" fill="black"/>
<path d="M29.1577 13.8052C29.0476 14.0364 28.9596 14.2731 28.844 14.4988C28.7559 14.6694 28.6128 14.8181 28.4036 14.752C28.1504 14.6749 28.1284 14.4603 28.1834 14.2401C28.2495 14.0144 28.321 13.7997 28.4036 13.5795C28.5137 13.3208 28.4862 12.897 28.9155 12.9575C29.3779 13.0291 29.1577 13.4199 29.1577 13.7502V13.8052Z" fill="black"/>
<path d="M51.3853 72.3797L44.3119 72.4898C44.3119 72.4898 44.6972 70.2109 44.9504 69.4072C45.4899 67.6788 44.1578 67.5962 43.9376 66.4348C43.7174 65.2623 44.0697 65.0256 44.1798 64.3816C44.2899 63.732 43.7504 63.7981 43.3871 63.4348C43.0238 63.066 43.255 62.9944 43.4312 62.3724C43.6073 61.7504 42.2752 62.0586 41.5761 61.0513C40.877 60.0494 41.1578 59.0696 41.1578 59.0696C41.1578 59.0696 40.3651 58.9375 40.4972 58.1228C40.6293 57.3082 40.9376 56.2513 41.9284 55.7173C42.9192 55.1889 48.4679 54.5063 48.4679 54.5063C48.4679 54.5063 48.0275 49.7118 47.989 48.688C47.9559 47.6696 48.3192 45.0329 49.1945 44.9118C50.0642 44.7852 50.5266 48.0054 50.7688 49.4586C51.011 50.9173 52.6183 55.5687 52.7945 56.9779C52.9706 58.3871 52.5082 62.6421 52.4642 63.3632C52.4202 64.0953 51.4954 65.8348 51.1431 66.8916C50.7908 67.9485 51.3853 72.3797 51.3853 72.3797Z" fill="white"/>
<path d="M44.1137 72.4952C44.0587 71.5319 44.389 70.6237 44.5431 69.6769C44.6587 68.9338 44.6917 68.3448 44.1302 67.6842C43.7936 67.2994 43.5843 66.8197 43.5311 66.3112C43.4779 65.8026 43.5833 65.2901 43.833 64.8439C44.0422 64.4365 43.9871 64.1998 43.5853 64.0017C42.5725 63.4952 42.4954 63.187 43.0954 62.1631C41.5486 61.7998 40.9816 61.1173 40.9046 59.5595C40.8991 59.4218 40.9156 59.2292 40.8385 59.1576C39.5339 58.0127 40.6624 57.1044 41.1578 56.1741C41.5266 55.4861 42.1926 55.2108 42.9908 55.0732C44.4495 54.831 45.8862 54.5062 47.3779 54.5558C47.7633 54.5668 47.9009 54.3686 47.9669 54.0053C48.1211 53.1191 47.989 52.2218 47.9119 51.3466C47.8073 50.0916 47.6202 48.5778 47.7468 47.3007C47.8348 46.4971 49.0679 44.5484 49.277 44.5429C49.7559 44.5264 50.0036 44.7246 50.0477 45.2365C50.0752 45.5833 50.444 47.8457 50.6036 48.4842C51.0991 50.4439 51.9413 52.3374 52.6128 54.9961C54.1981 61.2384 52.5358 63.8145 51.6275 67.0402C51.0825 68.9668 51.9468 72.5007 51.9468 72.5007C51.9468 72.5007 51.2752 72.5007 50.8844 72.4457C50.7413 71.0145 50.6422 69.6439 50.5706 68.2732C50.5266 67.464 50.488 66.6659 50.9394 65.9062C51.4018 65.1246 51.8587 64.3099 52.0128 63.4017C52.3431 61.5576 52.5688 59.6971 52.4642 57.809C52.4422 57.3411 52.3101 56.9062 52.2055 56.4549C52.0238 55.6567 51.655 54.9301 51.3908 54.176C51.044 53.2127 51.1486 52.1778 50.7578 51.242C50.6036 50.8732 50.5486 50.4824 50.4715 50.0916C50.1413 48.4842 49.7504 46.8879 49.3706 45.2365C49.1691 45.3443 48.9989 45.5023 48.8765 45.6951C48.754 45.888 48.6834 46.1093 48.6715 46.3374C48.6165 47.2072 48.4128 48.0604 48.4899 48.9301C48.622 50.5264 48.6495 52.1338 48.8752 53.7246C48.9137 54.0549 48.9963 54.3191 49.2935 54.4842C49.4917 54.5943 49.6293 54.7595 49.5523 55.0017C49.4642 55.2769 49.222 55.2273 49.0238 55.1723C48.8036 55.1173 48.611 55.1778 48.4018 55.1778C47.0807 55.1888 45.8146 55.5466 44.5046 55.6732C43.1119 55.7998 41.7688 56.1686 41.2569 57.765C41.1963 57.9576 40.9871 58.1613 41.1908 58.3264C41.3669 58.475 41.5541 58.6457 41.8789 58.5191C43.9706 57.7209 46.1614 57.6108 48.3688 57.6659C48.6715 57.6824 48.9743 57.7595 49.2495 57.8971C49.4312 57.9906 49.5798 58.0952 49.5137 58.3209C49.4587 58.5136 49.2825 58.5246 49.1064 58.5026C47.7413 58.3539 46.4036 58.6072 45.055 58.7448C44.1523 58.8328 43.2385 58.8769 42.3853 59.2402C42.0385 59.3943 41.7523 59.5705 41.6972 59.9613C41.6422 60.3631 41.7963 60.6879 42.1101 60.9521C42.3688 61.1723 42.6605 61.1778 42.9743 61.1778H49.1669C49.4477 61.1778 49.7284 61.1998 50.0091 61.2328C50.1468 61.2439 50.2844 61.3264 50.2954 61.4916C50.3174 61.6457 50.2238 61.7503 50.1082 61.8439C49.9431 61.965 49.7559 61.9595 49.5688 61.9815C48.3082 62.1301 47.0422 62.0695 45.7761 62.0695C44.9229 62.0695 44.1798 62.3117 43.5743 63.0328C44.4 63.4457 45.1651 63.8916 45.9688 64.2163C46.7835 64.5411 47.7633 64.0512 48.622 64.6017C47.6862 65.4439 46.4422 65.4384 44.6036 64.6292C44.4936 65.631 44.1413 66.6108 45.066 67.4365C45.3963 67.7283 45.5064 68.1136 45.5229 68.565C45.5724 69.9191 45.1211 71.1906 44.9009 72.5007H44.1137V72.4952Z" fill="black"/>
</g>
</g>
<defs>
<clipPath id="clip0_844_4124">
<path d="M0 24C0 10.7452 10.7452 0 24 0C37.2548 0 48 10.7452 48 24C48 37.2548 37.2548 48 24 48C10.7452 48 0 37.2548 0 24Z" fill="white"/>
</clipPath>
</defs>
</svg>
