<svg width="48" height="48" viewBox="0 0 48 48" fill="none" xmlns="http://www.w3.org/2000/svg">
<g clip-path="url(#clip0_844_4193)">
<mask id="mask0_844_4193" style="mask-type:luminance" maskUnits="userSpaceOnUse" x="0" y="0" width="48" height="48">
<path d="M48 0H0V48H48V0Z" fill="white"/>
</mask>
<g mask="url(#mask0_844_4193)">
<path d="M35.7247 42.864C30.2642 59.2126 15.699 64.2548 7.99811 43.9539C6.93572 41.1631 9.70453 40.1282 11.6421 38.8952C12.9687 38.053 13.6678 37.3264 13.5853 36.5722C13.1999 33.0273 11.5541 23.1521 11.5541 23.1521L11.3889 22.8328C11.3889 22.8328 11.4275 22.7447 11.2678 22.8989C11.1027 23.064 10.7229 24.7814 9.23113 24.7814C7.88251 24.7814 6.52288 24.1814 5.87334 20.031C5.62563 18.5282 5.75774 14.5869 7.43113 13.8713C8.11921 13.5796 8.75223 13.475 9.36875 13.8273C9.99077 14.1796 8.65315 12.6163 15.5339 6.89151C20.0036 3.1594 27.066 2.61445 29.9174 3.24748C32.7687 3.8805 35.6146 5.27316 36.8752 8.22913C38.4054 11.8071 35.4495 14.5209 36.1045 22.6787C35.9834 25.6291 36.1486 32.1025 28.0348 34.2713C26.4935 34.6842 26.9724 36.9356 29.2843 37.486C32.9724 38.642 35.7247 41.4658 35.7247 42.875" fill="white"/>
<path fill-rule="evenodd" clip-rule="evenodd" d="M35.7247 17.4602L35.7302 17.3831C35.9559 15.3795 36.1816 13.4364 37.222 11.6914C37.5798 11.9336 37.5357 12.2419 37.4257 12.5281C36.3302 15.3465 36.4348 18.2749 36.5339 21.2033L36.5559 21.974C36.6715 25.629 35.7578 28.9538 33.3247 31.7446C32.477 32.7134 31.3541 33.385 30.2146 33.963C29.0367 34.5685 28.789 35.0694 29.1578 36.363L29.2018 36.5061C29.2789 36.7208 29.3559 36.9409 29.1468 37.1556C28.899 37.4088 28.6238 37.3373 28.3321 37.2547L28.299 37.2492C25.5698 36.485 23.0107 35.2092 20.7578 33.4896C20.4275 33.2474 20.1633 32.9226 19.9045 32.6033L19.888 32.5813C19.7504 32.4162 19.7229 32.152 19.9156 32.0088C20.0972 31.8712 20.2348 31.9813 20.3945 32.1079L20.4495 32.1575C21.6515 33.1327 23.1103 33.7388 24.6495 33.9024C25.3871 33.9795 26.1137 33.952 26.8513 33.9244C27.2587 33.9079 27.666 33.8914 28.0789 33.8969C28.6403 33.8969 29.1082 33.6382 29.5486 33.3905L29.7027 33.3024C31.233 32.4492 32.6917 31.4969 33.677 29.9611C34.5633 28.585 35.1027 27.0877 35.4165 25.5079C35.8128 23.5208 35.7798 21.5061 35.7468 19.4639C35.7302 18.8033 35.7192 18.1318 35.7192 17.4602H35.7247ZM8.01464 13.3098C9.22015 13.2162 9.8862 13.9263 10.4532 14.7575C11.1251 15.773 11.5476 16.933 11.6862 18.1428C11.7137 18.3465 11.7412 18.5611 11.6201 18.7648C11.3724 18.7978 11.3504 18.5997 11.3449 18.4565C11.3174 17.3171 10.811 16.3263 10.3045 15.3685C9.94125 14.6804 9.41281 14.0143 8.57611 13.8492C7.62932 13.6565 6.7596 14.5098 6.33024 15.6217C5.53207 17.6914 5.66969 19.7281 6.4073 21.7318C6.72657 22.607 7.1284 23.4987 7.93758 24.1098C8.75226 24.7318 9.73758 24.6217 10.3376 23.796L10.4477 23.6584C10.5578 23.5153 10.6679 23.3776 10.7229 23.218C10.8385 22.8987 11.0201 22.6015 11.3449 22.6455C11.7192 22.7006 11.7853 23.1024 11.8238 23.4162C12.1653 26.2998 12.5691 29.1757 13.0348 32.0419L13.3596 34.1776C13.5027 35.1189 13.6679 36.4731 13.5578 37.0455C13.5507 37.0857 13.5451 37.1261 13.5412 37.1666C13.5192 37.3208 13.5082 37.4419 13.3101 37.4694C13.0403 37.5134 12.9247 37.3593 12.8862 37.1171C12.7596 36.1813 12.7211 35.818 12.666 34.3868C12.6165 32.9997 12.3578 31.6345 12.0935 30.2639L11.8183 28.7776C11.5321 27.0822 11.2513 25.3648 11.2238 23.4382L11.1137 23.6033C10.6954 24.2254 10.3596 24.7318 9.7651 24.9244C9.3238 25.0935 8.84018 25.118 8.38406 24.9943C7.92794 24.8706 7.52293 24.6052 7.22749 24.2364C6.45182 23.3603 5.90693 22.3046 5.64216 21.1648C5.17978 19.2932 5.09721 17.4712 5.69171 15.6272C5.97794 14.7409 6.99629 13.1666 8.01464 13.3153V13.3098ZM9.91923 20.3281C10.1614 20.5043 10.3816 20.6584 10.5798 20.0309C10.5192 17.7079 9.7706 16.2217 8.60914 16.1611C9.22565 16.9648 9.82015 17.7465 9.87519 18.8309C9.64614 18.7139 9.44518 18.5486 9.2862 18.3465C9.17611 18.2254 9.06602 18.1042 8.9284 18.0162L8.76326 17.8841C8.49904 17.6859 8.22932 17.4767 7.78345 17.6364C7.99262 17.9556 8.27886 18.1868 8.5706 18.407C8.90088 18.6657 9.23115 18.9189 9.42932 19.3153C8.84583 19.7391 8.59262 20.2896 8.89537 20.9611C9.1596 21.5391 9.55042 22.018 10.3211 22.051C10.288 21.7043 10.0623 21.451 9.83666 21.2033C9.56143 20.9061 9.30271 20.6198 9.42382 20.1795C9.59996 20.0969 9.7651 20.218 9.91923 20.3281Z" fill="black"/>
<path d="M58.1945 72.7925L-13.833 72.842C-13.833 72.842 -9.82016 57.4126 -8.75227 55.6402C-7.67888 53.8732 -3.3798 47.9117 -3.42934 46.8989C-3.47888 45.886 -3.34677 42.286 -2.62016 40.8659C-1.89356 39.4347 0.418367 37.4915 1.32112 37.3429C2.22387 37.2053 5.26791 37.0677 7.16699 36.5888C9.06607 36.1154 10.822 35.5264 12.7541 35.5264C13.0679 35.5264 12.7652 36.2145 12.7652 36.2145C12.7652 36.2145 12.8642 42.9466 21.8367 43.3704C28.5248 43.6842 30.7376 36.8971 30.7376 36.8971C30.7376 36.8971 29.2679 35.587 29.7138 35.5539C34.9762 35.1026 37.734 36.2805 39.3303 36.5888C40.8055 36.875 42.0386 36.875 43.5138 37.9209C45.2037 39.1154 46.0734 41.8292 47.967 45.9851C50.1303 50.7521 58.6514 65.2127 58.1945 72.8255" fill="white"/>
<path fill-rule="evenodd" clip-rule="evenodd" d="M41.0367 72.9628C40.9926 72.0271 40.9761 71.0913 40.9541 70.161C40.9101 68.1188 40.866 66.0711 40.6018 64.0234C40.3596 62.1518 40.0789 60.2803 39.7761 58.4142C39.2469 55.355 38.6301 52.3115 37.9266 49.2876C37.6954 48.2472 37.2935 47.2289 36.8642 46.2436C36.5504 45.528 36.2917 44.7904 36.0275 44.0527C35.7247 43.2105 35.422 42.3683 35.0477 41.5537C34.9816 41.4105 34.899 41.2784 34.8165 41.1463C34.6513 40.8986 34.4862 40.6344 34.4036 40.2436C31.789 45.3849 27.7761 48.0491 22.1174 48.0766C16.5468 48.0986 12.4293 45.5335 9.42382 40.9041C8.95042 41.2894 8.73574 41.8399 8.54308 42.3353L8.46602 42.517C7.44216 45.0436 6.48437 47.5812 6.18161 50.3445C6.01097 51.9408 5.76326 53.5371 5.52106 55.1225L5.42198 55.75C5.04216 58.2381 4.70638 60.7427 4.53024 63.2583C4.29354 66.4509 4.04583 69.6436 3.79262 72.9023C3.53391 72.9628 3.2917 72.9628 2.98895 72.9628C3.15914 71.5966 3.25469 70.2221 3.27519 68.8454C3.36327 66.1096 3.67703 63.3959 3.99079 60.6876L4.23849 58.4583C4.40363 56.917 4.62382 55.3757 4.8495 53.8454C5.06969 52.3316 5.28987 50.8179 5.45501 49.2931C5.72473 46.8711 6.66051 44.6032 7.65684 42.3794L7.70088 42.2693C8.27336 40.9867 8.84583 39.6986 9.7651 38.6087C10.4752 37.7665 11.2789 37.0179 12.2312 36.4619C12.9963 36.016 13.244 36.1096 13.5027 36.9573C14.0312 38.6913 14.9504 40.1775 16.4367 41.1904C18.7926 42.7867 21.3357 43.5133 24.2146 42.6711C26.2238 42.0821 27.8807 41.0693 29.0752 39.3573C29.5376 38.6968 29.9559 37.9812 30.0935 37.1555C29.7537 37.043 29.4194 36.9144 29.0917 36.7702V36.7647C28.9266 36.6876 28.7229 36.5995 28.811 36.3518C28.877 36.1647 29.0312 36.0271 29.2403 36.0601C31.0623 36.3078 32.7908 36.7041 33.9963 38.3225C35.1009 39.8231 35.9799 41.4774 36.6055 43.2326L37.0183 44.3555C37.7119 46.2105 38.4 48.0656 38.9119 49.9812C39.1101 50.7408 39.2642 51.506 39.4128 52.2766L39.611 53.2619L39.8972 54.5665C40.1174 55.5683 40.3376 56.5647 40.4972 57.5775C40.6073 58.2711 40.7174 58.9647 40.8385 59.6582C41.1688 61.6289 41.5101 63.605 41.5981 65.6142C41.6422 66.605 41.7082 67.5959 41.7853 68.5867C41.8458 69.4124 41.9064 70.2436 41.9504 71.0803C41.9724 71.5316 41.9284 71.9885 41.8789 72.4564L41.8348 72.9298C41.5706 72.9628 41.3009 72.9793 41.0312 72.9683L41.0367 72.9628ZM30.8477 37.706C30.4073 38.7243 29.9779 39.7427 29.2348 40.5904C27.3467 42.7427 24.9027 43.728 22.1119 43.8105C20.2403 43.8656 18.3963 43.4803 16.7724 42.4344C15.2036 41.4216 13.855 40.194 13.1945 38.361L13.1284 38.1518C13.0183 37.8326 12.9082 37.5023 12.655 37.2711C11.9284 37.4362 11.7357 37.8931 11.8513 38.5371L11.9009 38.8564C11.9284 39.0766 11.9559 39.2968 12.033 39.5005C12.7211 41.4491 14.0697 42.8803 15.7926 43.9261C17.1468 44.7518 18.622 45.2913 20.2403 45.4949C23.5596 45.9078 26.6532 45.4674 29.3945 43.4142C30.2076 42.839 30.8899 42.0982 31.3965 41.2406C31.9031 40.383 32.2226 39.4279 32.3339 38.4381C32.4275 37.6124 31.9376 37.2271 30.9743 37.4087L30.8477 37.706ZM10.9651 38.5757C12.066 43.0894 15.2036 45.2583 19.4257 46.205C21.5724 46.7445 23.6091 46.6564 25.6513 46.1225C27.9247 45.5335 29.9229 44.5096 31.4201 42.6546C32.3339 41.5096 33.011 40.2491 33.033 38.7133C33.8587 39.1427 33.9412 39.4399 33.3908 40.4748C32.2105 42.7694 30.3545 44.6466 28.0734 45.8527C25.5192 47.1738 22.7669 47.5261 19.8935 47.0913C16.9101 46.6454 14.4605 45.2362 12.3137 43.216C11.5726 42.4634 10.9223 41.6265 10.3761 40.7225L10.0018 40.1555C9.85317 39.9353 9.94675 39.7592 10.0954 39.5885C10.3843 39.2482 10.6742 38.9088 10.9651 38.5702V38.5757Z" fill="black"/>
<path fill-rule="evenodd" clip-rule="evenodd" d="M-2.36698 72.963C-2.11377 72.1152 -2.02019 71.24 -1.92661 70.3593C-1.88258 69.9189 -1.83304 69.4786 -1.76698 69.0382L-1.61836 68.0474C-1.4257 66.7153 -1.23304 65.3831 -0.935788 64.062L-0.666063 62.9281C-0.495421 62.196 -0.319274 61.4639 -0.187163 60.7208C0.03302 59.4547 0.407331 58.2162 0.935772 57.0382C1.73209 55.2729 2.14843 53.36 2.15779 51.4235C2.1899 50.4561 2.27628 49.4913 2.41651 48.5336C2.51008 47.818 2.59816 47.1024 2.64219 46.3868C2.73027 45.0272 2.66421 43.6896 2.58715 42.2253C2.37797 42.3905 2.1743 42.5556 1.98164 42.7208C1.58438 43.0516 1.18064 43.3746 0.770634 43.6896C-1.59634 45.473 -3.43487 47.7189 -5.00918 50.185C-5.60664 51.1602 -6.15413 52.1652 -6.64955 53.196C-6.85872 53.6088 -7.06239 54.0217 -7.27707 54.429C-8.12221 56.1103 -8.86306 57.842 -9.49542 59.6143C-9.60551 59.9336 -9.73212 60.2474 -9.84771 60.5611C-10.833 63.1483 -11.8184 65.7464 -12.2037 68.5097C-12.3138 69.3024 -12.534 70.062 -12.7486 70.8272C-12.9413 71.5097 -13.134 72.1923 -13.2606 72.9134C-13.5633 72.9685 -13.8551 72.9685 -14.2018 72.9685L-14.0477 72.429C-13.5853 70.8052 -13.1119 69.1758 -12.8752 67.4749C-12.7596 66.6162 -12.5119 65.7685 -12.2642 64.9318L-12.0991 64.3538C-11.8514 63.5006 -11.5321 62.6749 -11.2184 61.8492C-10.9431 61.1336 -10.6679 60.418 -10.4367 59.6749C-10.167 58.8052 -9.80368 57.9575 -9.44588 57.1152C-9.30827 56.8015 -9.17065 56.4932 -9.04404 56.1795C-8.13028 53.9611 -6.98533 51.8529 -5.79634 49.7776L-5.77982 49.7501C-5.37249 49.04 -4.95414 48.3134 -4.34863 47.7299C-3.86973 47.273 -3.84221 46.6841 -3.81469 46.0951C-3.80639 45.7229 -3.76214 45.3523 -3.68258 44.9886C-3.40735 43.2437 -3.12661 41.4877 -2.24037 39.9354C-1.3156 38.3171 0.21467 37.4198 1.99816 36.985C3.29724 36.6657 4.61834 36.4675 5.95045 36.3795C6.50091 36.3519 7.04036 36.1758 7.57981 35.9997C7.86605 35.9061 8.15779 35.8125 8.44953 35.7409C8.72476 35.6749 8.99999 35.5978 9.27522 35.5208C10.3376 35.24 11.389 34.9538 12.4954 35.0088H12.5505C12.7706 35.0198 13.0073 35.0253 13.0459 35.3116C13.0789 35.5923 12.8807 35.6308 12.6826 35.6694L12.5725 35.6914L10.2605 36.2363C8.80733 36.5776 7.35962 36.9244 5.8899 37.2437C5.25687 37.3813 4.59632 37.4198 3.94128 37.4639L3.45687 37.4969C2.98348 37.5299 2.53761 37.5905 2.14678 37.8437C3.56697 38.7299 4.40366 39.9244 4.38164 41.6308C4.36513 42.6382 4.40917 43.64 4.4477 44.6474C4.50274 45.974 4.55779 47.3006 4.48073 48.6272C4.38715 50.3611 4.19449 52.073 3.93577 53.7905C3.78715 54.7868 3.67706 55.7941 3.56146 56.796C3.45137 57.7428 3.34128 58.6896 3.20917 59.6308C3.07155 60.5666 2.98348 61.5134 2.8899 62.4547C2.80733 63.3244 2.72476 64.1942 2.60366 65.0639C2.46054 66.0822 2.36146 67.1006 2.25687 68.1244C2.1688 69.0052 2.08073 69.8969 1.96513 70.7776C1.93761 70.9978 1.9266 71.229 1.91008 71.4547C1.88256 71.9336 1.85504 72.418 1.6899 72.9134C1.37614 72.9685 1.06238 72.9685 0.754121 72.9134C1.18353 71.0826 1.49063 69.2253 1.67339 67.3538L1.6954 67.1446C1.8055 66.2364 1.88256 65.3281 1.96513 64.4143C2.09174 62.9281 2.22384 61.4419 2.47706 59.9666C2.56951 59.3737 2.6338 58.7767 2.66972 58.1776C2.73027 57.4015 2.79082 56.6253 2.97247 55.8602C3.38542 53.9406 3.62491 51.9878 3.68806 50.0253C3.84219 47.1464 3.88073 44.2565 3.70458 41.3831C3.64953 40.4639 3.45137 39.5391 2.63118 38.796C2.71926 39.0712 2.81284 39.3299 2.90641 39.5831C3.11008 40.1226 3.30274 40.629 3.34678 41.1519C3.46775 42.6662 3.50817 44.1857 3.46788 45.7042C3.44036 47.4767 3.2477 49.2382 3.04953 50.9997L2.85687 52.8217C2.65871 54.8253 2.37797 56.807 2.09174 58.7886L1.72293 61.4363C1.61283 62.2345 1.53577 63.0382 1.4477 63.8419C1.35412 64.8052 1.25504 65.7685 1.11192 66.7263C1.02385 67.3318 0.9688 67.9483 0.913754 68.5593C0.820176 69.5776 0.732102 70.596 0.473387 71.5923C0.462378 71.6584 0.440359 71.7299 0.418341 71.796C0.313754 72.1703 0.198157 72.5666 0.390818 72.9685C0.083396 72.9758 -0.224102 72.9574 -0.528449 72.9134C-0.484412 72.4841 -0.418356 72.0712 -0.352302 71.6639C-0.297256 71.3061 -0.236706 70.9483 -0.198174 70.585C-0.121109 69.8308 -0.0330362 69.0822 0.0495329 68.3336L0.324762 65.851C0.4899 64.2547 0.699075 62.6639 0.913754 61.073L1.18898 59.0364C1.07889 59.4877 0.94678 59.9281 0.814671 60.363C0.622009 60.996 0.42935 61.6235 0.330267 62.2675C0.187148 63.1923 -8.58307e-06 64.1006 -0.198174 65.0198C-0.44588 66.2033 -0.693586 67.3868 -0.836705 68.5978L-1.00735 69.8474C-1.18663 70.8784 -1.28418 71.922 -1.29909 72.9685H-2.36698V72.963ZM0.952285 42.451C1.28201 42.087 1.66199 41.7719 2.08072 41.5152C2.44953 41.3061 2.55412 40.9648 2.42201 40.618C2.35596 40.4529 2.33394 40.2602 2.30641 40.073C2.24586 39.6437 2.18531 39.2088 1.66788 38.9886C1.39265 38.8675 1.12843 38.9721 0.935772 39.1097C0.566734 39.3575 0.242797 39.6665 -0.0220261 40.0235C-0.968815 41.4547 -1.49175 43.062 -1.98716 44.8841C-1.38166 44.2786 -0.765146 43.8107 -0.154137 43.3373C0.220176 43.051 0.588983 42.7648 0.952285 42.4565V42.451ZM-1.11744 40.2492C-1.65689 41.5483 -2.20184 42.8363 -2.32845 44.2675C-2.36047 44.89 -2.57913 45.4885 -2.95597 45.985L-2.7523 44.9941C-2.37799 43.1556 -2.00368 41.3116 -0.891751 39.7097L-1.11193 40.2492H-1.11744ZM56.0642 64.9703C56.9339 67.5575 57.3908 70.2547 57.8037 72.963C58.1064 72.963 58.3541 72.963 58.6073 72.9079C58.3871 70.7391 57.9083 68.6859 57.4294 66.6327L57.4183 66.5997C57.1982 65.6308 56.8789 64.6896 56.5596 63.7483L56.2844 62.9226C55.5793 60.6766 54.7786 58.4617 53.8844 56.2841C53.3812 55.1553 52.8209 54.053 52.2055 52.9813C51.9468 52.5134 51.7101 52.0455 51.4734 51.5666C50.9314 50.4051 50.269 49.3037 49.4972 48.2804C49.178 47.873 48.8477 47.4602 48.6991 46.9978C48.0621 45.0972 47.3793 43.2123 46.6514 41.3446C46.2606 40.2413 45.6481 39.2296 44.8514 38.3721C43.7284 37.2162 42.2092 36.8033 40.7174 36.4455C39.4514 36.1483 38.1798 35.8951 36.9082 35.6474L34.6789 35.196C32.7992 34.8047 30.8719 34.6934 28.9596 34.8657C28.6569 34.8932 28.4092 34.9648 28.2991 35.4492C29.1027 35.5428 29.9064 35.5593 30.7046 35.5813C32.0367 35.6198 33.3688 35.6529 34.6899 36.0162C36.0771 36.3905 37.4972 36.6932 38.9505 37.0015C39.6385 37.1446 40.3266 37.2877 41.0367 37.4474C40.5303 37.9813 40.5138 38.5152 40.4972 39.0437L40.4917 39.2914C40.4477 40.062 40.5688 40.8162 40.6844 41.5703C40.767 42.0877 40.8495 42.6052 40.8771 43.1226C41.0092 45.5886 41.4055 48.0217 41.8018 50.4437L41.8734 50.9061C42.066 52.0786 42.2037 53.2565 42.3413 54.429C42.4679 55.4749 42.589 56.5263 42.7541 57.5666C43.0128 59.273 43.1064 61.0015 43.2 62.7244C43.2661 63.8969 43.3321 65.0694 43.4477 66.2419C43.5578 67.3978 43.6459 68.5593 43.7284 69.7263C43.8055 70.8052 43.8826 71.8841 43.9871 72.963H44.6367C44.6037 70.2602 44.4055 67.5685 44.2018 64.8712C44.1027 63.4841 43.9982 62.1024 43.9156 60.7208C43.8343 59.5674 43.7057 58.4178 43.5303 57.2749C43.4422 56.6804 43.3651 56.0914 43.2881 55.5024C43.0844 53.7575 42.8092 52.0235 42.5339 50.2896C42.2972 48.7923 42.0605 47.3006 41.8734 45.7978C41.7743 45.0712 41.6532 44.3556 41.5431 43.6345C41.2899 42.1373 41.0477 40.6455 41.0257 39.1208C41.0202 38.5152 41.2128 38.0363 41.7138 37.6345C40.9101 39.2914 41.2624 40.8932 41.6147 42.4786C41.7082 42.9024 41.7963 43.3152 41.8679 43.7336C41.9339 44.1024 42.0055 44.4657 42.0881 44.8345C42.2367 45.5666 42.3908 46.3042 42.4294 47.0474C42.4624 47.6639 42.5835 48.2584 42.6936 48.8474C42.7761 49.2602 42.8587 49.673 42.9138 50.0969C43.0459 51.1813 43.222 52.2602 43.3982 53.3446C43.6734 55.029 43.9486 56.7134 44.0697 58.4253C44.1688 59.8841 44.455 61.3373 44.7303 62.774L44.7688 62.9942C44.9064 63.6987 44.9339 64.4143 44.956 65.1079L44.9615 65.2235C45.0096 66.2402 45.0867 67.2553 45.1927 68.2675C45.3138 69.5886 45.4404 70.9042 45.4404 72.2308L45.4238 72.473C45.4183 72.6052 45.4073 72.7483 45.4183 72.9134C45.6245 72.9573 45.8352 72.9757 46.0459 72.9685C46.1945 70.4749 46.0238 67.9923 45.8037 65.3721C46.5743 67.574 46.9596 69.7428 47.3449 71.9446L47.5101 72.9024C47.8073 72.9575 48.1156 72.9685 48.4183 72.9189C48.1982 72.4345 48.1651 71.9336 48.1321 71.4437C48.1046 71.1354 48.0826 70.8327 48.022 70.5354L47.8349 69.7318C47.4055 67.8052 46.9761 65.8786 46.1835 64.0345L46.0128 63.6547C45.7782 63.2236 45.6234 62.7537 45.556 62.2675C45.4954 61.4419 45.3303 60.6327 45.1706 59.8345L45.033 59.1575C44.8498 58.1359 44.7066 57.1076 44.6037 56.0749C44.4826 55.0235 44.3615 53.9666 44.1578 52.9208C43.9541 51.8859 43.7725 50.8455 43.6018 49.8052C43.3266 48.1813 43.0514 46.5575 42.666 44.9446L42.556 44.4822C42.371 43.8179 42.2476 43.138 42.1871 42.451C42.2752 42.4896 42.3578 42.5116 42.4294 42.5391C42.5615 42.5831 42.6605 42.6162 42.7431 42.6767L42.7982 42.7208C44.5156 44.0419 46.244 45.374 47.5927 47.0969C48.7875 48.583 49.8208 50.1921 50.6752 51.8969C50.9945 52.5574 51.3358 53.218 51.666 53.873C52.4114 55.2726 53.0929 56.7053 53.7082 58.1666C54.3578 59.7575 54.8862 61.3868 55.4147 63.0107C55.6238 63.6712 55.8385 64.3208 56.0587 64.9703H56.0642ZM42.655 41.6969C42.3193 41.5042 42.0826 41.2455 42.0275 40.8492C41.8145 40.2609 41.7594 39.6269 41.8679 39.0107C41.989 38.1685 42.567 37.9318 43.3266 38.2951C44.422 38.807 44.9009 39.8088 45.3688 40.7831C45.4238 40.8822 45.4679 40.9868 45.5174 41.0859C45.9688 42.0162 46.3431 42.985 46.7394 44.0143L47.2899 45.4455L46.6624 44.851C45.7161 43.9142 44.6963 43.0545 43.6128 42.2804C43.3046 42.0712 42.9798 41.8841 42.655 41.6969Z" fill="black"/>
<path d="M7.76145 4.365C10.5027 -1.04601 24.6165 -6.08271 23.4771 -6.95243C23.4605 -7.23867 23.6422 -7.3928 23.8789 -7.45885C26.3559 -8.16344 28.866 -8.75243 31.4642 -8.62583C33.9688 -8.50473 35.8789 -7.33775 37.0018 -5.08087C37.6238 -3.83133 38.0697 -2.48821 37.9926 -1.04601C37.9635 -0.792667 38.0033 -0.536145 38.108 -0.303588C38.2126 -0.0710306 38.3782 0.128914 38.5871 0.27509C40.3871 1.69527 40.5688 5.16316 38.8899 6.70445C38.6312 6.94114 38.8514 7.22738 38.9449 7.58518C39.1651 8.46592 38.6147 9.27509 38.1358 9.99619C37.6624 10.7118 37.6238 11.5925 37.1339 12.3411C37.0624 9.84757 37.4642 7.29344 36.2147 4.85491C35.1305 6.30982 33.6203 7.39106 31.8936 7.94848C29.5893 8.7562 27.1105 8.93109 24.7156 8.45491C23.0642 8.14665 21.3743 8.02004 19.6954 7.92096C18.74 7.83631 17.7775 7.95816 16.8734 8.27823C15.9692 8.5983 15.1444 9.10912 14.455 9.77601C13.6002 10.5935 13.1018 11.7148 13.0679 12.8971C12.9578 14.6035 12.8257 16.31 12.9578 18.0164C12.9853 18.4512 12.9137 18.9246 12.3798 19.0017C11.9504 19.0567 11.6092 18.8366 11.3339 18.4622C10.8605 17.8017 10.9376 16.954 10.5027 16.2604C10.1685 15.6853 9.71425 15.1889 9.1709 14.8052C8.62756 14.4214 8.0079 14.1593 7.35412 14.0366C7.15595 13.998 6.99632 14.0916 6.82017 14.1632C6.22567 14.4164 6.00549 14.2292 5.9009 13.5742C5.66421 12.0164 5.02567 9.77601 7.76696 4.365H7.76145Z" fill="black"/>
<path d="M28.877 29.2293C28.3046 28.5467 27.7431 27.9633 26.7908 28.0899C26.7552 28.0961 26.7188 28.095 26.6837 28.0866C26.6485 28.0782 26.6155 28.0627 26.5866 28.041C26.5578 28.0193 26.5336 27.992 26.5157 27.9606C26.4978 27.9293 26.4865 27.8946 26.4826 27.8587C26.455 27.7045 26.5431 27.6 26.6587 27.5009C27.0881 27.1266 27.8697 27.1266 28.5633 27.5174C29.1688 27.8477 29.5926 28.6018 29.4936 29.1357C29.4 29.6091 29.1743 29.5045 28.877 29.2293Z" fill="black"/>
<path d="M26.0037 22.9538C26.3009 22.4749 27.2477 22.2823 27.7706 22.552C28.1339 22.7391 28.4862 22.9703 28.8716 22.6456C29.2293 22.3373 29.1248 21.974 28.9541 21.6162C28.866 21.4401 28.9101 21.3024 29.0752 21.2034C29.2404 21.0988 29.378 21.1428 29.5266 21.2474C29.712 21.3762 29.8535 21.5586 29.9322 21.7701C30.0109 21.9817 30.023 22.2122 29.967 22.4309C29.8789 22.8327 29.7578 23.3116 29.2679 23.4768C29.0477 23.5538 28.7835 23.6694 28.5908 23.6089C27.7431 23.3501 26.7303 23.796 26.0037 22.9483V22.9538Z" fill="black"/>
<path d="M32.0037 20.1742C32.7193 20.1907 33.4018 20.2348 34.0734 20.3118C34.2385 20.3338 34.3486 20.4935 34.3486 20.6806C34.3486 20.8623 34.255 20.9889 34.0899 21.0659C33.4734 21.3302 32.8789 21.5173 32.2349 21.077C31.8771 20.8292 31.7394 20.5981 32.0037 20.1742ZM23.2073 19.8714C23.5927 19.8714 23.6367 20.0806 23.5927 20.3393C23.4826 20.9008 22.4917 21.5724 21.9193 21.4678C21.5945 21.4127 21.3413 21.2476 21.3303 20.8898C21.3193 20.521 21.5945 20.4384 21.8972 20.4274C22.3927 20.4109 22.767 20.1412 23.2073 19.877V19.8714ZM21.4183 17.6476C21.6936 16.987 21.9138 16.0292 22.745 16.4091C23.8844 16.9265 23.5101 18.099 23.2789 19.0182C23.1908 19.365 22.4807 19.8935 22.2716 19.8054C21.3743 19.4311 21.2147 18.6109 21.4183 17.6476ZM33.9083 19.6733C33.4349 20.0861 32.9725 20.0916 32.6862 19.5907C32.1908 18.71 32.2128 17.7852 32.8679 16.9925C33.0055 16.8274 33.6275 16.7944 33.7651 16.9375C34.5358 17.7632 34.5688 18.688 33.9083 19.6733Z" fill="black"/>
<path d="M24.2256 14.5208C23.7468 13.8548 22.8385 13.6401 22.0899 13.8327C21.4293 14.0089 20.8954 14.4383 20.2403 14.6254C20.0201 14.686 19.8275 14.774 19.7064 14.5098C19.6018 14.2951 19.6238 14.1025 19.8275 13.9428C20.8623 13.1557 22.7779 12.4621 24.1596 13.2327C24.4958 13.4394 24.7786 13.7223 24.9853 14.0584C25.1669 14.3172 25.233 14.697 24.9853 14.8896C24.6605 15.1428 24.4348 14.8236 24.2256 14.5208ZM34.4587 14.8511C33.9247 14.4933 33.4183 14.4493 32.9174 14.8071C32.7412 14.9337 32.5486 15.0713 32.3669 14.8511C32.1853 14.6254 32.2348 14.3777 32.4385 14.1575C32.7468 13.8217 33.1651 13.7667 33.5834 13.7172C34.0698 13.6709 34.5547 13.8184 34.9329 14.1276C35.3112 14.4368 35.5522 14.8827 35.6036 15.3685C35.6146 15.6052 35.6036 15.8694 35.3174 15.9355C35.0587 15.9905 34.8605 15.8419 34.7559 15.6107C34.6513 15.3795 34.5798 15.1318 34.4587 14.8511ZM29.1523 13.8162C29.4385 13.4529 29.5926 12.9905 29.9504 12.6823C30.088 12.5667 30.1926 12.3795 30.4183 12.5061C30.622 12.6217 30.6385 12.8309 30.5834 13.0016C30.4128 13.475 30.2146 13.9428 29.9945 14.3997C29.8844 14.6199 29.6091 14.7025 29.389 14.6309C29.0256 14.5208 29.1137 14.1961 29.1468 13.8658V13.8107L29.1523 13.8162Z" fill="black"/>
<path d="M29.1577 13.8052C29.0476 14.0364 28.9596 14.2731 28.844 14.4988C28.7559 14.6694 28.6128 14.8181 28.4036 14.752C28.1504 14.6749 28.1284 14.4603 28.1834 14.2401C28.2495 14.0144 28.321 13.7997 28.4036 13.5795C28.5137 13.3208 28.4862 12.897 28.9155 12.9575C29.3779 13.0291 29.1577 13.4199 29.1577 13.7502V13.8052Z" fill="black"/>
</g>
</g>
<defs>
<clipPath id="clip0_844_4193">
<path d="M0 24C0 10.7452 10.7452 0 24 0C37.2548 0 48 10.7452 48 24C48 37.2548 37.2548 48 24 48C10.7452 48 0 37.2548 0 24Z" fill="white"/>
</clipPath>
</defs>
</svg>
