<svg width="48" height="48" viewBox="0 0 48 48" fill="none" xmlns="http://www.w3.org/2000/svg">
<g clip-path="url(#clip0_844_4335)">
<mask id="mask0_844_4335" style="mask-type:luminance" maskUnits="userSpaceOnUse" x="0" y="0" width="48" height="48">
<path d="M48 0H0V48H48V0Z" fill="white"/>
</mask>
<g mask="url(#mask0_844_4335)">
<path d="M35.7248 42.8645C30.2642 59.2131 15.6991 64.2553 7.99817 43.9544C6.93578 41.1636 9.70459 40.1287 11.6422 38.8957C12.9688 38.0535 13.6679 37.3269 13.5853 36.5727C13.2 33.0278 11.5541 23.1526 11.5541 23.1526L11.389 22.8333C11.389 22.8333 11.4275 22.7452 11.2679 22.8993C11.1028 23.0645 10.7229 24.7819 9.23119 24.7819C7.88257 24.7819 6.52294 24.1819 5.8734 20.0314C5.62569 18.5287 5.7578 14.5874 7.43119 13.8718C8.11927 13.5801 8.7523 13.4755 9.36881 13.8278C9.99083 14.1801 8.65321 12.6168 15.5339 6.892C20.0037 3.15989 27.0661 2.61494 29.9174 3.24796C32.7688 3.88099 35.6147 5.27365 36.8752 8.22962C38.4055 11.8076 35.4495 14.5214 36.1046 22.6792C35.9835 25.6296 36.1486 32.103 28.0349 34.2718C26.4936 34.6847 26.9725 36.936 29.2844 37.4865C32.9725 38.6425 35.7248 41.4663 35.7248 42.8755" fill="white"/>
<path fill-rule="evenodd" clip-rule="evenodd" d="M35.7248 17.4607L35.7303 17.3836C35.956 15.38 36.1817 13.4368 37.222 11.6919C37.5798 11.9341 37.5358 12.2424 37.4257 12.5286C36.3303 15.3469 36.4349 18.2754 36.534 21.2038L36.556 21.9745C36.6716 25.6295 35.7578 28.9543 33.3248 31.7451C32.4771 32.7139 31.3542 33.3855 30.2147 33.9635C29.0367 34.569 28.789 35.0699 29.1578 36.3635L29.2019 36.5066C29.2789 36.7213 29.356 36.9414 29.1468 37.1561C28.8991 37.4093 28.6239 37.3378 28.3321 37.2552L28.2991 37.2497C25.5699 36.4855 23.0107 35.2097 20.7578 33.4901C20.4275 33.2479 20.1633 32.9231 19.9046 32.6038L19.8881 32.5818C19.7505 32.4167 19.723 32.1524 19.9156 32.0093C20.0973 31.8717 20.2349 31.9818 20.3945 32.1084L20.4496 32.158C21.6515 33.1332 23.1104 33.7393 24.6496 33.9029C25.3872 33.98 26.1138 33.9524 26.8514 33.9249C27.2587 33.9084 27.6661 33.8919 28.0789 33.8974C28.6404 33.8974 29.1083 33.6387 29.5486 33.391L29.7028 33.3029C31.2331 32.4497 32.6918 31.4974 33.6771 29.9616C34.5633 28.5855 35.1028 27.0882 35.4165 25.5084C35.8129 23.5213 35.7798 21.5066 35.7468 19.4644C35.7303 18.8038 35.7193 18.1323 35.7193 17.4607H35.7248ZM8.0147 13.3102C9.22021 13.2167 9.88626 13.9268 10.4532 14.758C11.1252 15.7735 11.5477 16.9334 11.6863 18.1433C11.7138 18.3469 11.7413 18.5616 11.6202 18.7653C11.3725 18.7983 11.3505 18.6002 11.345 18.457C11.3175 17.3176 10.811 16.3268 10.3046 15.369C9.94131 14.6809 9.41287 14.0148 8.57617 13.8497C7.62938 13.657 6.75966 14.5102 6.3303 15.6222C5.53213 17.6919 5.66975 19.7286 6.40736 21.7323C6.72663 22.6075 7.12846 23.4992 7.93764 24.1102C8.75232 24.7323 9.73764 24.6222 10.3376 23.7965L10.4477 23.6589C10.5578 23.5157 10.6679 23.3781 10.723 23.2185C10.8386 22.8992 11.0202 22.602 11.345 22.646C11.7193 22.7011 11.7853 23.1029 11.8239 23.4167C12.1654 26.3003 12.5691 29.1762 13.0349 32.0424L13.3597 34.1781C13.5028 35.1194 13.6679 36.4735 13.5578 37.046C13.5507 37.0862 13.5452 37.1266 13.5413 37.1671C13.5193 37.3213 13.5083 37.4424 13.3101 37.4699C13.0404 37.5139 12.9248 37.3598 12.8863 37.1176C12.7597 36.1818 12.7211 35.8185 12.6661 34.3873C12.6165 33.0002 12.3578 31.635 12.0936 30.2644L11.8184 28.7781C11.5321 27.0827 11.2514 25.3653 11.2239 23.4387L11.1138 23.6038C10.6954 24.2258 10.3597 24.7323 9.76516 24.9249C9.32386 25.094 8.84024 25.1185 8.38412 24.9948C7.92801 24.8711 7.52299 24.6057 7.22755 24.2368C6.45188 23.3608 5.90699 22.3051 5.64223 21.1653C5.17984 19.2937 5.09727 17.4717 5.69177 15.6277C5.978 14.7414 6.99635 13.1671 8.0147 13.3157V13.3102ZM9.91929 20.3286C10.1615 20.5047 10.3817 20.6589 10.5798 20.0313C10.5193 17.7084 9.77067 16.2222 8.6092 16.1616C9.22571 16.9653 9.82021 17.7469 9.87525 18.8313C9.6462 18.7144 9.44525 18.5491 9.28626 18.3469C9.17617 18.2258 9.06608 18.1047 8.92846 18.0167L8.76333 17.8846C8.49911 17.6864 8.22938 17.4772 7.78351 17.6368C7.99268 17.9561 8.27892 18.1873 8.57067 18.4075C8.90094 18.6662 9.23122 18.9194 9.42938 19.3157C8.84589 19.7396 8.59268 20.2901 8.89544 20.9616C9.15966 21.5396 9.55048 22.0185 10.3211 22.0515C10.2881 21.7047 10.0624 21.4515 9.83672 21.2038C9.56149 20.9066 9.30278 20.6203 9.42388 20.18C9.60002 20.0974 9.76516 20.2185 9.91929 20.3286Z" fill="black"/>
<path d="M58.0955 72.6054L-13.6678 72.4238C-13.6678 72.4238 -11.8293 60.8806 -8.36693 54.3137C-7.43115 52.5302 -3.90821 47.2293 -0.561425 43.877C1.68445 41.6201 4.2661 40.7944 4.33766 40.4641C4.45876 39.9302 3.73215 38.1852 3.85325 37.7944C4.29912 36.3907 4.37619 37.8384 6.17068 36.0439C7.17802 35.0421 6.24775 34.4146 7.35967 33.666C9.00004 32.5651 10.6624 33.1871 12.1487 33.2476C13.1395 33.2862 12.8312 36.0164 13.6514 36.688C15.8698 38.499 18.7046 39.6605 20.6973 40.1834C23.2349 40.855 24.0881 40.0458 25.3982 39.5118C26.7083 38.9834 27.5175 40.1834 29.1909 37.6843C29.9725 36.5173 28.5854 35.3394 29.6422 34.7118C31.2991 33.7265 33.8092 33.7595 34.8496 34.2935C36.4404 35.1082 35.7468 36.5834 35.7468 36.5834C35.7468 36.5834 37.712 37.2219 38.1138 37.7944C38.5101 38.3449 38.389 40.2164 38.389 40.2164C38.389 40.2164 38.2349 39.4623 41.8789 41.51C46.5138 44.1192 51.7432 51.8146 54.1542 57.8036C56.7193 64.1779 58.0955 72.6109 58.0955 72.6109V72.6054Z" fill="white"/>
<path d="M57.7431 72.6055C57.2257 70.4862 56.8129 68.3559 56.334 66.2367C55.9872 64.7064 55.5633 63.2091 55.1009 61.7119C54.578 60.0275 54.0275 58.3541 53.2844 56.7358C52.756 55.5963 52.2165 54.4734 51.6606 53.3504C50.741 51.572 49.6788 49.871 48.4844 48.2642C47.5037 46.8734 46.3882 45.5828 45.1541 44.411C43.7954 43.1382 42.2558 42.0735 40.5853 41.2514C40.4202 41.1688 40.222 41.1247 40.0789 41.0147C39.1431 40.3156 38.2239 40.6679 37.6129 41.7247C35.9174 44.6532 33.2863 45.9963 30.0606 46.4257C29.944 46.4456 29.8249 46.4456 29.7083 46.4257C29.4 46.3596 28.9596 46.3596 28.9927 45.9247C29.0312 45.5394 29.433 45.677 29.6918 45.644C32.0973 45.3247 34.3156 44.5651 35.934 42.655C36.6165 41.8403 37.1229 40.8715 37.6569 39.9413C38.2184 38.9559 37.789 37.4642 36.3523 37.1614C35.7028 37.0238 35.2789 36.8147 35.4606 35.9835C35.5707 35.455 35.1963 34.9431 34.734 34.7174C34.1615 34.4422 33.5395 34.2165 32.8349 34.4092C32.1908 34.5853 31.5028 34.6348 30.8367 34.7394C30.4459 34.7945 30.1652 35.0587 29.8459 35.2569C29.6037 35.411 29.6037 35.6091 29.7083 35.8624C30.0936 36.8202 29.7633 38.0532 28.9431 38.6697C28.134 39.2862 27.2697 39.7816 26.1908 39.6825C25.9211 39.655 25.7009 39.7486 25.4863 39.9247C24.7156 40.5743 23.8129 40.7229 22.8055 40.7119C20.6697 40.6899 18.7211 40.0183 16.7945 39.2091C16.3652 39.0275 16.0459 38.5156 15.3358 38.7963C16.822 40.7174 19.0239 41.4605 21.1486 42.5174C20.9533 42.6573 20.7258 42.7458 20.4872 42.7747C20.2486 42.8035 20.0066 42.7718 19.7835 42.6825C16.9541 41.7192 14.7248 40.0624 13.3321 37.3431C12.8697 36.4348 12.5119 35.5266 12.3358 34.5358C12.2092 33.8422 12.022 33.7761 11.367 34.0734C10.6404 34.4036 9.99635 34.8605 9.40185 35.3725C8.71378 35.9669 8.30093 36.6936 8.40552 37.6569C8.46057 38.1192 8.40552 38.5926 8.41653 39.066C8.41319 39.6432 8.60169 40.205 8.95242 40.6634C9.30315 41.1217 9.79622 41.4505 10.3541 41.5981C10.7428 41.6926 11.0951 41.8993 11.367 42.1926C10.5633 42.5559 9.13763 42.1266 8.44956 41.3174C6.59451 39.1266 7.32662 35.3394 9.86974 34.0073L10.145 33.8532C9.88191 33.7223 9.59526 33.6455 9.30199 33.6274C9.00872 33.6093 8.71481 33.6502 8.43764 33.7477C8.16047 33.8453 7.90569 33.9974 7.68837 34.1952C7.47106 34.3929 7.29564 34.6323 7.17249 34.8991C6.77216 35.9304 6.00049 36.7748 5.00919 37.266C4.16699 37.6899 3.91928 38.8458 4.57983 39.4348C5.86791 40.5798 6.9468 41.9559 8.42754 42.8807C9.27525 43.4091 10.0844 44.0367 10.9982 44.422C11.8679 44.7798 12.8477 44.8844 13.7835 45.0715C14.0587 45.1266 14.345 45.1156 14.5156 45.3798C14.5321 45.5669 14.422 45.688 14.2734 45.6825C12.5064 45.6 10.7835 45.4403 9.20919 44.4165C7.84661 43.5535 6.57416 42.5559 5.41102 41.4385C4.80552 40.833 4.13947 41.1027 3.53946 41.4385C1.39268 42.6495 -0.451361 44.2403 -2.12476 46.0458C-4.00017 48.0968 -5.61599 50.3707 -6.93576 52.8165C-7.99713 54.7323 -8.92591 56.7186 -9.71558 58.7614C-10.4326 60.6054 -11.0662 62.4807 -11.6147 64.3816C-12.167 66.2156 -12.5466 68.0972 -12.7486 70.0018C-12.8202 70.8385 -13.1504 71.6367 -13.1835 72.5449C-13.4862 72.6 -13.778 72.6 -14.1248 72.6C-13.8715 70.789 -13.5798 68.9669 -13.233 67.1614C-13.0293 66.1101 -12.7266 65.0752 -12.4789 64.0348C-12.1706 62.7358 -11.7413 61.4752 -11.3119 60.2147C-10.168 56.7581 -8.61571 53.4503 -6.68806 50.3614C-5.75778 48.8752 -4.70641 47.477 -3.55044 46.178C-1.53026 43.9156 0.649557 41.8844 3.38534 40.5082C3.73763 40.3266 3.89726 40.1229 3.61102 39.677C3.1046 38.8624 3.29176 37.1559 4.45873 36.6275C5.37249 36.2092 5.92295 35.4165 6.3468 34.5468C6.59005 33.9999 6.98697 33.5355 7.48928 33.2101C7.99159 32.8847 8.57765 32.7122 9.17616 32.7137C10.2551 32.6862 11.334 32.6752 12.4129 32.6587C12.9083 32.6587 13.189 32.7468 12.9688 33.3578C12.8312 33.7431 12.8808 34.1559 13.2661 34.4312C13.3249 34.4679 13.375 34.5169 13.4131 34.5749C13.4511 34.6328 13.476 34.6984 13.4863 34.7669C13.7285 36.4734 14.978 37.277 16.3541 37.9431C17.444 38.4715 18.534 39.0605 19.6844 39.3908C20.8844 39.7376 22.134 40.0569 23.411 39.9688C23.9558 39.9354 24.4751 39.7269 24.8918 39.3743C25.2385 39.077 25.6734 39.1046 26.0807 39.022C27.0165 38.8348 27.8697 38.4825 28.5578 37.8055C29.1743 37.189 29.2184 36.5945 28.7395 35.8624C28.3101 35.2073 28.5578 34.0018 29.2074 33.6165C29.4 33.5064 29.6863 33.4624 29.7468 33.7046C29.9119 34.3321 30.2863 34.0679 30.622 33.9688C31.6021 33.6397 32.6327 33.4869 33.6661 33.5174C34.414 33.5597 35.1233 33.8637 35.6697 34.3761C36.0991 34.7559 36.2037 35.2348 36.2092 35.7688C36.2092 36.1871 36.3413 36.4238 36.8147 36.5339C38.1743 36.8422 38.6752 37.5082 38.6973 38.9064C38.6973 39.1981 38.7743 39.3633 39.0441 39.5119C40.9486 40.5413 42.9193 41.4605 44.6367 42.8147C46.2496 44.0807 47.5541 45.6275 48.7927 47.2403C51.0902 50.2057 52.9547 53.4825 54.3303 56.9725C55.3321 59.5321 56.1853 62.1468 56.8844 64.811C57.545 67.3431 57.7652 69.9578 58.3762 72.5504C58.2 72.6 58.0074 72.6 57.7486 72.6L57.7431 72.6055Z" fill="black"/>
<path d="M47.5982 72.6056C47.0862 70.602 46.9211 68.5433 46.3762 66.5506C45.9468 64.9873 45.6055 63.391 45.044 61.8717C44.6477 60.8038 44.2734 59.7249 43.7505 58.6956C43.0514 57.3194 42.4679 55.8772 41.8404 54.457C41.7633 54.2919 41.6862 54.1102 41.9174 53.9726C42.1596 53.824 42.3358 53.9396 42.4624 54.1212C42.7376 54.5231 43.0239 54.9249 43.244 55.3598C44.1248 57.0772 45.0055 58.8112 45.611 60.6442C46.0239 61.8992 46.4697 63.1488 46.778 64.4423C46.9927 65.3506 47.2294 66.2589 47.4385 67.1616C47.8239 68.9341 48.0936 70.7396 48.2367 72.5506C48.0495 72.6056 47.8514 72.6056 47.5982 72.6056ZM-2.14678 72.6056C-2.21899 71.0144 -2.13788 69.4199 -1.90458 67.8442C-1.70091 66.2479 -1.66238 64.635 -1.29908 63.0552C-1.0844 62.1194 -0.803663 61.2056 -0.583479 60.2809C-0.17614 58.5139 0.412851 56.7855 1.32111 55.1946C1.45322 54.9745 1.58533 54.7543 1.72845 54.5341C1.85505 54.3524 1.95414 54.0552 2.25138 54.1928C2.56514 54.3469 2.42753 54.6442 2.35047 54.8754C2.18799 55.3621 2.00433 55.8414 1.80001 56.3121C0.809183 58.5139 -0.016506 60.7818 -0.434855 63.1378C-0.836689 65.4497 -1.30458 67.7781 -1.2055 70.1616C-1.16696 70.9323 -1.29357 71.7029 -1.34862 72.5396C-1.59632 72.6056 -1.84403 72.6056 -2.14128 72.6056H-2.14678ZM20.4385 54.4295C20.356 53.8901 20.5927 53.5102 20.8018 53.1139C21.4294 51.9414 21.2642 51.468 20.1633 50.769C19.189 50.1469 18.2202 49.5029 17.7303 48.3469C17.411 47.5763 17.4881 46.7891 17.389 46.013C17.334 45.6167 17.5211 45.1323 18.0661 45.0937C18.5835 45.0607 19.2165 44.9011 19.4752 45.5561C19.6624 46.0295 19.5908 46.4919 19.1339 46.8772C18.3083 47.5818 18.3688 47.9616 19.3376 48.479C20.0973 48.8864 20.9064 49.2112 21.567 49.7946C22.8771 50.9506 22.9982 52.8772 21.8147 54.1543C21.4404 54.5561 21.3853 54.9965 21.4844 55.5084C21.534 55.7451 21.633 56.0699 21.3138 56.1855C21.022 56.2956 20.956 55.9653 20.8073 55.8001C20.4606 55.4258 20.4165 54.9745 20.4385 54.4295ZM30.0716 56.5047C30.1376 56.6919 30.3248 56.791 30.2367 56.9781C29.1028 56.9946 28.3156 55.635 28.8055 54.5561C29.0807 53.9341 29.5431 53.4222 29.6752 52.7231C29.8404 51.8148 29.6752 51.3359 28.8495 50.9451C27.3633 50.235 26.6587 49.1286 26.9064 47.4552C26.9835 46.9378 26.9835 46.4864 26.2569 46.3157C25.7615 46.1946 25.6404 45.6442 25.7505 45.1598C25.8606 44.6919 26.2349 44.3946 26.6862 44.4662C27.1046 44.5378 27.644 44.6589 27.6055 45.3139C27.5945 45.479 27.5835 45.6497 27.7156 45.7763C28.3211 46.3818 28.189 47.1029 28.0459 47.8185C27.9248 48.4295 28.0459 48.9359 28.5853 49.2937C28.9376 49.5249 29.2734 49.7836 29.6422 49.9873C30.0248 50.1772 30.3568 50.4553 30.6109 50.7986C30.8651 51.1419 31.034 51.5407 31.1039 51.9621C31.1738 52.3834 31.1426 52.8154 31.0128 53.2224C30.8831 53.6293 30.6586 53.9997 30.3578 54.3029C29.5706 55.1836 29.4936 55.7176 30.0716 56.5047ZM32.6422 39.2478C33.567 38.8625 33.622 38.3231 33.6055 37.3983C33.6055 37.1231 33.4734 36.8478 33.6495 36.5781C34.2606 36.7102 34.6184 37.4809 34.4202 38.2295C34.2627 38.8114 33.9109 39.3219 33.4233 39.6764C32.9357 40.0308 32.3415 40.2079 31.7395 40.1781C31.4192 40.1716 31.1011 40.2319 30.8054 40.3551C30.5097 40.4783 30.2429 40.6617 30.022 40.8937C29.5982 41.279 29.1138 41.4717 28.5358 41.1359C29.5707 40.6185 30.2477 39.4405 31.6018 39.5836C31.9762 39.6222 32.2624 39.391 32.6367 39.2534L32.6422 39.2478Z" fill="black"/>
<path fill-rule="evenodd" clip-rule="evenodd" d="M33.0275 2.334C32.7358 2.20189 32.4495 2.05877 32.1578 1.92116C31.789 1.81106 31.4367 1.69547 31.0789 1.57437C30.3307 1.30295 29.561 1.09487 28.778 0.95235C29.0697 -0.506366 28.6514 -1.55774 27.1541 -1.99261C26.9339 -2.05866 26.8899 -2.20178 26.8679 -2.41646C26.6972 -4.36508 25.0679 -5.38893 23.2899 -4.61829C22.8 -4.40361 22.4972 -4.45316 22.189 -4.79444C21.1982 -5.88435 19.9541 -6.47884 18.5449 -6.86967C16.5523 -7.42013 14.6642 -7.33205 12.8367 -6.35224C11.1047 -5.41416 9.58341 -4.13084 8.36696 -2.5816C7.40974 -1.39841 6.66647 -0.0571632 6.17063 1.38171C5.45504 3.52299 4.75595 5.66978 4.37614 7.92666L4.17247 9.15969C3.82568 11.3285 3.47338 13.5028 2.67522 15.5835L2.6477 15.6606C2.04219 17.2569 1.43669 18.8257 0.242191 20.0973C-0.550469 20.934 -1.28258 20.9065 -2.08074 20.0753C-2.30643 19.8441 -2.46607 19.5689 -2.6312 19.2826C-2.81836 18.9523 -3.01652 18.6166 -3.33029 18.2918C-4.54129 19.679 -4.54129 21.2368 -4.21102 22.9046C-4.48625 22.7725 -4.59084 22.9046 -4.70643 23.0698L-4.76148 23.1358C-5.42203 23.9505 -5.04772 26.5872 -4.48625 27.4294C-3.26423 29.2349 -1.50827 29.8459 0.566963 29.9285C1.3376 29.9615 2.07522 29.8955 2.71375 29.4881C2.93944 29.3395 3.18715 29.2349 3.42935 29.1303C3.87522 28.9377 4.32109 28.745 4.64036 28.3322C4.06788 29.6257 3.26421 30.6331 1.88806 31.167C1.55779 31.2991 1.211 31.3322 0.875219 31.3597C0.544944 31.3927 0.220173 31.4202 -0.0935879 31.5413C-0.577991 31.723 -0.754138 32.0092 -0.533955 32.4496C0.00275135 33.6409 0.894932 34.6369 2.02017 35.301C3.23118 35.989 4.55228 36.2312 5.90641 35.7028C5.97797 35.8294 5.93393 35.934 5.8899 36.0441C5.84586 36.1432 5.80182 36.2478 5.84036 36.3854C6.96329 36.4734 8.11375 36.4734 9.23118 36.2753C10.0183 36.1377 12.9633 34.123 12.9523 33.1377C12.9413 31.9322 12.6991 30.7872 12.4569 29.6533C12.1541 28.1725 11.8459 26.7083 12.0495 25.134C12.0936 24.8037 12.0055 23.1248 11.6917 22.9542C11.4165 22.8111 10.6954 23.7854 10.3321 24.2753L10.156 24.5065C8.45504 26.5157 3.66054 21.4734 5.84586 15.4239C6.63852 13.2441 9.24219 12.6936 10.4147 14.7634C10.9211 15.6551 10.6899 16.5799 10.4477 17.5046L10.4257 17.6037C9.93026 19.5413 10.0844 20.9835 12.4128 21.9358L12.567 21.9909C12.8037 22.0735 13.0459 22.1615 13.1945 22.4643C13.6899 23.4551 13.8 24.3964 13.1394 25.3542C13.1064 25.4037 13.0624 25.4478 13.0238 25.4863C12.9027 25.6129 12.7816 25.734 12.8587 25.9487L12.9082 25.9817C12.9358 26.0037 12.9633 26.0257 12.9853 26.0202C14.2073 25.69 14.8844 24.7707 15.3027 23.6808C15.655 22.767 15.3138 21.9303 14.6752 21.2312C14.3284 20.8459 13.9871 20.4606 13.7394 20.0092C13.222 19.0349 13.6349 18.0386 14.6862 17.7138C14.7908 17.6753 14.8899 17.6257 14.989 17.5762L15.1926 17.4826C15.6816 17.2481 16.1281 16.9337 16.5138 16.5523C16.7009 16.3872 16.8991 16.2221 17.0972 16.0624C18.2697 15.1817 19.167 14.1138 19.3431 12.6001C19.4532 11.6478 19.6293 10.7065 19.8605 9.7762C19.9063 9.90895 19.9287 10.0486 19.9266 10.189C19.9046 11.0973 20.0367 11.279 20.9449 11.312C21.589 11.3395 22.2 11.1689 22.8275 10.9927C23.1027 10.9157 23.378 10.8386 23.6587 10.7725C23.7138 10.8056 23.7413 10.8716 23.7743 10.9487C23.8293 11.0918 23.9009 11.2459 24.1266 11.2129C24.4183 11.1744 24.7101 11.1799 25.0073 11.1854C25.4312 11.2019 25.866 11.2129 26.2954 11.0698C26.4826 9.85327 26.4495 8.67529 26.4055 7.38171C26.378 6.36336 26.3505 5.27895 26.4165 4.04042C26.8128 4.65694 27.3963 6.97987 27.4238 7.56336C27.6 11.2184 28.0294 11.2514 28.3321 11.279L28.4422 11.2955C28.9541 11.4496 29.6532 11.5707 30.3578 11.7028C31.1009 11.8349 31.8605 11.978 32.444 12.1432L32.6642 10.0074L32.8624 9.99088C32.9119 10.189 32.9725 10.3817 33.033 10.5799C33.1871 11.0753 33.3413 11.5652 33.3358 12.0991C33.3248 12.6496 33.4844 13.0569 34.2055 13.2386C34.3923 12.4995 34.5029 11.7433 34.5358 10.9817C34.5633 10.6404 34.5908 10.2936 34.6293 9.94684C34.8768 10.3145 35.009 10.7477 35.0092 11.1909L35.0202 11.5322C35.0422 12.1927 35.0697 12.8423 34.9156 13.4918C34.8165 13.9322 35.1248 14.1799 35.4165 14.4166H35.422C35.6202 14.5817 35.7303 14.4496 35.8459 14.3285L35.9339 14.2404C35.7908 15.1377 36.3027 15.7267 36.8092 16.3046L37.156 16.712C37.3927 17.0147 37.8605 16.767 37.9761 16.4918C38.0862 16.2166 38.2404 15.9744 38.4 15.7377C38.5255 15.5522 38.6395 15.3592 38.7413 15.1597C39.4128 13.7835 39.6055 12.2863 39.633 10.789C39.6382 9.94799 39.4928 9.11279 39.2037 8.32299C38.5982 6.61657 37.3651 5.37253 36.0771 4.17253C35.1963 3.34684 34.1229 2.85143 33.0275 2.334ZM10.6679 6.2973C10.6789 6.24226 10.6899 6.18721 10.6844 6.14318C10.8991 4.22758 11.8954 2.86244 13.2605 1.73951C13.7504 1.34317 14.3339 1.0129 15.044 1.06795C15.4734 1.10097 15.8147 1.23308 16.0404 1.65143C13.8826 2.87895 12.2587 4.65694 10.866 6.67712C10.6183 6.59455 10.6459 6.44593 10.6679 6.2918V6.2973Z" fill="black"/>
<path d="M27.622 1.48614C28.1504 1.11733 28.5413 0.638435 28.3926 -0.0276198C28.2275 -0.803766 27.7871 -1.40377 26.9229 -1.51936C26.5101 -1.57441 26.2514 -1.72854 26.3284 -2.19643C26.4771 -3.15973 25.9101 -3.68267 25.189 -4.16707C24.4459 -4.66248 23.7743 -4.4423 23.1688 -4.00193C22.7174 -3.67166 22.4257 -3.68817 22.0128 -4.04046C21.011 -4.87716 20.1248 -4.81111 19.2605 -3.8423C19.0011 -3.50741 18.6299 -3.27689 18.2147 -3.19276C17.6422 -3.09367 17.389 -2.68633 17.1963 -2.1689C16.9101 -1.38725 17.1303 -0.550555 16.8385 0.236601C16.6734 0.682472 16.6018 1.23293 17.3339 1.39256C17.5101 1.4311 17.4991 1.62926 17.5211 1.7999C17.7303 3.24211 18.4018 3.63293 19.7504 3.12101C19.9643 3.02489 20.2024 2.99609 20.433 3.03844C21.0826 3.17605 21.7541 3.42926 22.3431 2.81825C22.4257 2.73018 22.6569 2.76321 22.8165 2.79073C23.6532 2.92284 24.3578 2.79073 24.7706 1.85495C25.789 2.44945 26.6257 1.78339 27.622 1.48614Z" fill="white"/>
<path d="M29.5762 29.2129C27.9688 29.9835 25.9927 29.378 24.9413 28.3322C24.8147 28.2056 24.7321 28.0239 24.6496 27.8588C24.5945 27.7322 24.5615 27.5835 24.6881 27.468C24.8092 27.3524 24.9468 27.3689 25.0789 27.4294C25.222 27.501 25.3872 27.567 25.4918 27.6771C26.1578 28.3927 27.0331 28.5799 27.9523 28.723C28.4587 28.7891 28.8441 28.4753 29.2844 28.3597C29.5762 28.2826 29.8899 27.8643 30.1101 28.3212C30.2918 28.6955 30.0386 29.0313 29.5762 29.2019V29.2129ZM23.2074 27.1047C23.4496 26.4331 23.9615 26.1799 24.5395 26.0313C24.8147 25.9597 25.134 25.9377 25.2551 26.268C25.3872 26.6533 25.0789 26.868 24.7982 26.9285C24.3964 27.0056 24.1376 27.1817 23.9505 27.545C23.8294 27.7817 23.6367 28.079 23.3064 27.9303C22.9101 27.7652 23.0973 27.4349 23.2074 27.1047Z" fill="black"/>
<path d="M29.378 18.6332C29.7358 19.9048 30.2037 21.0553 31.0404 22.0516C31.3817 22.4589 31.2386 23.0479 30.8753 23.4057C30.1156 24.1433 29.2624 24.7268 28.123 24.2644C27.8477 24.1543 27.6165 24.292 27.3688 24.314C26.8459 24.358 26.4551 24.2314 26.4551 23.5268C27.1817 23.6589 27.8312 23.125 28.5964 23.5929C28.9376 23.8076 29.5817 23.5599 29.967 23.2626C30.2808 23.0149 30.5065 22.6736 30.1046 22.2002C29.0587 20.9507 28.6184 19.4314 28.4532 17.8461C28.4078 17.3085 28.4947 16.768 28.7065 16.2718C28.8055 16.0186 28.9927 15.7984 29.301 15.9085C29.6037 16.0186 29.5487 16.3103 29.4661 16.514C29.1798 17.1966 29.2459 17.8846 29.378 18.6277V18.6332Z" fill="black"/>
<path d="M32.1027 17.5981C32.8238 17.6147 33.5009 17.6532 34.178 17.7358C34.3431 17.7523 34.4477 17.9174 34.4532 18.0991C34.4532 18.2862 34.3541 18.4128 34.189 18.4844C33.578 18.7541 32.978 18.9413 32.3339 18.4954C31.9761 18.2532 31.844 18.022 32.1027 17.5981ZM23.5982 17.7468C23.9394 17.9284 23.8844 18.1321 23.7137 18.3413C23.356 18.7816 22.1615 18.8917 21.7101 18.5339C21.4514 18.3248 21.3082 18.0605 21.4679 17.7413C21.633 17.411 21.9193 17.466 22.1835 17.6037C22.6238 17.8238 23.0862 17.7688 23.5982 17.7468Z" fill="black"/>
<path d="M21.5505 14.2351C22.1238 13.9839 22.6364 13.6121 23.0532 13.1451C23.2019 12.98 23.389 12.8314 23.5982 12.8699C23.967 12.9305 24.4899 12.8149 24.6331 13.2828C24.7487 13.6681 24.3468 13.8607 24.0661 14.0754C23.3065 14.6534 22.5138 15.1213 21.501 14.9947C21.2477 14.9672 20.967 15.0057 20.8954 14.6534C20.9835 14.3507 21.2973 14.3837 21.5505 14.2351ZM32.4441 12.991C32.912 12.8974 33.1376 13.2167 33.3854 13.4424C33.8312 13.8497 34.1945 14.3451 34.8165 14.5323C34.9982 14.5874 35.1303 14.7525 35.0367 14.9727C34.9542 15.1653 34.8165 15.2864 34.5964 15.2259C33.8092 15.0167 32.989 14.9011 32.3615 14.3011C31.811 13.7727 31.8 13.5305 32.4441 12.9965V12.991Z" fill="black"/>
</g>
</g>
<defs>
<clipPath id="clip0_844_4335">
<path d="M0 24C0 10.7452 10.7452 0 24 0C37.2548 0 48 10.7452 48 24C48 37.2548 37.2548 48 24 48C10.7452 48 0 37.2548 0 24Z" fill="white"/>
</clipPath>
</defs>
</svg>
