<svg width="20" height="20" viewBox="0 0 20 20" fill="none" xmlns="http://www.w3.org/2000/svg">
<path d="M16.8609 8.95606C16.8609 14.3349 11.3517 17.6486 10.2068 18.2798C10.1434 18.3148 10.0722 18.3332 9.99974 18.3332C9.9273 18.3332 9.85605 18.3148 9.79263 18.2798C8.64688 17.6486 3.1394 14.3349 3.1394 8.95606C3.1394 4.66809 5.71219 1.6665 10.0002 1.6665C14.2881 1.6665 16.8609 4.66809 16.8609 8.95606Z" stroke="#59B8FE" stroke-width="1.4" stroke-linecap="round" stroke-linejoin="round"/>
<path d="M6.5697 8.52755C6.5697 9.43734 6.93112 10.3099 7.57444 10.9532C8.21776 11.5965 9.09029 11.9579 10.0001 11.9579C10.9099 11.9579 11.7824 11.5965 12.4257 10.9532C13.069 10.3099 13.4305 9.43734 13.4305 8.52755C13.4305 7.61775 13.069 6.74522 12.4257 6.1019C11.7824 5.45858 10.9099 5.09717 10.0001 5.09717C9.09029 5.09717 8.21776 5.45858 7.57444 6.1019C6.93112 6.74522 6.5697 7.61775 6.5697 8.52755V8.52755Z" stroke="#59B8FE" stroke-width="1.4" stroke-linecap="round" stroke-linejoin="round"/>
</svg>
