<svg width="77" height="28" viewBox="0 0 77 28" fill="none" xmlns="http://www.w3.org/2000/svg">
<path d="M12.4414 2.49902C16.9823 2.49902 19.2532 2.49908 20.8886 3.58105C21.6188 4.06421 22.2443 4.68976 22.7275 5.41992C23.8096 7.05535 23.8105 9.32613 23.8105 13.8672C23.8105 18.4084 23.8096 20.679 22.7275 22.3145C22.2443 23.0448 21.6189 23.6701 20.8886 24.1533C19.2532 25.2354 16.9826 25.2363 12.4414 25.2363C7.90029 25.2363 5.62951 25.2354 3.99409 24.1533C3.26392 23.6701 2.63837 23.0447 2.15522 22.3145C1.07325 20.679 1.07319 18.4082 1.07319 13.8672C1.07319 9.32613 1.0731 7.05535 2.15522 5.41992C2.63841 4.68969 3.26386 4.06425 3.99409 3.58105C5.62951 2.49894 7.90029 2.49902 12.4414 2.49902ZM12.4414 7.98242C9.19087 7.98245 6.55561 10.6177 6.55561 13.8682C6.55584 17.1185 9.19101 19.7529 12.4414 19.7529C15.6917 19.7529 18.3269 17.1185 18.3271 13.8682C18.3271 10.6177 15.6919 7.98242 12.4414 7.98242ZM12.4414 9.97363C14.5921 9.97363 16.3359 11.7174 16.3359 13.8682C16.3357 16.0187 14.592 17.7617 12.4414 17.7617C10.2907 17.7617 8.54706 16.0187 8.54682 13.8682C8.54682 11.7174 10.2906 9.97366 12.4414 9.97363ZM18.5595 6.30371C17.7957 6.30371 17.1767 6.92275 17.1767 7.68652C17.1767 8.45027 17.7958 9.06934 18.5595 9.06934C19.3232 9.06929 19.9423 8.45024 19.9423 7.68652C19.9423 6.92278 19.3232 6.30376 18.5595 6.30371Z" fill="#59B8FE"/>
<path d="M71.1848 4.09326H54.8152C51.6036 4.09326 49 6.69683 49 9.9085V18.0915C49 21.3032 51.6036 23.9068 54.8152 23.9068H71.1848C74.3964 23.9068 77 21.3032 77 18.0915V9.9085C77 6.69683 74.3964 4.09326 71.1848 4.09326ZM67.252 14.3982L59.5954 18.0499C59.3914 18.1472 59.1557 17.9984 59.1557 17.7724V10.2407C59.1557 10.0115 59.3976 9.86295 59.602 9.96657L67.2586 13.8465C67.4862 13.9619 67.4823 14.2883 67.252 14.3982Z" fill="#59B8FE"/>
</svg>
