<svg width="152" height="42" viewBox="0 0 152 42" fill="none" xmlns="http://www.w3.org/2000/svg">
<path d="M76.4414 9.22624C80.9824 9.22624 83.2532 9.22631 84.8887 10.3083C85.6189 10.7914 86.2443 11.417 86.7275 12.1471C87.8097 13.7826 87.8105 16.0533 87.8105 20.5944C87.8105 25.1356 87.8097 27.4062 86.7275 29.0417C86.2443 29.772 85.619 30.3973 84.8887 30.8805C83.2532 31.9627 80.9826 31.9635 76.4414 31.9635C71.9003 31.9635 69.6296 31.9627 67.9941 30.8805C67.264 30.3973 66.6384 29.7719 66.1553 29.0417C65.0733 27.4062 65.0732 25.1354 65.0732 20.5944C65.0732 16.0533 65.0732 13.7826 66.1553 12.1471C66.6385 11.4169 67.2639 10.7915 67.9941 10.3083C69.6296 9.22616 71.9003 9.22624 76.4414 9.22624ZM76.4414 14.7096C73.1909 14.7097 70.5557 17.3449 70.5557 20.5954C70.5559 23.8457 73.1911 26.4801 76.4414 26.4802C79.6918 26.4802 82.3269 23.8457 82.3271 20.5954C82.3271 17.3449 79.6919 14.7096 76.4414 14.7096ZM76.4414 16.7009C78.5922 16.7009 80.3359 18.4446 80.3359 20.5954C80.3357 22.746 78.592 24.4889 76.4414 24.4889C74.2908 24.4889 72.5471 22.7459 72.5469 20.5954C72.5469 18.4446 74.2907 16.7009 76.4414 16.7009ZM82.5596 13.0309C81.7958 13.0309 81.1768 13.65 81.1768 14.4137C81.1768 15.1775 81.7958 15.7966 82.5596 15.7966C83.3233 15.7965 83.9424 15.1775 83.9424 14.4137C83.9424 13.65 83.3233 13.031 82.5596 13.0309Z" fill="#59B8FE"/>
</svg>
