<svg width="15" height="14" viewBox="0 0 15 14" fill="none" xmlns="http://www.w3.org/2000/svg">
<path d="M6.46828 0.726454C6.7956 -0.242171 8.16559 -0.242173 8.4929 0.726452L9.54985 3.85429C9.69657 4.28848 10.1038 4.58076 10.5622 4.58076H13.8906C14.9359 4.58076 15.3594 5.92666 14.5026 6.52526L11.8828 8.35541C11.4935 8.62736 11.3304 9.12358 11.4825 9.57345L12.5 12.5846C12.8301 13.5617 11.7212 14.3933 10.8757 13.8026L8.09254 11.8583C7.72498 11.6015 7.23621 11.6015 6.86865 11.8583L4.08549 13.8026C3.23996 14.3933 2.13104 13.5617 2.46123 12.5846L3.47874 9.57345C3.63076 9.12358 3.46765 8.62736 3.07837 8.35541L0.45863 6.52526C-0.398231 5.92666 0.0253286 4.58076 1.07057 4.58076H4.39903C4.85734 4.58076 5.26462 4.28848 5.41134 3.85429L6.46828 0.726454Z" fill="#FBAE17"/>
</svg>
